<svg width="900" height="700" viewBox="0 0 900 700" fill="none" xmlns="http://www.w3.org/2000/svg">
<path d="M779.128 596.601C839.27 555.009 944.102 545.373 989 545.754V112.119C986.285 110.596 977.473 108.463 963.941 112.119C947.026 116.69 906.931 132.115 833.005 151.54C759.08 170.965 630.024 110.977 595.567 80.1251C568.002 55.4439 567.793 8.51917 571.135 -11.858L458.994 -16.9999C461.082 -15.2859 461.625 -3.63098 447.091 29.2772C428.922 70.4125 407.622 78.9824 393.839 93.2655C380.057 107.549 232.562 146.127 168.931 191.533C163.527 195.39 121.945 236.668 144.498 318.938C167.052 401.209 150.763 489.193 132.595 545.754C114.427 602.315 37.3694 642.307 27.3456 648.021C17.3219 653.734 -3.13342 669.348 0.406799 690.87C5.7843 723.561 11.057 739.242 19.8278 753.144L337.456 760C335.785 732.196 351.364 661.275 427.043 600.029C521.642 523.472 623.759 613.741 630.024 617.169C636.289 620.597 703.949 648.592 779.128 596.601Z" fill="white" fill-opacity="0.09"/>
</svg>
