<svg width="930" height="600" viewBox="0 0 930 600" fill="none" xmlns="http://www.w3.org/2000/svg">
<path d="M779.353 90.4633C839.513 129.272 944.375 138.264 989.286 137.908V542.522C986.57 543.944 977.755 545.934 964.219 542.522C947.299 538.257 907.193 523.864 833.246 505.739C759.3 487.614 630.206 543.588 595.74 572.375C568.166 595.404 567.957 639.189 571.3 658.202L459.127 663C461.215 661.401 461.758 650.526 447.22 619.82C429.047 581.438 407.74 573.441 393.953 560.114C380.167 546.787 232.629 510.79 168.98 468.423C163.574 464.824 121.98 426.309 144.54 349.544C167.1 272.779 150.807 190.684 132.633 137.908C114.46 85.1324 37.3802 47.8162 27.3536 42.4853C17.3269 37.1544 -3.13434 22.5855 0.406921 2.50367C5.78595 -28 11.0602 -42.6311 19.8336 -55.6029L337.553 -62C335.882 -36.0564 351.465 30.1176 427.167 87.2647C521.793 158.699 623.94 74.4706 630.206 71.2721C636.473 68.0735 704.153 41.9522 779.353 90.4633Z" fill="white" fill-opacity="0.09"/>
</svg>
