<svg width="123" height="107" viewBox="0 0 123 107" fill="none" xmlns="http://www.w3.org/2000/svg">
<circle cx="61.8754" cy="43.6507" r="41.8987" transform="rotate(-0.701232 61.8754 43.6507)" fill="#FF0000" stroke="#FF0000" stroke-width="1.5"/>
<path d="M56.2616 27.829L56.487 46.2476L52.2244 46.2997L52.0408 31.3017L48.3571 31.3468L48.3153 27.9262L56.2616 27.829ZM65.8608 34.6326C68.457 34.6009 70.3753 35.0949 71.6159 36.1149C72.874 37.1346 73.5137 38.5127 73.535 40.2493C73.5487 41.372 73.2806 42.4016 72.7306 43.3382C72.1805 44.2572 71.33 45.0045 70.1791 45.58C69.0455 46.1377 67.6368 46.4269 65.9528 46.4475C64.6547 46.4634 63.3722 46.3124 62.1051 45.9946C60.8553 45.659 59.7881 45.1808 58.9033 44.5601L60.5473 41.2767C61.2554 41.7944 62.0674 42.1967 62.9832 42.4838C63.8988 42.7533 64.839 42.8821 65.8037 42.8703C66.8738 42.8572 67.7132 42.6364 68.322 42.2079C68.9308 41.7794 69.2306 41.188 69.2214 40.4337C69.2117 39.6444 68.8799 39.0519 68.2259 38.6564C67.5895 38.2607 66.4819 38.0725 64.9031 38.0918L60.1932 38.1494L61.0136 27.7708L72.2489 27.6333L72.2908 31.0539L64.6076 31.1479L64.361 34.651L65.8608 34.6326Z" fill="white"/>
<path d="M53.3683 61.6012L53.3078 56.6589L50.8874 60.8333L49.8743 60.8457L47.4137 56.7157L47.4743 61.6733L45.3101 61.6998L45.2091 53.4422L47.7109 53.4115L50.4094 58.1527L53.1598 53.3448L55.4007 53.3174L55.5325 61.5747L53.3683 61.6012ZM57.725 53.289L60.104 53.2599L60.1642 58.1715L64.1254 53.2106L66.3203 53.1838L66.4214 61.4414L64.0423 61.4706L63.9822 56.5589L60.0363 61.5196L57.826 61.5466L57.725 53.289ZM68.622 53.1556L71.0011 53.1265L71.0406 56.3497L74.6322 56.3058L74.5927 53.0825L76.9872 53.0532L77.0882 61.3109L74.6938 61.3402L74.656 58.2551L71.0644 58.299L71.1022 61.3841L68.7231 61.4133L68.622 53.1556Z" fill="white"/>

</svg>