<svg width="123" height="107" viewBox="0 0 123 107" fill="none" xmlns="http://www.w3.org/2000/svg">
<circle cx="61.8754" cy="43.6507" r="41.8987" transform="rotate(-0.701232 61.8754 43.6507)" fill="#3F3D56" stroke="#3F3D56" stroke-width="1.5"/>
<path d="M56.2616 27.829L56.487 46.2476L52.2244 46.2997L52.0408 31.3017L48.3571 31.3468L48.3153 27.9262L56.2616 27.829ZM65.8608 34.6326C68.457 34.6009 70.3753 35.0949 71.6159 36.1149C72.874 37.1346 73.5137 38.5127 73.535 40.2493C73.5487 41.372 73.2806 42.4016 72.7306 43.3382C72.1805 44.2572 71.33 45.0045 70.1791 45.58C69.0455 46.1377 67.6368 46.4269 65.9528 46.4475C64.6547 46.4634 63.3722 46.3124 62.1051 45.9946C60.8553 45.659 59.7881 45.1808 58.9033 44.5601L60.5473 41.2767C61.2554 41.7944 62.0674 42.1967 62.9832 42.4838C63.8988 42.7533 64.839 42.8821 65.8037 42.8703C66.8738 42.8572 67.7132 42.6364 68.322 42.2079C68.9308 41.7794 69.2306 41.188 69.2214 40.4337C69.2117 39.6444 68.8799 39.0519 68.2259 38.6564C67.5895 38.2607 66.4819 38.0725 64.9031 38.0918L60.1932 38.1494L61.0136 27.7708L72.2489 27.6333L72.2908 31.0539L64.6076 31.1479L64.361 34.651L65.8608 34.6326Z" fill="white"/>
<path d="M53.3683 61.6012L53.3078 56.6589L50.8874 60.8333L49.8743 60.8457L47.4137 56.7157L47.4743 61.6733L45.3101 61.6998L45.2091 53.4422L47.7109 53.4115L50.4094 58.1527L53.1598 53.3448L55.4007 53.3174L55.5325 61.5747L53.3683 61.6012ZM57.725 53.289L60.104 53.2599L60.1642 58.1715L64.1254 53.2106L66.3203 53.1838L66.4214 61.4414L64.0423 61.4706L63.9822 56.5589L60.0363 61.5196L57.826 61.5466L57.725 53.289ZM68.622 53.1556L71.0011 53.1265L71.0406 56.3497L74.6322 56.3058L74.5927 53.0825L76.9872 53.0532L77.0882 61.3109L74.6938 61.3402L74.656 58.2551L71.0644 58.299L71.1022 61.3841L68.7231 61.4133L68.622 53.1556Z" fill="white"/>
<path d="M5.50414 54.4376C5.62795 55.7197 6.18904 56.3953 6.93273 56.958L7.909 55.7962C7.44648 55.39 7.14216 54.9939 7.08315 54.3827C6.98711 53.3882 7.71723 52.6832 8.70055 52.5964C9.67188 52.5106 10.5378 53.0867 10.6257 53.9974C10.6952 54.7164 10.4684 55.1231 10.1348 55.5513L11.3171 56.5225C11.9307 55.8641 12.3147 55.0809 12.1978 53.8707C12.008 51.9055 10.3617 50.637 8.52699 50.799C6.66828 50.9631 5.31785 52.5084 5.50414 54.4376Z" fill="white"/>
<path d="M4.31058 59.499L4.78979 61.2589L7.4694 60.5977C7.08193 61.1381 6.80849 61.8234 7.06386 62.7613C7.46425 64.2318 8.97486 65.3047 11.0603 64.7901C13.169 64.2697 13.9356 62.6101 13.5415 61.1628C13.2925 60.2481 12.7006 59.764 12.0015 59.4793L12.8985 59.2579L12.4193 57.498L4.31058 59.499ZM8.44382 61.9389C8.21998 61.1168 8.72135 60.264 9.75825 60.0082C10.8184 59.7465 11.6918 60.26 11.9157 61.0821C12.1395 61.9042 11.6413 62.7685 10.6044 63.0244C9.53255 63.2889 8.66766 62.7609 8.44382 61.9389Z" fill="white"/>
<path d="M9.86206 70.6301C10.3491 71.6864 11.1311 72.2951 12.0683 72.5534L12.4837 71.2508C11.8412 70.9734 11.4784 70.6443 11.2223 70.0889C10.8809 69.3485 11.0384 68.6597 11.7267 68.1779L13.5994 72.2396C13.7594 72.1859 13.9194 72.1322 14.0522 72.0768C15.7345 71.3754 16.8611 69.8411 15.9624 67.8919C15.1792 66.1932 13.2375 65.5877 11.5441 66.2937C9.70691 67.0597 9.05373 68.877 9.86206 70.6301ZM12.7681 67.7178C13.592 67.5301 14.2959 67.7689 14.6122 68.4549C14.9335 69.1518 14.6252 69.7996 13.9178 70.2114L12.7681 67.7178Z" fill="white"/>
<path d="M14.6907 76.0461C15.7205 75.8731 16.72 75.3382 17.655 74.7728L17.7774 74.697L18.7483 76.1119L15.9332 77.8567L14.6907 76.0461ZM15.1437 79.4602L13.8585 80.2568L14.7276 81.5233L17.461 80.0829L16.9653 79.3606L21.1064 76.7939L18.1323 72.4602L17.6632 72.7511C16.3474 73.5666 14.9229 74.3508 13.6382 74.5125L13.2444 73.9386L10.6333 75.557L11.5024 76.8235L12.8622 76.1358L15.1437 79.4602Z" fill="white"/>
<path d="M26.3338 82.6389L25.0725 81.3212L23.2019 82.9372L21.6501 81.3162L23.5208 79.7002L22.2595 78.3826L17.3921 82.5873L18.6534 83.9049L20.515 82.2968L22.0668 83.9178L20.2052 85.5259L21.4665 86.8435L26.3338 82.6389Z" fill="white"/>
<path d="M25.7818 90.7589C26.7071 91.4651 27.6885 91.6412 28.6462 91.4373L28.4132 90.0986C27.7102 90.1501 27.2332 90.0273 26.7467 89.656C26.098 89.1609 25.9192 88.4818 26.311 87.7405L29.8692 90.456C29.9873 90.335 30.1053 90.2141 30.1984 90.1041C31.3767 88.7119 31.6721 86.8417 29.9645 85.5386C28.4763 84.4029 26.4597 84.7635 25.2736 86.1649C23.9867 87.6855 24.2459 89.5868 25.7818 90.7589ZM27.0284 86.8558C27.6778 86.3111 28.4177 86.1974 29.0187 86.6561C29.6292 87.122 29.6542 87.8345 29.2129 88.5229L27.0284 86.8558Z" fill="white"/>
<path d="M32.8932 95.5209C33.9142 96.0796 34.9087 96.1047 35.8212 95.7569L35.3851 94.4662C34.7001 94.6242 34.211 94.5752 33.6743 94.2814C32.9585 93.8897 32.6776 93.2441 32.9495 92.4501L36.8754 94.5986C36.9732 94.4608 37.0709 94.323 37.1456 94.1999C38.0925 92.6413 38.0953 90.7436 36.2113 89.7126C34.5694 88.814 32.6372 89.4782 31.6841 91.0471C30.6501 92.7494 31.1987 94.5936 32.8932 95.5209ZM33.5203 91.4644C34.0764 90.826 34.7882 90.6007 35.4513 90.9636C36.1249 91.3322 36.2594 92.0343 35.9305 92.7835L33.5203 91.4644Z" fill="white"/>
<path d="M43.8239 93.443L41.8824 99.5749L45.2642 100.537C46.6953 100.945 47.7717 100.565 48.1014 99.5238C48.373 98.6658 48.0562 98.0768 47.3785 97.6345C47.9818 97.5568 48.5624 97.2731 48.7978 96.5294C49.1021 95.5685 48.4637 94.7633 47.2172 94.4086L43.8239 93.443ZM44.7764 96.3953L45.1495 95.2169L46.4076 95.5749C46.9154 95.7194 47.0398 96.0417 46.9457 96.3391C46.8334 96.6938 46.5077 96.8879 46.0114 96.7467L44.7764 96.3953ZM44.0447 98.7062L44.4287 97.4935L45.7675 97.8745C46.3677 98.0453 46.5268 98.3774 46.4217 98.7092C46.3058 99.0753 45.9722 99.2547 45.4297 99.1003L44.0447 98.7062Z" fill="white"/>
<path d="M49.8795 103.744L51.6898 103.965L52.0628 101.231C52.4218 101.794 52.9573 102.306 53.922 102.424C55.4346 102.608 56.987 101.613 57.2773 99.4852C57.5708 97.3334 56.3124 95.9957 54.8236 95.8142C53.8827 95.6995 53.2153 96.0654 52.6935 96.6061L52.8184 95.6907L51.0081 95.47L49.8795 103.744ZM53.6667 100.834C52.8211 100.731 52.2141 99.9437 52.3584 98.8857C52.506 97.8039 53.3043 97.1881 54.1499 97.2912C54.9956 97.3942 55.6145 98.1827 55.4702 99.2408C55.321 100.334 54.5123 100.937 53.6667 100.834Z" fill="white"/>
<path d="M62.7665 102.897C63.9299 102.861 64.7785 102.378 65.3536 101.616L64.2796 100.725C63.7913 101.208 63.3539 101.414 62.7422 101.433C61.9266 101.458 61.3366 101.044 61.1294 100.222L65.6032 100.084C65.6097 99.9152 65.6161 99.747 65.6114 99.603C65.5512 97.78 64.5126 96.1434 62.3656 96.2099C60.4945 96.2679 59.237 97.8196 59.2976 99.6546C59.3634 101.646 60.8354 102.957 62.7665 102.897ZM61.0677 99.0835C61.1844 98.2515 61.6583 97.6965 62.4139 97.6731C63.1816 97.6494 63.6796 98.1862 63.8144 98.9984L61.0677 99.0835Z" fill="white"/>
<path d="M68.5039 102.479L70.2706 102.135L69.4661 98.3921L71.7447 100.6L72.9449 97.6769L73.7569 101.455L75.5707 101.101L74.219 94.8124L72.4052 95.1662L71.2412 98.1437L68.966 95.8371L67.1522 96.1909L68.5039 102.479Z" fill="white"/>
<path d="M81.7046 92.2461L78.5299 93.4127C76.9482 93.994 76.4044 95.1166 76.8891 96.3098C77.2651 97.2354 77.9932 97.6215 78.8793 97.6291L78.2238 100.395L80.2122 99.664L80.7098 97.2768L81.6362 96.9364L82.4153 98.8544L84.1326 98.2234L81.7046 92.2461ZM79.9742 96.1373C79.3529 96.3657 78.86 96.2392 78.6652 95.7597C78.4659 95.269 78.73 94.8643 79.3514 94.636L80.5264 94.2042L81.1379 95.7097L79.9742 96.1373Z" fill="white"/>
<path d="M93.2686 93.38C94.9446 92.2768 95.3044 90.244 94.2144 88.7487C93.1104 87.2341 91.0055 86.8524 89.3395 87.949C87.6635 89.0522 87.3037 91.085 88.3936 92.5803C89.4977 94.0949 91.6026 94.4766 93.2686 93.38ZM92.3615 92.0949C91.5185 92.6498 90.4581 92.3564 89.899 91.5894C89.3257 90.8029 89.3734 89.8089 90.2465 89.2341C91.0896 88.6792 92.1499 88.9726 92.7091 89.7397C93.2823 90.5261 93.2346 91.5202 92.3615 92.0949Z" fill="white"/>
<path d="M97.0658 81.8309L92.8234 85.6261L93.9273 86.7395L95.3564 85.461L98.8037 88.938L100.188 87.6997L96.7405 84.2227L98.1696 82.9442L97.0658 81.8309Z" fill="white"/>
<path d="M102.999 85.0576L104.178 83.6657L102.947 82.7262L102.767 81.5481L105.822 81.7244L107.218 80.0762L102.482 79.8075L101.912 76.4012L100.555 78.0037L101.164 81.3642L99.0659 79.7619L97.8871 81.1537L102.999 85.0576Z" fill="white"/>
<path d="M103.06 74.7439C107.059 76.9327 107.22 77.4304 106.865 78.0149C106.821 78.0867 106.682 78.27 106.634 78.3257L107.866 79.1368C108.043 78.9605 108.316 78.6041 108.44 78.399C109.275 77.0249 109.055 76.0711 105.319 74.0263L106.166 72.6317L110.439 74.9702L111.386 73.4116L105.744 70.3242L103.06 74.7439Z" fill="white"/>
<path d="M108.73 63.3184L108.104 64.9109L110.719 68.4879L107.188 67.2384L106.544 68.8755L112.591 71.0151L113.218 69.4226L110.613 65.8496L114.133 67.0951L114.777 65.4581L108.73 63.3184Z" fill="white"/>
<path d="M115.567 62.9214L115.95 61.138L114.43 60.8455L113.72 59.8658L116.484 58.6507L116.937 56.5388L112.654 58.4268L110.558 55.6165L110.117 57.6697L112.226 60.4214L109.634 59.9224L109.251 61.7058L115.567 62.9214Z" fill="white"/>
<path d="M117.335 53.1599C117.383 52.2732 117.093 51.6465 116.626 51.1796L117.321 51.213L117.417 49.4516L113.689 49.2727C112.826 49.2313 112.107 49.4131 111.602 49.8694C111.121 50.3028 110.819 51.0091 110.764 52.0036C110.705 53.094 110.871 53.7988 111.144 54.5207L112.559 54.132C112.375 53.5346 112.27 53.037 112.308 52.342C112.358 51.4314 112.803 50.9842 113.558 51.0204L113.666 51.0256C113.485 51.4734 113.352 51.9356 113.317 52.5826C113.234 54.1043 113.823 55.2018 115.225 55.2691C116.52 55.3312 117.269 54.3701 117.335 53.1599ZM116.106 52.5483C116.074 53.1354 115.765 53.529 115.273 53.5054C114.674 53.4767 114.388 52.9824 114.431 52.2036C114.455 51.7602 114.573 51.3574 114.734 51.0528L115.057 51.0683C115.717 51.1 116.153 51.6975 116.106 52.5483Z" fill="white"/>
</svg>
