<svg width="521" height="334" viewBox="0 0 521 334" fill="none" xmlns="http://www.w3.org/2000/svg">
<g clip-path="url(#clip0)">
<path opacity="0.1" d="M398.089 334C448.14 334 488.715 324.915 488.715 313.709C488.715 302.502 448.14 293.418 398.089 293.418C348.037 293.418 307.463 302.502 307.463 313.709C307.463 324.915 348.037 334 398.089 334Z" fill="#297CE0"/>
<g opacity="0.1">
<path opacity="0.1" d="M295.016 12.6417C295.016 86.3029 341.24 145.907 398.386 145.907L295.016 12.6417Z" fill="#297CE0"/>
</g>
<path opacity="0.1" d="M296.148 61.3592C262.754 61.614 230.666 54.0686 199.986 45.6596C169.305 37.2506 138.875 27.794 106.155 23.934C85.0937 21.4472 61.125 21.8388 44.5716 31.4842C28.6413 40.7614 23.9259 55.9703 21.5989 70.0041C19.8478 80.5649 18.9934 91.6448 25.1579 101.252C29.4154 107.92 36.7693 113.394 41.9614 119.745C60.0205 141.844 48.8197 170.284 30.9117 193.128C22.5146 203.845 12.6921 214.127 6.31996 225.443C-0.0521796 236.759 -2.7332 249.556 3.58702 260.646C9.85531 271.631 24.1383 279.521 39.5023 284.924C70.7163 295.825 107.099 297.995 142.523 298.684C220.943 300.218 299.566 295.556 377.976 290.898C406.99 289.171 436.137 287.434 464.58 282.805C480.374 280.233 496.639 276.463 507.882 268.361C522.161 258.074 525.196 241.411 514.963 229.511C497.796 209.555 452.185 206.067 439.913 184.431C433.159 172.521 439.172 158.775 447.937 147.19C466.789 122.35 499.079 100.002 499.858 72.3399C500.378 53.3466 483.81 34.9289 458.944 26.8361C432.866 18.3422 397.21 20.8007 378.774 37.0335C359.785 53.7477 325.639 61.1374 296.148 61.3592Z" fill="#297CE0"/>
<path d="M446.946 14.7181V259.348C446.946 266.624 439.923 272.561 431.257 272.561H99.2354C90.5693 272.561 83.5505 266.643 83.5505 259.348V14.7181C83.5505 7.42747 90.5693 0 99.2354 0L431.214 0.806922C439.866 0.806922 446.946 7.42747 446.946 14.7181Z" fill="white"/>
<path d="M446.946 14.7936V26.1188H83.5505V14.7936C83.5505 10.8709 85.1089 7.10882 87.883 4.33462C90.657 1.56042 94.4196 0.0012633 98.3433 1.20399e-05H432.125C434.07 -0.00246833 435.997 0.378316 437.795 1.12059C439.592 1.86287 441.226 2.95209 442.603 4.32599C443.979 5.69988 445.071 7.33152 445.816 9.12762C446.562 10.9237 446.946 12.8491 446.946 14.7936Z" fill="#3F3D56"/>
<path opacity="0.8" d="M101.152 18.2856C104.04 18.2856 106.382 15.9447 106.382 13.0571C106.382 10.1695 104.04 7.82861 101.152 7.82861C98.2634 7.82861 95.9219 10.1695 95.9219 13.0571C95.9219 15.9447 98.2634 18.2856 101.152 18.2856Z" fill="#FA5959"/>
<path opacity="0.8" d="M116.365 18.2856C119.253 18.2856 121.594 15.9447 121.594 13.0571C121.594 10.1695 119.253 7.82861 116.365 7.82861C113.476 7.82861 111.135 10.1695 111.135 13.0571C111.135 15.9447 113.476 18.2856 116.365 18.2856Z" fill="#FED253"/>
<path opacity="0.8" d="M131.578 18.2856C134.466 18.2856 136.808 15.9447 136.808 13.0571C136.808 10.1695 134.466 7.82861 131.578 7.82861C128.689 7.82861 126.348 10.1695 126.348 13.0571C126.348 15.9447 128.689 18.2856 131.578 18.2856Z" fill="#8CCF4D"/>
<path opacity="0.2" d="M244.709 80.5507H219.754C217.52 80.5507 215.708 82.3613 215.708 84.5948V92.1827C215.708 94.4162 217.52 96.2267 219.754 96.2267H244.709C246.943 96.2267 248.754 94.4162 248.754 92.1827V84.5948C248.754 82.3613 246.943 80.5507 244.709 80.5507Z" fill="#297CE0"/>
<path opacity="0.2" d="M311.659 80.5507H286.704C284.469 80.5507 282.658 82.3613 282.658 84.5948V92.1827C282.658 94.4162 284.469 96.2267 286.704 96.2267H311.659C313.893 96.2267 315.704 94.4162 315.704 92.1827V84.5948C315.704 82.3613 313.893 80.5507 311.659 80.5507Z" fill="#297CE0"/>
<path d="M232.139 95.8728L265.218 139.055L299.292 95.6699" stroke="#3F3D56" stroke-miterlimit="10"/>
<path opacity="0.1" d="M286.43 137.672H244.001C241.767 137.672 239.956 139.483 239.956 141.716V157.595C239.956 159.829 241.767 161.639 244.001 161.639H286.43C288.664 161.639 290.475 159.829 290.475 157.595V141.716C290.475 139.483 288.664 137.672 286.43 137.672Z" fill="black"/>
<path d="M285.406 138.163H245.03C242.796 138.163 240.985 139.974 240.985 142.207V157.114C240.985 159.348 242.796 161.158 245.03 161.158H285.406C287.64 161.158 289.451 159.348 289.451 157.114V142.207C289.451 139.974 287.64 138.163 285.406 138.163Z" fill="#297CE0"/>
<path d="M232.367 80.5508L231.937 65.2853" stroke="#3F3D56" stroke-miterlimit="10"/>
<path d="M318.711 66.0308L299.292 80.5507L278.868 66.0308" stroke="#3F3D56" stroke-miterlimit="10"/>
<path opacity="0.2" d="M244.525 50.3501H219.57C217.335 50.3501 215.524 52.1607 215.524 54.3941V61.9821C215.524 64.2155 217.335 66.0261 219.57 66.0261H244.525C246.759 66.0261 248.57 64.2155 248.57 61.9821V54.3941C248.57 52.1607 246.759 50.3501 244.525 50.3501Z" fill="#297CE0"/>
<path opacity="0.2" d="M331.186 50.3501H306.231C303.997 50.3501 302.186 52.1607 302.186 54.3941V61.9821C302.186 64.2155 303.997 66.0261 306.231 66.0261H331.186C333.42 66.0261 335.231 64.2155 335.231 61.9821V54.3941C335.231 52.1607 333.42 50.3501 331.186 50.3501Z" fill="#297CE0"/>
<path opacity="0.2" d="M291.348 50.3501H266.393C264.159 50.3501 262.348 52.1607 262.348 54.3941V61.9821C262.348 64.2155 264.159 66.0261 266.393 66.0261H291.348C293.582 66.0261 295.393 64.2155 295.393 61.9821V54.3941C295.393 52.1607 293.582 50.3501 291.348 50.3501Z" fill="#297CE0"/>
<path d="M265.218 161.153L265.09 202.915" stroke="#3F3D56" stroke-miterlimit="10"/>
<path d="M218.267 232.691L264.996 218.237L311.914 232.587" stroke="#3F3D56" stroke-miterlimit="10"/>
<path opacity="0.2" d="M277.57 202.915H252.615C250.381 202.915 248.57 204.726 248.57 206.959V214.547C248.57 216.781 250.381 218.591 252.615 218.591H277.57C279.804 218.591 281.615 216.781 281.615 214.547V206.959C281.615 204.726 279.804 202.915 277.57 202.915Z" fill="#297CE0"/>
<path opacity="0.2" d="M408.473 137.823V112.875C408.473 110.641 406.662 108.831 404.428 108.831H396.838C394.604 108.831 392.793 110.641 392.793 112.875V137.823C392.793 140.057 394.604 141.867 396.838 141.867H404.428C406.662 141.867 408.473 140.057 408.473 137.823Z" fill="#297CE0"/>
<path opacity="0.2" d="M392.792 164.607V189.556C392.792 191.79 394.604 193.6 396.838 193.6H404.428C406.662 193.6 408.473 191.79 408.473 189.556V164.607C408.473 162.374 406.662 160.563 404.428 160.563H396.838C394.604 160.563 392.792 162.374 392.792 164.607Z" fill="#297CE0"/>
<path opacity="0.2" d="M324.394 232.479H299.438C297.204 232.479 295.393 234.289 295.393 236.523V244.111C295.393 246.344 297.204 248.155 299.438 248.155H324.394C326.628 248.155 328.439 246.344 328.439 244.111V236.523C328.439 234.289 326.628 232.479 324.394 232.479Z" fill="#297CE0"/>
<path opacity="0.2" d="M205.792 248.159H230.747C232.981 248.159 234.792 246.349 234.792 244.115V236.527C234.792 234.294 232.981 232.483 230.747 232.483H205.792C203.558 232.483 201.747 234.294 201.747 236.527V244.115C201.747 246.349 203.558 248.159 205.792 248.159Z" fill="#297CE0"/>
<path opacity="0.2" d="M253.436 248.159H278.391C280.625 248.159 282.437 246.349 282.437 244.115V236.527C282.437 234.294 280.625 232.483 278.391 232.483H253.436C251.202 232.483 249.391 234.294 249.391 236.527V244.115C249.391 246.349 251.202 248.159 253.436 248.159Z" fill="#297CE0"/>
<path d="M378.08 151.215L392.788 176.928" stroke="#3F3D56" stroke-miterlimit="10"/>
<path d="M346.979 150.899H362.419" stroke="#3F3D56" stroke-miterlimit="10"/>
<path d="M289.451 149.658L331.592 150.899" stroke="#3F3D56" stroke-miterlimit="10"/>
<path d="M392.788 125.347L378.151 151.102" stroke="#3F3D56" stroke-miterlimit="10"/>
<path opacity="0.2" d="M347.272 163.277V138.328C347.272 136.095 345.461 134.284 343.227 134.284H335.637C333.403 134.284 331.592 136.095 331.592 138.328V163.277C331.592 165.51 333.403 167.321 335.637 167.321H343.227C345.461 167.321 347.272 165.51 347.272 163.277Z" fill="#297CE0"/>
<path opacity="0.2" d="M378.08 163.687V138.739C378.08 136.505 376.269 134.695 374.035 134.695H366.445C364.211 134.695 362.4 136.505 362.4 138.739V163.687C362.4 165.921 364.211 167.731 366.445 167.731H374.035C376.269 167.731 378.08 165.921 378.08 163.687Z" fill="#297CE0"/>
<path opacity="0.2" d="M137.643 137.819V112.87C137.643 110.637 135.832 108.826 133.597 108.826H126.008C123.773 108.826 121.962 110.637 121.962 112.87V137.819C121.962 140.052 123.773 141.863 126.008 141.863H133.597C135.832 141.863 137.643 140.052 137.643 137.819Z" fill="#297CE0"/>
<path opacity="0.2" d="M121.963 164.608V189.556C121.963 191.79 123.774 193.6 126.008 193.6H133.598C135.832 193.6 137.643 191.79 137.643 189.556V164.608C137.643 162.374 135.832 160.563 133.598 160.563H126.008C123.774 160.563 121.963 162.374 121.963 164.608Z" fill="#297CE0"/>
<path d="M152.355 151.215L137.643 176.928" stroke="#3F3D56" stroke-miterlimit="10"/>
<path d="M183.451 150.899H168.017" stroke="#3F3D56" stroke-miterlimit="10"/>
<path d="M240.985 149.658L198.844 150.899" stroke="#3F3D56" stroke-miterlimit="10"/>
<path d="M137.643 125.347L152.28 151.102" stroke="#3F3D56" stroke-miterlimit="10"/>
<path opacity="0.2" d="M198.844 163.282V138.333C198.844 136.1 197.033 134.289 194.799 134.289H187.209C184.975 134.289 183.164 136.1 183.164 138.333V163.282C183.164 165.515 184.975 167.326 187.209 167.326H194.799C197.033 167.326 198.844 165.515 198.844 163.282Z" fill="#297CE0"/>
<path opacity="0.2" d="M168.036 163.687V138.739C168.036 136.505 166.225 134.695 163.991 134.695H156.401C154.167 134.695 152.355 136.505 152.355 138.739V163.687C152.355 165.921 154.167 167.731 156.401 167.731H163.991C166.225 167.731 168.036 165.921 168.036 163.687Z" fill="#297CE0"/>
<path d="M50.9866 236.839C50.9866 260.546 65.8643 279.733 84.2491 279.733L50.9866 236.839Z" fill="#46455B"/>
<path d="M84.249 279.729C84.249 255.752 100.854 236.353 121.373 236.353L84.249 279.729Z" fill="#297CE0"/>
<path d="M63.0417 238.986C63.0417 261.504 72.5292 279.729 84.2492 279.729L63.0417 238.986Z" fill="#297CE0"/>
<path d="M84.249 279.729C84.249 249.094 103.441 224.306 127.155 224.306L84.249 279.729Z" fill="#46455B"/>
<path opacity="0.1" d="M82.8048 287.92C87.3719 287.92 91.0744 287.295 91.0744 286.524C91.0744 285.752 87.3719 285.127 82.8048 285.127C78.2376 285.127 74.5352 285.752 74.5352 286.524C74.5352 287.295 78.2376 287.92 82.8048 287.92Z" fill="#297CE0"/>
<path d="M77.2539 280.031C77.2539 280.031 81.974 279.884 83.39 278.874C84.8061 277.865 90.6448 276.652 90.9988 278.275C91.3528 279.898 98.079 286.349 92.7594 286.392C87.4399 286.434 80.3833 285.561 78.9673 284.698C77.5513 283.834 77.2539 280.031 77.2539 280.031Z" fill="#A8A8A8"/>
<path opacity="0.2" d="M92.8586 285.825C87.5343 285.868 80.4872 285 79.0664 284.131C77.9855 283.475 77.556 281.116 77.4097 280.026H77.2539C77.2539 280.026 77.5513 283.829 78.972 284.693C80.3928 285.556 87.4399 286.429 92.7642 286.387C94.3029 286.387 94.8316 285.825 94.8032 285.018C94.5908 285.514 94.0055 285.816 92.8586 285.825Z" fill="black"/>
<path d="M451.346 306.154L438.285 287.222C438.285 287.222 438.04 282.536 437.185 281.437C436.331 280.337 437.001 277.907 437.001 277.907C437.001 277.907 437.917 276.567 437.124 276.449C436.331 276.331 437.001 273.344 437.001 273.344L436.94 268.592C436.94 268.592 437.671 264.029 437.063 262.929C436.885 262.633 436.796 262.292 436.807 261.946C436.818 261.6 436.928 261.265 437.124 260.981C437.124 260.981 437.855 258.362 437.124 257.677C436.392 256.993 436.572 252.93 436.756 249.707C436.94 246.484 435.477 244.653 435.477 244.167C435.477 243.681 430.653 238.929 430.653 238.505C430.653 238.08 427.603 236.315 425.772 235.824C423.941 235.334 423.025 234.975 423.086 234.73C423.148 234.484 420.216 233.512 420.216 233.512C420.216 233.512 417.653 233.333 416.676 232.054C415.699 230.775 412.711 230.402 412.631 230.393C412.631 230.308 412.589 230.223 412.575 230.138L412.518 229.864C412.749 229.478 412.962 229.081 413.155 228.671L413.325 228.298C414.399 228.301 415.448 227.972 416.327 227.354C416.758 226.993 417.11 226.548 417.362 226.045C417.614 225.543 417.759 224.994 417.79 224.433C417.841 223.309 417.595 222.191 417.078 221.191C416.539 220.092 415.756 218.959 416.025 217.77C416.143 217.256 416.45 216.826 416.61 216.303C416.846 215.321 416.689 214.286 416.171 213.419C415.699 212.537 415.067 211.758 414.552 210.899C413.895 209.809 413.458 208.6 413.264 207.341C413.224 206.672 413.064 206.015 412.792 205.402C412.516 204.97 412.15 204.601 411.72 204.321C409.811 202.957 407.505 202.259 405.159 202.335C403.498 202.391 401.855 202.84 400.194 202.637C399.207 202.463 398.236 202.209 397.291 201.877C395.247 201.273 392.882 201.023 391.103 202.193C389.323 203.363 388.611 205.666 387.402 207.469C386.331 209.064 384.768 210.399 383.957 212.089C383.957 212.056 383.957 212.023 383.98 211.99C383.777 212.381 383.618 212.794 383.508 213.221C383.197 214.547 383.456 215.934 383.777 217.256C383.947 217.94 384.174 218.671 384.764 219.058C385.354 219.445 386.18 219.356 386.897 219.478C386.869 219.596 386.841 219.71 386.817 219.828C386.085 223.258 386.675 226.837 388.469 229.851C390.263 232.865 393.129 235.091 396.493 236.084C396.493 236.207 396.493 236.334 396.493 236.452C396.493 236.815 396.465 237.165 396.427 237.5C396.427 237.5 390.291 236.24 388.644 237.089C386.996 237.938 383.758 238.613 383.272 239.099C382.786 239.585 381.564 239.222 380.464 242.082C379.364 244.941 379.246 247.867 377.839 249.202C376.433 250.538 375.706 251.458 375.645 252.43C375.583 253.402 375.824 253.647 375.276 253.954C374.729 254.261 373.936 255.535 374.177 256.021C374.177 256.021 374.483 257.239 373.506 257.847C373.217 258.051 372.987 258.327 372.837 258.647C372.687 258.967 372.623 259.321 372.652 259.673C372.652 259.673 372.284 261.014 371.429 261.316C370.575 261.618 370.013 263.633 370.013 263.633L367.247 266.813L361.758 260.745C361.347 260.291 360.773 260.019 360.161 259.988C359.55 259.957 358.951 260.17 358.496 260.579L355.848 263.033C354.809 263.284 353.869 263.844 353.153 264.638C352.561 265.24 352.082 265.943 351.737 266.714L350.265 268.045C350.034 268.249 349.848 268.499 349.717 268.778C349.586 269.057 349.514 269.36 349.505 269.668C349.313 270.077 349.248 270.534 349.316 270.981C349.384 271.428 349.582 271.844 349.887 272.178L353.399 276.067V276.1C352.151 276.203 350.965 276.686 350 277.482C344.751 282.107 344.69 286.368 345.483 288.336C346.276 290.303 352.927 297.773 352.927 297.773C352.927 297.773 356.792 302.799 362.367 305.47L362.329 305.512C362.216 305.63 362.107 305.758 361.999 305.895L361.909 306.013L361.824 306.131L361.725 306.277L361.649 306.395L361.541 306.569C361.522 306.61 361.5 306.65 361.475 306.687C361.432 306.763 361.39 306.843 361.352 306.923L361.31 307.003C361.258 307.107 361.21 307.221 361.159 307.334C361.107 307.447 361.126 307.419 361.111 307.457C361.097 307.494 361.045 307.617 361.017 307.702L360.96 307.858C360.932 307.933 360.908 308.013 360.88 308.094C360.852 308.174 360.847 308.207 360.828 308.268L360.757 308.532L360.715 308.698C360.677 308.839 360.649 308.985 360.616 309.136L360.587 309.311C360.587 309.41 360.55 309.514 360.535 309.622C360.521 309.731 360.512 309.769 360.502 309.844C360.493 309.92 360.502 310.042 360.465 310.146C360.427 310.25 360.465 310.302 360.441 310.377C360.417 310.453 360.441 310.609 360.441 310.727C360.441 310.845 360.441 310.864 360.441 310.939C360.441 311.128 360.441 311.326 360.417 311.529C360.295 318.65 360.71 319.683 360.71 319.683C360.71 319.683 361.574 321.953 363.953 322.113C364.302 322.138 364.652 322.119 364.996 322.057C368.168 321.509 375.616 320.23 378.241 320.721C379.817 321.014 382.739 320.58 384.816 320.188L385.368 320.079L385.746 321.292L386.954 320.962L387.978 321.552L388.625 321.924C389.828 326.006 394.718 324.614 394.718 324.614L395.88 325.284L407.68 325.586C409.002 326.389 410.4 327.06 411.852 327.592C412.046 327.648 412.243 327.691 412.442 327.719C413.534 327.806 414.629 327.826 415.723 327.781C416.629 327.781 417.328 327.719 417.328 327.719C417.328 327.719 417.205 324.525 417.035 320.943C421.533 320.754 425.531 320.471 427.943 320.051C434.202 318.947 436.822 313.209 437.789 310.151C438.078 311.394 438.283 312.655 438.403 313.926C438.66 315.046 438.986 316.15 439.38 317.229C439.725 318.094 440.177 318.912 440.725 319.664C445.365 318.083 442.557 315.71 441.58 314.676C440.603 313.643 442.25 312.789 442.25 312.789C442.25 312.789 443.534 311.935 443.411 311.142C443.288 310.349 443.227 309.5 447.376 309.561C451.525 309.622 451.346 306.154 451.346 306.154ZM386.897 267.285C386.949 267.634 387.53 271.381 388.054 272.367C388.199 273.025 388.245 273.701 388.191 274.373C385.731 274.179 383.168 274.071 383.168 274.071C383.243 274.161 383.289 274.271 383.301 274.387L382.914 274.297C382.734 274.255 382.545 274.212 382.352 274.16L386.883 267.276L386.897 267.285ZM377.929 281.559L382.177 282.234L382.536 282.291C382.415 282.955 382.34 283.627 382.314 284.301C382.314 284.362 382.408 284.438 382.545 284.528C382.488 284.86 382.461 285.196 382.465 285.533C382.531 285.872 384.523 286.599 386.808 287.203C386.775 287.326 386.742 287.439 386.713 287.552C384.698 286.491 381.521 285.995 381.153 285.193C380.785 284.391 370.009 280.649 370.009 280.649C370.009 280.649 369.612 280.436 368.933 280.111L371.765 280.649L372.548 280.569C374.315 281.014 376.11 281.345 377.92 281.559H377.929Z" fill="url(#paint0_linear)"/>
<path d="M437.454 308.801C437.454 308.801 435.76 319.018 427.169 320.532C418.578 322.047 389.908 321.74 389.908 321.74C389.908 321.74 373.516 319.381 367.587 305.536C361.659 291.691 357.85 286.189 362.928 285.939C368.007 285.689 395.412 295.192 396.984 295.315C398.556 295.438 438.964 274.269 437.454 308.801Z" fill="#65617D"/>
<path opacity="0.05" d="M437.454 308.801C437.454 308.801 435.76 319.018 427.169 320.532C418.578 322.047 389.908 321.74 389.908 321.74C389.908 321.74 373.516 319.381 367.587 305.536C361.659 291.691 357.85 286.189 362.928 285.939C368.007 285.689 395.412 295.192 396.984 295.315C398.556 295.438 438.964 274.269 437.454 308.801Z" fill="black"/>
<path d="M360.568 320.169C360.568 320.169 361.423 322.42 363.778 322.585C364.124 322.61 364.471 322.591 364.812 322.529C367.96 321.981 375.338 320.712 377.938 321.198C379.505 321.486 382.399 321.056 384.462 320.669C385.83 320.41 386.822 320.169 386.822 320.169C386.822 320.169 384.405 312.147 384.098 311.883C383.791 311.619 373.214 305.276 373.214 305.276L364.817 304.691C363.693 304.864 362.679 305.463 361.984 306.362C361.102 307.433 360.342 309.193 360.29 312.072C360.144 319.14 360.568 320.169 360.568 320.169Z" fill="#3F3D56"/>
<path opacity="0.05" d="M360.569 320.169C360.569 320.169 361.423 322.42 363.778 322.585C362.957 321.529 362.198 320.426 361.503 319.282L361.546 313.416C361.376 311.808 361.587 310.182 362.161 308.67C362.735 307.158 363.656 305.801 364.85 304.71H364.817C364.817 304.71 360.403 305.012 360.281 312.09C360.158 319.169 360.569 320.169 360.569 320.169Z" fill="black"/>
<path opacity="0.1" d="M396.913 307.348L404.715 301.242L416.988 289.147C416.988 289.147 415.661 289.081 413.66 288.996C413.188 289.313 411.772 290.308 411.715 291.521C411.659 293.003 408.411 291.625 406.703 292.465C404.994 293.305 396.743 303.922 395.289 303.847C393.836 303.771 392.689 303.11 392.084 304.139L392.042 304.205L396.913 307.348Z" fill="black"/>
<path opacity="0.1" d="M361.984 306.357C362.263 306.489 362.546 306.621 362.829 306.744C368.758 309.283 376.079 314.606 376.621 315.573C376.957 316.163 381.2 318.739 384.476 320.669C385.845 320.41 386.836 320.169 386.836 320.169C386.836 320.169 384.419 312.147 384.112 311.883C383.805 311.619 373.228 305.276 373.228 305.276L364.816 304.691C363.694 304.863 362.68 305.46 361.984 306.357Z" fill="black"/>
<path d="M345.507 289.025C346.295 290.959 352.889 298.396 352.889 298.396C352.889 298.396 357.061 303.842 362.99 306.381C368.918 308.919 376.234 314.242 376.782 315.21C377.131 315.832 381.856 318.678 385.184 320.632L385.93 321.066L387.582 322.009L388.455 322.514C388.455 322.514 390.48 320.886 392.5 319.249C394.52 317.611 396.47 316.012 396.503 315.946C396.559 315.766 397.348 313.709 397.163 313.586C397.069 313.525 396.654 312.685 395.894 311.699C395.081 310.619 394.025 309.746 392.811 309.151C390.027 307.881 388.818 304.989 388.818 304.989C388.818 304.989 388.554 304.8 388.153 304.545C387.328 303.975 386.405 303.564 385.429 303.332C384.098 303.167 381.62 300.444 381.62 300.444C381.62 300.444 379.926 299.354 379.26 297.967C378.595 296.58 369.244 290.2 368.376 289.6L391.117 304.205L396.559 307.702L404.366 301.596L416.639 289.501C416.639 289.501 414.987 289.421 412.589 289.317C406.618 289.058 396.021 288.652 394.681 288.954C393.599 289.207 392.482 289.28 391.377 289.171C391.377 289.171 388.356 289.308 386.359 288.256C384.363 287.203 381.214 286.708 380.851 285.929C380.487 285.151 369.782 281.394 369.782 281.394C369.782 281.394 355.206 273.655 350 278.252C344.794 282.848 344.723 287.09 345.507 289.025Z" fill="#65617D"/>
<path d="M392.509 244.639L394.397 250.863L396.819 264.897L405.707 265.501L408.284 261.254L410.852 257.007C410.852 257.007 412.452 251.345 413.603 245.852C414.618 241.001 415.284 236.292 414.179 235.782C413.197 235.31 412.551 233.691 412.131 231.936C412.079 231.719 412.027 231.497 411.984 231.28C411.69 229.791 411.493 228.284 411.394 226.769C411.394 226.769 392.764 225.802 395.346 233.484C395.812 234.794 396.05 236.175 396.049 237.566C396.045 237.913 396.023 238.259 395.983 238.604C395.851 239.795 395.474 240.945 394.876 241.984C394.278 243.022 393.473 243.926 392.509 244.639Z" fill="#EE8E9E"/>
<path d="M388.634 243.61L389.305 254.19L390.815 263.203L392.509 267.375L394.02 290.204C394.02 290.204 408.605 291.889 412.155 290.176C412.409 290.067 412.631 289.893 412.796 289.671C417.078 283.206 415.676 264.473 415.676 264.473L417.309 252.378L416.219 246.102L413.589 245.819L411.564 245.607C411.564 245.607 411.092 246.168 410.446 247.022C408.652 249.382 405.353 254.044 405.575 255.988C405.877 258.649 405.211 261.368 404.159 261.792C403.106 262.217 402.271 262.944 402.105 262.217C401.94 261.49 401.742 261.311 401.921 260.282C402.101 259.253 401.133 256.106 401.133 256.106C401.133 256.106 399.5 252.421 399.623 250.844C399.745 249.268 399.443 247.461 398.957 247.036C398.471 246.612 397.81 246.192 398.353 244.257C398.896 242.322 395.969 238.571 395.969 238.571L388.634 243.61Z" fill="#E3E8F4"/>
<path opacity="0.1" d="M407.902 270.041L408.511 288.123L412.003 290.058C412.257 289.949 412.478 289.777 412.645 289.558C416.927 283.088 415.525 264.355 415.525 264.355L417.158 252.26L416.067 245.984L413.438 245.701C414.453 240.85 415.119 236.141 414.014 235.631C413.032 235.159 412.386 233.54 411.966 231.785L410.078 244.578C410.078 244.578 410.233 245.734 410.29 246.937C410.367 247.691 410.316 248.452 410.139 249.188C409.714 250.278 410.016 252.213 410.016 252.213C408.926 254.134 408.378 257.692 408.128 261.127C407.77 265.685 407.902 270.041 407.902 270.041Z" fill="black"/>
<path d="M412.017 231.497C412.017 231.497 415.067 231.875 416.034 233.149C417.002 234.423 419.541 234.597 419.541 234.597C419.541 234.597 422.444 235.541 422.373 235.806C422.302 236.07 423.218 236.414 425.031 236.896C426.843 237.377 429.874 239.132 429.874 239.557C429.874 239.982 434.674 244.696 434.674 245.182C434.674 245.668 436.128 247.48 435.944 250.684C435.759 253.888 435.58 257.942 436.307 258.607C437.034 259.272 436.307 261.872 436.307 261.872C436.112 262.155 436.002 262.488 435.991 262.831C435.98 263.174 436.069 263.513 436.246 263.807C436.85 264.897 436.128 269.432 436.128 269.432L436.184 274.151C436.184 274.151 435.519 277.114 436.307 277.237C437.095 277.36 436.184 278.69 436.184 278.69C436.184 278.69 435.519 281.106 436.368 282.196C437.218 283.287 437.459 287.939 437.459 287.939L450.401 306.749C450.401 306.749 450.585 310.193 446.469 310.137C442.353 310.08 442.415 310.92 442.538 311.708C442.66 312.496 441.391 313.341 441.391 313.341C441.391 313.341 439.757 314.186 440.725 315.228C441.693 316.271 444.473 318.617 439.875 320.188C439.334 319.439 438.887 318.626 438.544 317.767C438.154 316.7 437.831 315.609 437.577 314.502C437.577 314.502 437.152 309.906 436.307 309.311C435.462 308.716 435.58 305.805 435.58 305.805C435.58 305.805 436.793 303.445 435.108 302.478C433.423 301.511 408.855 287.902 408.855 287.902L408.241 269.795C408.241 269.795 407.816 256.432 410.356 251.953C410.356 251.953 410.054 250.019 410.479 248.929C410.903 247.839 410.417 244.332 410.417 244.332L412.017 231.497Z" fill="#3F3D56"/>
<path opacity="0.1" d="M396.172 238.755C396.172 238.755 390.088 237.5 388.455 238.349C386.822 239.198 383.617 239.859 383.131 240.345C382.644 240.831 381.441 240.463 380.351 243.308C379.26 246.154 379.142 249.051 377.75 250.387C376.357 251.722 375.63 252.623 375.569 253.591C375.508 254.558 375.753 254.799 375.21 255.106C374.668 255.412 373.879 256.677 374.12 257.158C374.361 257.64 386.699 268.285 386.699 268.285C386.699 268.285 387.308 272.339 387.851 273.368C388.394 274.396 387.247 288.543 386.038 289.515C384.83 290.487 394.204 290.393 394.204 290.393C394.204 290.393 394.624 281.106 394.988 280.625C395.351 280.144 394.747 270.244 394.747 270.244C394.747 270.244 394.685 261.778 395.474 259.541C396.262 257.305 396.172 249.868 396.172 249.868C396.172 249.868 396.866 245.404 397.711 244.361C398.556 243.318 396.172 238.755 396.172 238.755Z" fill="black"/>
<path d="M395.969 238.571C395.969 238.571 389.89 237.32 388.256 238.165C386.623 239.01 383.432 239.67 382.951 240.142C382.47 240.614 381.257 240.265 380.166 243.106C379.076 245.946 378.958 248.853 377.565 250.184C376.173 251.515 375.451 252.421 375.389 253.388C375.328 254.355 375.569 254.596 375.026 254.898C374.483 255.2 373.695 256.469 373.936 256.955C374.176 257.441 386.529 268.101 386.529 268.101C386.529 268.101 387.133 272.15 387.681 273.179C388.228 274.207 387.072 288.359 385.863 289.327C384.655 290.294 394.029 290.204 394.029 290.204C394.029 290.204 394.454 280.922 394.817 280.436C395.181 279.95 394.572 270.055 394.572 270.055C394.572 270.055 394.515 261.589 395.299 259.353C396.082 257.116 395.969 249.655 395.969 249.655C395.969 249.655 396.663 245.191 397.508 244.153C398.353 243.115 395.969 238.571 395.969 238.571Z" fill="#3F3D56"/>
<path opacity="0.1" d="M395.351 233.451C395.817 234.761 396.054 236.142 396.054 237.533C399.028 238.417 402.213 238.279 405.099 237.139C407.984 236 410.404 233.925 411.97 231.247C411.676 229.758 411.479 228.251 411.38 226.736C411.38 226.736 392.75 225.769 395.351 233.451Z" fill="black"/>
<path d="M386.156 223.895C386.157 227.443 387.519 230.855 389.962 233.428C392.405 236.001 395.743 237.539 399.287 237.724C402.831 237.909 406.31 236.728 409.008 234.423C411.707 232.119 413.417 228.867 413.787 225.338C414.158 221.81 413.159 218.274 410.999 215.46C408.838 212.646 405.679 210.768 402.174 210.213C398.669 209.659 395.085 210.471 392.16 212.481C389.236 214.491 387.195 217.546 386.458 221.017C386.257 221.963 386.156 222.928 386.156 223.895Z" fill="#EE8E9E"/>
<path d="M377.264 255.946L373.959 256.974C373.959 256.974 374.266 258.182 373.294 258.786C373.008 258.99 372.779 259.264 372.631 259.583C372.483 259.901 372.42 260.253 372.449 260.603C372.449 260.603 372.086 261.934 371.241 262.236C370.396 262.538 369.848 264.534 369.848 264.534L367.063 267.738C367.063 267.738 366.039 268.583 366.219 269.007C366.398 269.432 365.128 269.55 365.128 269.55L365.761 280.318L371.51 281.404L375.078 281.04L377.981 279.955L380.52 278.44L381.672 275.477L386.751 267.738L377.264 255.946Z" fill="#3F3D56"/>
<path d="M365.954 270.399C365.954 270.399 358.572 259.754 353.068 265.501C347.565 271.249 355.306 280.559 357.123 280.257C358.94 279.955 367.587 279.469 367.587 279.469L365.954 270.399Z" fill="#EE8E9E"/>
<path d="M383.583 265.938L350.476 249.044C350.118 248.862 349.68 249.004 349.498 249.361L336.524 274.773C336.342 275.13 336.484 275.568 336.841 275.75L369.949 292.644C370.307 292.827 370.744 292.685 370.927 292.327L383.9 266.916C384.083 266.558 383.941 266.121 383.583 265.938Z" fill="#3F3D56"/>
<path d="M380.28 267.288L351.364 252.533L340.242 274.317L369.158 289.072L380.28 267.288Z" fill="#297CE0"/>
<path d="M344.709 263.373C345.003 263.373 345.242 263.134 345.242 262.84C345.242 262.545 345.003 262.307 344.709 262.307C344.414 262.307 344.176 262.545 344.176 262.84C344.176 263.134 344.414 263.373 344.709 263.373Z" fill="#E6E8EC"/>
<path d="M376.008 279.747C376.493 279.747 376.886 279.354 376.886 278.87C376.886 278.385 376.493 277.992 376.008 277.992C375.523 277.992 375.13 278.385 375.13 278.87C375.13 279.354 375.523 279.747 376.008 279.747Z" fill="#E6E8EC"/>
<path d="M361.173 272.636C361.116 280.62 377.627 282.31 377.627 282.31L381.847 282.98L383.735 283.282L384.523 275.477C384.523 275.477 383.659 275.349 382.578 275.099C380.978 274.727 378.906 274.08 378.472 273.179C377.75 271.669 361.234 264.652 361.173 272.636Z" fill="#EE8E9E"/>
<path opacity="0.1" d="M386.458 221.017C386.842 221.048 387.202 221.215 387.473 221.489C387.945 221.984 387.945 222.862 388.573 223.164C388.799 223.265 389.051 223.295 389.295 223.249C390.905 223.022 391.834 221.205 393.378 220.705C394.28 220.474 395.234 220.557 396.083 220.941C396.428 221.046 396.738 221.243 396.979 221.512C397.499 222.182 397.135 223.168 397.376 223.975C397.706 225.098 399.047 225.547 400.208 225.693C401.369 225.839 402.677 225.92 403.455 226.797C403.713 227.127 403.897 227.508 403.997 227.915C404.096 228.322 404.108 228.745 404.031 229.157C403.963 229.44 403.963 229.736 404.031 230.02C404.352 230.931 405.919 230.794 406.33 230.077C406.632 229.558 406.542 229.133 407.246 228.982C407.753 228.939 408.264 229.027 408.728 229.237C409.959 229.659 411.255 229.857 412.556 229.822C413.387 228.054 413.836 226.131 413.871 224.178C413.907 222.225 413.529 220.286 412.762 218.49C411.995 216.693 410.856 215.079 409.421 213.754C407.986 212.428 406.286 211.421 404.434 210.798C402.582 210.176 400.62 209.952 398.675 210.142C396.73 210.332 394.848 210.93 393.151 211.899C391.454 212.868 389.981 214.184 388.83 215.762C387.678 217.34 386.873 219.143 386.468 221.054L386.458 221.017Z" fill="black"/>
<path d="M404.022 229.624C403.954 229.338 403.954 229.041 404.022 228.756C404.098 228.344 404.086 227.921 403.987 227.514C403.888 227.107 403.703 226.726 403.446 226.396C402.667 225.518 401.36 225.452 400.199 225.292C399.037 225.131 397.697 224.697 397.366 223.574C397.126 222.767 397.489 221.781 396.97 221.116C396.73 220.844 396.42 220.645 396.073 220.54C395.225 220.156 394.271 220.073 393.369 220.304C391.825 220.804 390.895 222.621 389.286 222.848C389.042 222.893 388.79 222.864 388.563 222.763C387.955 222.461 387.931 221.583 387.464 221.087C386.727 220.309 385.335 220.814 384.433 220.233C383.848 219.856 383.622 219.12 383.456 218.445C383.14 217.128 382.88 215.75 383.192 214.434C383.716 212.183 385.727 210.659 387.011 208.719C388.209 206.931 388.899 204.666 390.678 203.477C392.458 202.288 394.785 202.561 396.814 203.165C397.75 203.495 398.711 203.746 399.689 203.916C401.322 204.118 402.965 203.675 404.612 203.618C406.936 203.545 409.22 204.238 411.111 205.591C411.538 205.87 411.899 206.237 412.173 206.667C412.448 207.274 412.608 207.927 412.645 208.592C412.84 209.843 413.274 211.045 413.925 212.131C414.43 212.98 415.072 213.75 415.529 214.632C416.041 215.494 416.196 216.521 415.964 217.496C415.808 217.992 415.492 218.44 415.383 218.954C415.114 220.134 415.893 221.262 416.426 222.352C416.94 223.346 417.184 224.457 417.134 225.575C417.104 226.132 416.959 226.676 416.709 227.175C416.459 227.673 416.109 228.115 415.68 228.472C414.785 229.102 413.712 229.432 412.617 229.416C411.29 229.457 409.967 229.254 408.714 228.817C408.249 228.607 407.739 228.519 407.231 228.562C406.528 228.704 406.618 229.138 406.316 229.657C405.91 230.393 404.343 230.53 404.022 229.624Z" fill="#3F3D56"/>
<path opacity="0.1" d="M396.559 307.711L404.366 301.605L416.639 289.511C416.639 289.511 414.987 289.43 412.589 289.327C412.113 289.756 411.807 290.342 411.73 290.978C411.673 292.455 408.426 291.082 406.717 291.922C405.008 292.762 396.743 303.375 395.29 303.309C393.836 303.243 392.689 302.572 392.085 303.601L392.042 303.667C391.794 303.946 391.463 304.138 391.098 304.215L396.559 307.711Z" fill="black"/>
<path d="M380.832 307.287L384.754 319.801L385.368 321.764L387.256 321.254L391.372 320.122L409.705 315.087C412.009 314.987 414.264 314.387 416.313 313.327C419.781 311.388 423.747 310.524 427.707 310.845C430.129 311.071 432.824 310.028 435.061 305.895C435.061 305.895 440.14 290.898 427.316 286.604C414.491 282.31 413.882 288.888 413.882 288.888L413.708 288.996C413.236 289.313 411.82 290.308 411.763 291.521C411.706 293.003 408.459 291.625 406.75 292.465C405.041 293.305 396.743 303.922 395.29 303.847C393.836 303.771 392.689 303.11 392.085 304.139L392.042 304.205C391.594 304.823 390.244 304.965 389.357 304.993C388.885 304.993 388.516 304.993 388.516 304.993L388.403 305.026L387.459 305.305L380.832 307.287Z" fill="#65617D"/>
<path opacity="0.1" d="M381.846 282.98L383.734 283.282L384.523 275.477C384.523 275.477 383.659 275.349 382.578 275.099C382.861 276.185 382.215 280.394 381.846 282.98Z" fill="black"/>
<path opacity="0.1" d="M431.308 246.527C431.308 246.527 436.935 244.894 435.557 260.863C434.178 276.831 423.756 286.925 423.756 286.925C423.756 286.925 411.781 292.186 406.396 291.342C403.311 290.844 400.203 290.5 397.083 290.313C395.388 289.456 393.533 288.961 391.636 288.86C388.615 288.742 382.262 286.863 382.139 286.259C382.016 285.655 383.716 276.765 382.989 276.1C382.989 276.1 391.457 276.449 392.302 277.044C393.146 277.638 394.36 277.218 395.266 277.044C396.172 276.869 398.957 274.453 404.461 276.572C404.461 276.572 406.349 276.751 407.061 276.27C407.774 275.788 408.949 276.147 408.949 276.147C409.417 275.986 409.86 275.762 410.266 275.482C410.446 275.241 411.899 275.482 411.899 275.482C411.986 275.524 412.08 275.546 412.176 275.547C412.272 275.548 412.367 275.527 412.454 275.486C412.541 275.446 412.618 275.386 412.679 275.312C412.74 275.237 412.783 275.15 412.806 275.057C412.995 274.561 413.282 274.108 413.651 273.726C413.651 273.726 415.284 264.534 418.371 261.089C418.371 261.089 419.277 260.301 419.036 259.334C418.795 258.366 424.049 244.592 431.308 246.527Z" fill="black"/>
<path d="M431.162 245.3C431.162 245.3 436.789 243.667 435.41 259.636C434.032 275.604 423.61 285.698 423.61 285.698C423.61 285.698 411.631 290.959 406.25 290.115C400.869 289.27 396.913 289.086 396.913 289.086C395.22 288.23 393.366 287.735 391.471 287.633C388.445 287.515 382.097 285.637 381.974 285.033C381.851 284.428 383.546 275.538 382.819 274.873C382.819 274.873 391.287 275.222 392.137 275.817C392.986 276.411 394.195 275.986 395.101 275.817C396.007 275.647 398.792 273.221 404.296 275.345C404.296 275.345 406.184 275.524 406.896 275.043C407.609 274.561 408.784 274.92 408.784 274.92C409.25 274.76 409.692 274.536 410.097 274.255C410.276 274.014 411.73 274.255 411.73 274.255C411.816 274.297 411.911 274.319 412.007 274.32C412.103 274.321 412.198 274.3 412.285 274.259C412.372 274.219 412.448 274.159 412.509 274.085C412.57 274.01 412.613 273.923 412.636 273.83C412.829 273.335 413.118 272.883 413.486 272.499C413.486 272.499 415.119 263.307 418.206 259.862C418.206 259.862 419.117 259.074 418.871 258.107C418.626 257.139 423.903 243.365 431.162 245.3Z" fill="#3F3D56"/>
<path opacity="0.1" d="M387.473 305.3L395.459 314.964C395.492 314.936 395.511 314.917 395.511 314.908C395.573 314.728 396.356 312.671 396.177 312.548C395.997 312.425 394.605 309.401 391.82 308.131C390.408 307.44 389.222 306.359 388.403 305.017L387.473 305.3Z" fill="black"/>
<path opacity="0.1" d="M387.582 322.024L388.455 322.529C388.455 322.529 390.48 320.901 392.5 319.263C394.52 317.626 396.47 316.026 396.503 315.96C396.559 315.781 397.348 313.723 397.164 313.6C397.069 313.539 396.654 312.699 395.894 311.713C390.475 310.193 393.926 313.954 394.383 314.124C394.383 314.124 387.775 312.614 387.426 319.787C387.379 320.536 387.431 321.288 387.582 322.024Z" fill="black"/>
<path d="M394.26 325.081L395.412 325.747L407.085 326.049C408.395 326.844 409.78 327.509 411.22 328.035C411.411 328.096 411.607 328.14 411.805 328.167C412.887 328.252 413.973 328.272 415.057 328.229C415.954 328.229 416.643 328.167 416.643 328.167C416.643 328.167 416.091 313.445 415.699 311.897C415.501 311.156 414.519 311.321 413.556 311.689C412.831 311.983 412.132 312.337 411.465 312.746C411.465 312.746 406.504 313.218 405.716 313.657C404.928 314.096 402.695 313.412 401.303 313.657C399.91 313.902 397.432 312.02 397.432 312.02C390.654 309.783 394.468 313.954 394.95 314.134C394.95 314.134 388.341 312.624 387.997 319.796C387.652 326.969 394.26 325.081 394.26 325.081Z" fill="#3F3D56"/>
<path d="M411.14 319.381C411.267 322.429 413.641 326.214 415.057 328.215C415.954 328.215 416.643 328.153 416.643 328.153C416.643 328.153 416.091 313.431 415.699 311.883C415.501 311.142 414.519 311.307 413.556 311.675C412.362 313.869 411.036 316.927 411.14 319.381Z" fill="#565387"/>
<path opacity="0.1" d="M411.14 319.381C411.267 322.429 413.641 326.214 415.057 328.215C415.954 328.215 416.643 328.153 416.643 328.153C416.643 328.153 416.091 313.431 415.699 311.883C415.501 311.142 414.519 311.307 413.556 311.675C412.362 313.869 411.036 316.927 411.14 319.381Z" fill="black"/>
<path opacity="0.05" d="M409.143 319.787C409.945 322.727 409.936 326.025 411.22 328.021C411.411 328.081 411.607 328.126 411.805 328.153C412.887 328.238 413.973 328.258 415.057 328.215C415.954 328.215 416.643 328.153 416.643 328.153C416.643 328.153 416.091 313.431 415.699 311.883C415.501 311.142 414.519 311.307 413.556 311.675C412.831 311.969 412.132 312.323 411.465 312.732C411.465 312.732 408.114 316.021 409.143 319.787Z" fill="black"/>
<path opacity="0.1" d="M368.866 289.95C368.866 289.95 374.667 291.837 379.581 298.519L368.866 289.95Z" fill="black"/>
<g opacity="0.1">
<path opacity="0.1" d="M415.987 217.383C415.987 217.43 415.987 217.473 415.954 217.515C415.896 217.687 415.828 217.856 415.751 218.02C415.811 217.801 415.89 217.588 415.987 217.383Z" fill="black"/>
<path opacity="0.1" d="M383.178 214.453C383.287 214.028 383.446 213.618 383.65 213.23C383.617 213.334 383.588 213.438 383.56 213.547C383.253 214.863 383.508 216.241 383.829 217.553C383.994 218.232 384.221 218.969 384.806 219.346C385.708 219.922 387.1 219.422 387.836 220.2C388.308 220.672 388.308 221.573 388.936 221.875C389.163 221.977 389.415 222.006 389.658 221.96C391.263 221.734 392.198 219.917 393.741 219.417C394.643 219.186 395.597 219.269 396.446 219.653C396.792 219.759 397.102 219.958 397.343 220.229C397.857 220.894 397.498 221.88 397.734 222.687C398.07 223.81 399.41 224.254 400.566 224.405C401.723 224.556 403.035 224.631 403.814 225.509C404.071 225.839 404.256 226.22 404.355 226.627C404.454 227.034 404.466 227.457 404.39 227.868C404.319 228.152 404.319 228.448 404.39 228.732C404.711 229.638 406.278 229.506 406.688 228.789C406.991 228.269 406.896 227.845 407.604 227.689C408.112 227.65 408.622 227.739 409.086 227.949C410.343 228.378 411.667 228.577 412.995 228.534C414.09 228.55 415.162 228.22 416.058 227.59C416.449 227.28 416.771 226.891 417.002 226.448C416.797 227.253 416.339 227.971 415.694 228.496C414.798 229.126 413.726 229.456 412.631 229.44C411.298 229.474 409.97 229.263 408.713 228.817C408.249 228.607 407.739 228.519 407.231 228.562C406.528 228.704 406.618 229.138 406.316 229.657C405.905 230.374 404.338 230.511 404.017 229.605C403.949 229.319 403.949 229.022 404.017 228.737C404.093 228.325 404.082 227.902 403.982 227.495C403.883 227.088 403.699 226.707 403.441 226.377C402.662 225.5 401.355 225.433 400.194 225.273C399.032 225.113 397.692 224.678 397.362 223.555C397.121 222.748 397.484 221.762 396.965 221.097C396.724 220.826 396.414 220.627 396.068 220.521C395.22 220.137 394.266 220.054 393.364 220.285C391.82 220.785 390.886 222.602 389.281 222.829C389.037 222.875 388.785 222.845 388.559 222.744C387.95 222.442 387.926 221.564 387.459 221.069C386.722 220.29 385.33 220.795 384.428 220.214C383.843 219.837 383.617 219.101 383.451 218.426C383.126 217.147 382.871 215.769 383.178 214.453Z" fill="black"/>
</g>
<path opacity="0.1" d="M416.926 262.854C415.817 264.35 414.566 265.732 413.57 267.313C412.575 268.894 411.9 270.744 412.103 272.594C413.117 271.555 413.58 270.116 414.222 268.819C415.303 266.61 416.922 264.737 418.291 262.684C418.55 262.297 420.221 260.056 419.376 259.947C418.678 259.867 417.304 262.344 416.926 262.854Z" fill="black"/>
</g>
<defs>
<linearGradient id="paint0_linear" x1="398.244" y1="327.781" x2="398.244" y2="201.4" gradientUnits="userSpaceOnUse">
<stop stop-color="#808080" stop-opacity="0.25"/>
<stop offset="0.54" stop-color="#808080" stop-opacity="0.12"/>
<stop offset="1" stop-color="#808080" stop-opacity="0.1"/>
</linearGradient>
<clipPath id="clip0">
<rect width="521" height="334" fill="white"/>
</clipPath>
</defs>
</svg>
