<svg width="473" height="335" viewBox="0 0 473 335" fill="none" xmlns="http://www.w3.org/2000/svg">
<g clip-path="url(#clip0)">
<path opacity="0.1" d="M236.5 335C367.115 335 473 322.306 473 306.648C473 290.989 367.115 278.295 236.5 278.295C105.885 278.295 0 290.989 0 306.648C0 322.306 105.885 335 236.5 335Z" fill="#297CE0"/>
<path d="M404.667 320.545C404.667 320.545 417.002 305.064 416.004 289.705C415.544 283.266 417.214 276.853 420.764 271.429C422.47 268.867 424.41 266.465 426.56 264.252" stroke="#535461" stroke-width="2" stroke-miterlimit="10"/>
<path d="M425.99 254.57C425.12 256.719 426.545 264.507 426.545 264.507C426.545 264.507 433.014 259.826 433.883 257.676C434.3 256.644 434.284 255.49 433.839 254.47C433.394 253.449 432.556 252.645 431.51 252.233C430.464 251.821 429.295 251.836 428.26 252.274C427.224 252.712 426.408 253.538 425.99 254.57Z" fill="#297CE0"/>
<path d="M414.649 263.911C415.103 266.181 420.591 271.955 420.591 271.955C420.591 271.955 423.441 264.558 422.986 262.287C422.878 261.747 422.663 261.233 422.354 260.775C422.045 260.317 421.647 259.924 421.183 259.617C420.72 259.311 420.2 259.098 419.652 258.989C419.105 258.881 418.542 258.881 417.994 258.987C417.447 259.094 416.926 259.306 416.462 259.611C415.997 259.916 415.598 260.308 415.288 260.766C414.977 261.223 414.761 261.736 414.651 262.275C414.542 262.815 414.541 263.371 414.649 263.911Z" fill="#297CE0"/>
<path d="M406.701 284.373C408.256 286.106 415.948 288.358 415.948 288.358C415.948 288.358 414.622 280.554 413.068 278.82C412.698 278.407 412.25 278.071 411.748 277.829C411.246 277.588 410.702 277.446 410.145 277.412C409.587 277.378 409.029 277.453 408.501 277.632C407.974 277.811 407.487 278.091 407.069 278.456C406.651 278.821 406.31 279.263 406.065 279.758C405.82 280.252 405.677 280.79 405.642 281.339C405.608 281.889 405.684 282.439 405.866 282.96C406.048 283.48 406.332 283.96 406.701 284.373Z" fill="#297CE0"/>
<path d="M404.223 301.19C405.458 303.158 412.654 306.659 412.654 306.659C412.654 306.659 412.684 298.746 411.449 296.778C411.156 296.31 410.771 295.903 410.318 295.581C409.865 295.26 409.353 295.029 408.809 294.903C408.266 294.776 407.703 294.757 407.152 294.846C406.601 294.934 406.073 295.129 405.598 295.419C405.124 295.708 404.712 296.088 404.386 296.534C404.06 296.981 403.826 297.487 403.698 298.023C403.571 298.559 403.551 299.115 403.641 299.658C403.731 300.201 403.929 300.722 404.223 301.19Z" fill="#297CE0"/>
<path d="M428.709 275.632C426.54 276.515 418.628 275.2 418.628 275.2C418.628 275.2 423.299 268.766 425.468 267.884C426.51 267.46 427.68 267.461 428.72 267.888C429.761 268.315 430.587 269.132 431.017 270.16C431.446 271.187 431.445 272.341 431.012 273.367C430.579 274.394 429.751 275.208 428.709 275.632Z" fill="#297CE0"/>
<path d="M425.558 295.264C423.22 295.466 416.069 291.877 416.069 291.877C416.069 291.877 422.478 287.116 424.816 286.914C425.372 286.865 425.932 286.925 426.465 287.09C426.998 287.256 427.492 287.523 427.92 287.876C428.348 288.23 428.701 288.664 428.959 289.152C429.217 289.64 429.375 290.174 429.424 290.723C429.473 291.271 429.411 291.824 429.243 292.349C429.075 292.875 428.804 293.362 428.445 293.784C428.086 294.205 427.646 294.553 427.151 294.807C426.655 295.061 426.114 295.216 425.558 295.264Z" fill="#297CE0"/>
<path d="M419.84 313.931C417.57 314.519 409.908 312.174 409.908 312.174C409.908 312.174 415.409 306.413 417.678 305.824C418.768 305.542 419.927 305.697 420.901 306.258C421.874 306.818 422.582 307.736 422.869 308.811C423.155 309.886 422.997 311.03 422.429 311.99C421.861 312.95 420.93 313.648 419.84 313.931Z" fill="#297CE0"/>
<path opacity="0.25" d="M425.99 254.57C425.12 256.719 426.545 264.507 426.545 264.507C426.545 264.507 433.014 259.826 433.883 257.676C434.3 256.644 434.284 255.49 433.839 254.47C433.394 253.449 432.556 252.645 431.51 252.233C430.464 251.821 429.295 251.836 428.26 252.274C427.224 252.712 426.408 253.538 425.99 254.57Z" fill="black"/>
<path opacity="0.25" d="M414.649 263.911C415.103 266.181 420.591 271.955 420.591 271.955C420.591 271.955 423.441 264.558 422.986 262.287C422.878 261.747 422.663 261.233 422.354 260.775C422.045 260.317 421.647 259.924 421.183 259.617C420.72 259.311 420.2 259.098 419.652 258.989C419.105 258.881 418.542 258.881 417.994 258.987C417.447 259.094 416.926 259.306 416.462 259.611C415.997 259.916 415.598 260.308 415.288 260.766C414.977 261.223 414.761 261.736 414.651 262.275C414.542 262.815 414.541 263.371 414.649 263.911Z" fill="black"/>
<path opacity="0.25" d="M406.701 284.373C408.256 286.106 415.948 288.358 415.948 288.358C415.948 288.358 414.622 280.554 413.068 278.82C412.698 278.407 412.25 278.071 411.748 277.829C411.246 277.588 410.702 277.446 410.145 277.412C409.587 277.378 409.029 277.453 408.501 277.632C407.974 277.811 407.487 278.091 407.069 278.456C406.651 278.821 406.31 279.263 406.065 279.758C405.82 280.252 405.677 280.79 405.642 281.339C405.608 281.889 405.684 282.439 405.866 282.96C406.048 283.48 406.332 283.96 406.701 284.373Z" fill="black"/>
<path opacity="0.25" d="M404.223 301.19C405.458 303.158 412.654 306.659 412.654 306.659C412.654 306.659 412.684 298.746 411.449 296.778C411.156 296.31 410.771 295.903 410.318 295.581C409.865 295.26 409.353 295.029 408.809 294.903C408.266 294.776 407.703 294.757 407.152 294.846C406.601 294.934 406.073 295.129 405.598 295.419C405.124 295.708 404.712 296.088 404.386 296.534C404.06 296.981 403.826 297.487 403.698 298.023C403.571 298.559 403.551 299.115 403.641 299.658C403.731 300.201 403.929 300.722 404.223 301.19Z" fill="black"/>
<path opacity="0.25" d="M428.709 275.632C426.54 276.515 418.628 275.2 418.628 275.2C418.628 275.2 423.299 268.766 425.468 267.884C426.51 267.46 427.68 267.461 428.72 267.888C429.761 268.315 430.587 269.132 431.017 270.16C431.446 271.187 431.445 272.341 431.012 273.367C430.579 274.394 429.751 275.208 428.709 275.632Z" fill="black"/>
<path opacity="0.25" d="M425.558 295.264C423.22 295.466 416.069 291.877 416.069 291.877C416.069 291.877 422.478 287.116 424.816 286.914C425.372 286.865 425.932 286.925 426.465 287.09C426.998 287.256 427.492 287.523 427.92 287.876C428.348 288.23 428.701 288.664 428.959 289.152C429.217 289.64 429.375 290.174 429.424 290.723C429.473 291.271 429.411 291.824 429.243 292.349C429.075 292.875 428.804 293.362 428.445 293.784C428.086 294.205 427.646 294.553 427.151 294.807C426.655 295.061 426.114 295.216 425.558 295.264Z" fill="black"/>
<path opacity="0.25" d="M419.84 313.931C417.57 314.519 409.908 312.174 409.908 312.174C409.908 312.174 415.409 306.413 417.678 305.824C418.768 305.542 419.927 305.697 420.901 306.258C421.874 306.818 422.582 307.736 422.869 308.811C423.155 309.886 422.997 311.03 422.429 311.99C421.861 312.95 420.93 313.648 419.84 313.931Z" fill="black"/>
<path d="M404.772 319.9C404.772 319.9 422.408 310.678 427.807 296.238C430.032 290.166 434.194 284.971 439.667 281.431C442.279 279.771 445.04 278.35 447.914 277.187" stroke="#535461" stroke-width="2" stroke-miterlimit="10"/>
<path d="M451.372 268.107C449.693 269.724 447.796 277.413 447.796 277.413C447.796 277.413 455.633 275.719 457.312 274.101C458.118 273.324 458.578 272.263 458.591 271.152C458.603 270.04 458.168 268.969 457.381 268.175C456.593 267.38 455.517 266.926 454.39 266.913C453.263 266.9 452.177 267.33 451.372 268.107Z" fill="#297CE0"/>
<path d="M437.165 272.114C436.648 274.371 439.293 281.842 439.293 281.842C439.293 281.842 444.938 276.219 445.455 273.961C445.578 273.425 445.593 272.869 445.498 272.327C445.403 271.784 445.201 271.266 444.903 270.8C444.605 270.335 444.217 269.932 443.762 269.614C443.306 269.297 442.791 269.071 442.247 268.95C441.703 268.828 441.139 268.814 440.589 268.907C440.04 269.001 439.514 269.2 439.042 269.494C438.57 269.787 438.161 270.17 437.839 270.62C437.518 271.069 437.288 271.577 437.165 272.114Z" fill="#297CE0"/>
<path d="M421.493 287.644C422.202 289.85 428.309 294.983 428.309 294.983C428.309 294.983 430.303 287.318 429.594 285.112C429.426 284.587 429.154 284.1 428.795 283.679C428.436 283.258 427.996 282.911 427.5 282.658C427.005 282.404 426.464 282.249 425.908 282.202C425.352 282.155 424.792 282.216 424.26 282.383C423.728 282.549 423.235 282.817 422.808 283.171C422.381 283.526 422.029 283.96 421.772 284.448C421.515 284.937 421.358 285.47 421.31 286.019C421.262 286.567 421.324 287.119 421.493 287.644Z" fill="#297CE0"/>
<path d="M412.318 302.028C412.639 304.321 417.778 310.398 417.778 310.398C417.778 310.398 421.057 303.176 420.737 300.883C420.66 300.338 420.476 299.813 420.194 299.338C419.912 298.863 419.538 298.447 419.093 298.115C418.648 297.783 418.142 297.54 417.602 297.401C417.062 297.262 416.499 297.229 415.947 297.304C415.394 297.379 414.861 297.561 414.38 297.839C413.898 298.117 413.477 298.486 413.14 298.925C412.803 299.364 412.557 299.863 412.416 300.396C412.275 300.928 412.242 301.483 412.318 302.028Z" fill="#297CE0"/>
<path d="M445.204 288.449C442.858 288.389 436.165 284.025 436.165 284.025C436.165 284.025 443.078 280.01 445.424 280.07C446.551 280.099 447.62 280.568 448.396 281.374C449.172 282.18 449.591 283.257 449.562 284.368C449.533 285.479 449.057 286.534 448.24 287.299C447.423 288.064 446.331 288.478 445.204 288.449H445.204Z" fill="#297CE0"/>
<path d="M434.257 305.137C432.036 304.388 426.974 298.249 426.974 298.249C426.974 298.249 434.789 296.457 437.009 297.207C438.075 297.567 438.953 298.33 439.449 299.328C439.945 300.327 440.018 301.478 439.653 302.53C439.288 303.581 438.514 304.447 437.502 304.936C436.49 305.425 435.323 305.497 434.257 305.137V305.137Z" fill="#297CE0"/>
<path d="M421.361 319.918C419.044 319.549 413.002 314.342 413.002 314.342C413.002 314.342 420.398 311.274 422.715 311.643C423.827 311.82 424.823 312.425 425.483 313.327C426.143 314.228 426.412 315.35 426.233 316.448C426.053 317.545 425.439 318.527 424.525 319.178C423.612 319.829 422.473 320.095 421.361 319.918Z" fill="#297CE0"/>
<path opacity="0.1" d="M269.559 39.6739C246.189 38.8736 223.932 31.4326 202.678 23.2917C181.424 15.1507 160.371 6.13115 137.561 1.81737C122.89 -0.95717 106.113 -1.34973 94.2919 6.40836C82.9165 13.874 79.2408 26.7612 77.2647 38.7188C75.7779 47.7154 74.9037 57.1839 78.9776 65.6063C81.8059 71.4536 86.8279 76.3688 90.3007 81.9695C102.385 101.458 93.8437 125.49 80.7481 144.519C74.6052 153.445 67.48 161.961 62.7398 171.463C57.9996 180.965 55.8067 191.853 59.954 201.546C64.0647 211.153 73.8609 218.37 84.4725 223.445C106.025 233.754 131.422 236.704 156.188 238.376C211.01 242.075 266.125 240.473 321.092 238.869C341.434 238.275 361.866 237.674 381.878 234.572C392.991 232.849 404.464 230.114 412.532 223.513C422.774 215.133 425.312 200.943 418.45 190.435C406.938 172.81 375.109 168.432 367.063 149.516C362.634 139.105 367.182 127.507 373.619 117.851C387.426 97.1363 410.569 78.9633 411.788 55.2861C412.625 39.0242 401.5 22.7384 384.298 15.0443C366.267 6.97933 341.263 7.99382 327.961 21.3441C314.264 35.0911 290.193 40.3805 269.559 39.6739Z" fill="#297CE0"/>
<path d="M229.546 293.931C238.321 293.931 245.435 286.483 245.435 277.296C245.435 268.109 238.321 260.661 229.546 260.661C220.77 260.661 213.656 268.109 213.656 277.296C213.656 286.483 220.77 293.931 229.546 293.931Z" fill="#FBD56F"/>
<path opacity="0.1" d="M229.546 293.931C238.321 293.931 245.435 286.483 245.435 277.296C245.435 268.109 238.321 260.661 229.546 260.661C220.77 260.661 213.656 268.109 213.656 277.296C213.656 286.483 220.77 293.931 229.546 293.931Z" fill="black"/>
<path d="M232.288 293.931C241.064 293.931 248.178 286.649 248.178 277.667C248.178 268.684 241.064 261.402 232.288 261.402C223.513 261.402 216.399 268.684 216.399 277.667C216.399 286.649 223.513 293.931 232.288 293.931Z" fill="#FBD56F"/>
<path d="M238.724 292.406L237.071 291.498C237.071 291.498 236.298 294.68 236.551 296.948C236.576 297.178 236.672 297.394 236.825 297.569C236.979 297.744 237.184 297.867 237.411 297.923C241.214 298.855 259.335 302.822 271.797 297.234C271.978 297.153 272.134 297.026 272.25 296.867C272.366 296.708 272.438 296.522 272.459 296.328C272.612 294.934 272.071 292.058 271.855 291.498C271.39 290.293 238.724 292.406 238.724 292.406Z" fill="#FBD56F"/>
<path opacity="0.1" d="M238.724 292.406L237.071 291.498C237.071 291.498 236.298 294.68 236.551 296.948C236.576 297.178 236.672 297.394 236.825 297.569C236.979 297.744 237.184 297.867 237.411 297.923C241.214 298.855 259.335 302.822 271.797 297.234C271.978 297.153 272.134 297.026 272.25 296.867C272.366 296.708 272.438 296.522 272.459 296.328C272.612 294.934 272.071 292.058 271.855 291.498C271.39 290.293 238.724 292.406 238.724 292.406Z" fill="black"/>
<path d="M254.463 295.365C264.069 295.365 271.855 293.634 271.855 291.498C271.855 289.363 264.069 287.632 254.463 287.632C244.858 287.632 237.071 289.363 237.071 291.498C237.071 293.634 244.858 295.365 254.463 295.365Z" fill="#FBD56F"/>
<path d="M245.368 286.701L243.716 285.793C243.716 285.793 242.943 288.975 243.195 291.243C243.22 291.473 243.316 291.69 243.47 291.864C243.624 292.039 243.828 292.162 244.056 292.218C247.858 293.15 265.98 297.118 278.442 291.529C278.622 291.448 278.778 291.321 278.895 291.162C279.011 291.003 279.083 290.817 279.104 290.623C279.257 289.229 278.716 286.354 278.5 285.793C278.035 284.588 245.368 286.701 245.368 286.701Z" fill="#FBD56F"/>
<path opacity="0.1" d="M245.368 286.701L243.716 285.793C243.716 285.793 242.943 288.975 243.195 291.243C243.22 291.473 243.316 291.69 243.47 291.864C243.624 292.039 243.828 292.162 244.056 292.218C247.858 293.15 265.98 297.118 278.442 291.529C278.622 291.448 278.778 291.321 278.895 291.162C279.011 291.003 279.083 290.817 279.104 290.623C279.257 289.229 278.716 286.354 278.5 285.793C278.035 284.588 245.368 286.701 245.368 286.701Z" fill="black"/>
<path d="M261.108 289.66C270.713 289.66 278.5 287.929 278.5 285.793C278.5 283.658 270.713 281.927 261.108 281.927C251.502 281.927 243.716 283.658 243.716 285.793C243.716 287.929 251.502 289.66 261.108 289.66Z" fill="#FBD56F"/>
<path d="M251.243 279.203L249.59 278.295C249.59 278.295 248.817 281.477 249.07 283.745C249.095 283.975 249.191 284.192 249.345 284.366C249.499 284.541 249.703 284.664 249.931 284.72C253.733 285.652 271.855 289.619 284.316 284.031C284.497 283.95 284.653 283.823 284.769 283.664C284.885 283.505 284.958 283.319 284.979 283.125C285.131 281.731 284.59 278.856 284.374 278.295C283.91 277.09 251.243 279.203 251.243 279.203Z" fill="#FBD56F"/>
<path opacity="0.1" d="M251.243 279.203L249.59 278.295C249.59 278.295 248.817 281.477 249.07 283.745C249.095 283.975 249.191 284.192 249.345 284.366C249.499 284.541 249.703 284.664 249.931 284.72C253.733 285.652 271.855 289.619 284.316 284.031C284.497 283.95 284.653 283.823 284.769 283.664C284.885 283.505 284.958 283.319 284.979 283.125C285.131 281.731 284.59 278.856 284.374 278.295C283.91 277.09 251.243 279.203 251.243 279.203Z" fill="black"/>
<path d="M266.982 282.162C276.587 282.162 284.374 280.431 284.374 278.295C284.374 276.16 276.587 274.429 266.982 274.429C257.377 274.429 249.59 276.16 249.59 278.295C249.59 280.431 257.377 282.162 266.982 282.162Z" fill="#FBD56F"/>
<path d="M244.738 271.398L243.085 270.49C243.085 270.49 242.312 273.672 242.564 275.939C242.589 276.169 242.685 276.386 242.839 276.561C242.993 276.735 243.198 276.859 243.425 276.915C247.227 277.846 265.349 281.814 277.811 276.226C277.991 276.144 278.148 276.018 278.264 275.859C278.38 275.7 278.452 275.514 278.473 275.319C278.626 273.926 278.085 271.05 277.869 270.49C277.404 269.284 244.738 271.398 244.738 271.398Z" fill="#FBD56F"/>
<path opacity="0.1" d="M244.738 271.398L243.085 270.49C243.085 270.49 242.312 273.672 242.564 275.939C242.589 276.169 242.685 276.386 242.839 276.561C242.993 276.735 243.198 276.859 243.425 276.915C247.227 277.846 265.349 281.814 277.811 276.226C277.991 276.144 278.148 276.018 278.264 275.859C278.38 275.7 278.452 275.514 278.473 275.319C278.626 273.926 278.085 271.05 277.869 270.49C277.404 269.284 244.738 271.398 244.738 271.398Z" fill="black"/>
<path d="M260.477 274.357C270.082 274.357 277.869 272.625 277.869 270.49C277.869 268.354 270.082 266.623 260.477 266.623C250.871 266.623 243.085 268.354 243.085 270.49C243.085 272.625 250.871 274.357 260.477 274.357Z" fill="#FBD56F"/>
<path d="M259.372 265.134L257.72 264.226C257.72 264.226 256.946 267.408 257.199 269.675C257.224 269.905 257.32 270.122 257.474 270.297C257.628 270.471 257.832 270.595 258.06 270.651C261.862 271.583 279.984 275.55 292.446 269.962C292.626 269.88 292.782 269.754 292.898 269.595C293.015 269.436 293.087 269.25 293.108 269.055C293.261 267.662 292.72 264.786 292.504 264.226C292.039 263.02 259.372 265.134 259.372 265.134Z" fill="#FBD56F"/>
<path opacity="0.1" d="M259.372 265.134L257.72 264.226C257.72 264.226 256.946 267.408 257.199 269.675C257.224 269.905 257.32 270.122 257.474 270.297C257.628 270.471 257.832 270.595 258.06 270.651C261.862 271.583 279.984 275.55 292.446 269.962C292.626 269.88 292.782 269.754 292.898 269.595C293.015 269.436 293.087 269.25 293.108 269.055C293.261 267.662 292.72 264.786 292.504 264.226C292.039 263.02 259.372 265.134 259.372 265.134Z" fill="black"/>
<path d="M275.111 268.093C284.717 268.093 292.504 266.362 292.504 264.226C292.504 262.091 284.717 260.359 275.111 260.359C265.506 260.359 257.719 262.091 257.719 264.226C257.719 266.362 265.506 268.093 275.111 268.093Z" fill="#FBD56F"/>
<path d="M249.484 260.924L247.832 260.016C247.832 260.016 247.059 263.198 247.311 265.465C247.336 265.695 247.432 265.912 247.586 266.087C247.74 266.261 247.944 266.385 248.172 266.441C251.974 267.372 270.096 271.34 282.558 265.752C282.738 265.67 282.894 265.544 283.011 265.385C283.127 265.226 283.199 265.04 283.22 264.845C283.373 263.452 282.832 260.576 282.616 260.016C282.151 258.81 249.484 260.924 249.484 260.924Z" fill="#FBD56F"/>
<path opacity="0.1" d="M249.484 260.924L247.832 260.016C247.832 260.016 247.059 263.198 247.311 265.465C247.336 265.695 247.432 265.912 247.586 266.087C247.74 266.261 247.944 266.385 248.172 266.441C251.974 267.372 270.096 271.34 282.558 265.752C282.738 265.67 282.894 265.544 283.011 265.385C283.127 265.226 283.199 265.04 283.22 264.845C283.373 263.452 282.832 260.576 282.616 260.016C282.151 258.81 249.484 260.924 249.484 260.924Z" fill="black"/>
<path d="M265.224 263.883C274.829 263.883 282.616 262.151 282.616 260.016C282.616 257.88 274.829 256.149 265.224 256.149C255.618 256.149 247.832 257.88 247.832 260.016C247.832 262.151 255.618 263.883 265.224 263.883Z" fill="#FBD56F"/>
<path d="M256.086 252.796L254.433 251.888C254.433 251.888 253.66 255.07 253.913 257.337C253.938 257.567 254.034 257.784 254.188 257.959C254.342 258.133 254.546 258.257 254.774 258.313C258.576 259.245 276.698 263.212 289.159 257.624C289.34 257.542 289.496 257.416 289.612 257.257C289.728 257.098 289.801 256.912 289.822 256.717C289.975 255.324 289.433 252.448 289.217 251.888C288.753 250.682 256.086 252.796 256.086 252.796Z" fill="#FBD56F"/>
<path opacity="0.1" d="M256.086 252.796L254.433 251.888C254.433 251.888 253.66 255.07 253.913 257.337C253.938 257.567 254.034 257.784 254.188 257.959C254.342 258.133 254.546 258.257 254.774 258.313C258.576 259.245 276.698 263.212 289.159 257.624C289.34 257.542 289.496 257.416 289.612 257.257C289.728 257.098 289.801 256.912 289.822 256.717C289.975 255.324 289.433 252.448 289.217 251.888C288.753 250.682 256.086 252.796 256.086 252.796Z" fill="black"/>
<path d="M271.825 255.755C281.43 255.755 289.217 254.024 289.217 251.888C289.217 249.753 281.43 248.021 271.825 248.021C262.22 248.021 254.433 249.753 254.433 251.888C254.433 254.024 262.22 255.755 271.825 255.755Z" fill="#FBD56F"/>
<path d="M259.342 243.148L257.69 242.241C257.69 242.241 256.916 245.423 257.169 247.69C257.194 247.92 257.29 248.137 257.444 248.311C257.598 248.486 257.802 248.61 258.03 248.666C261.832 249.597 279.954 253.565 292.415 247.976C292.596 247.895 292.752 247.769 292.868 247.61C292.985 247.451 293.057 247.265 293.078 247.07C293.231 245.676 292.69 242.801 292.474 242.241C292.009 241.035 259.342 243.148 259.342 243.148Z" fill="#FBD56F"/>
<path opacity="0.1" d="M259.342 243.148L257.69 242.241C257.69 242.241 256.916 245.423 257.169 247.69C257.194 247.92 257.29 248.137 257.444 248.311C257.598 248.486 257.802 248.61 258.03 248.666C261.832 249.597 279.954 253.565 292.415 247.976C292.596 247.895 292.752 247.769 292.868 247.61C292.985 247.451 293.057 247.265 293.078 247.07C293.231 245.676 292.69 242.801 292.474 242.241C292.009 241.035 259.342 243.148 259.342 243.148Z" fill="black"/>
<path d="M275.082 246.107C284.687 246.107 292.474 244.376 292.474 242.241C292.474 240.105 284.687 238.374 275.082 238.374C265.476 238.374 257.69 240.105 257.69 242.241C257.69 244.376 265.476 246.107 275.082 246.107Z" fill="#FBD56F"/>
<path d="M288.702 294.643L287.049 293.736C287.049 293.736 286.276 296.918 286.529 299.185C286.553 299.415 286.649 299.632 286.803 299.806C286.957 299.981 287.162 300.105 287.389 300.161C291.191 301.092 309.313 305.06 321.775 299.471C321.955 299.39 322.112 299.264 322.228 299.105C322.344 298.946 322.416 298.76 322.437 298.565C322.59 297.171 322.049 294.296 321.833 293.736C321.368 292.53 288.702 294.643 288.702 294.643Z" fill="#FBD56F"/>
<path opacity="0.1" d="M288.702 294.643L287.049 293.736C287.049 293.736 286.276 296.918 286.529 299.185C286.553 299.415 286.649 299.632 286.803 299.806C286.957 299.981 287.162 300.105 287.389 300.161C291.191 301.092 309.313 305.06 321.775 299.471C321.955 299.39 322.112 299.264 322.228 299.105C322.344 298.946 322.416 298.76 322.437 298.565C322.59 297.171 322.049 294.296 321.833 293.736C321.368 292.53 288.702 294.643 288.702 294.643Z" fill="black"/>
<path d="M304.441 297.602C314.046 297.602 321.833 295.871 321.833 293.736C321.833 291.6 314.046 289.869 304.441 289.869C294.836 289.869 287.049 291.6 287.049 293.736C287.049 295.871 294.836 297.602 304.441 297.602Z" fill="#FBD56F"/>
<path d="M294.576 287.145L292.923 286.238C292.923 286.238 292.15 289.42 292.403 291.687C292.427 291.917 292.523 292.134 292.677 292.309C292.831 292.483 293.036 292.607 293.263 292.663C297.065 293.594 315.187 297.562 327.649 291.973C327.83 291.892 327.986 291.766 328.102 291.607C328.218 291.448 328.29 291.262 328.311 291.067C328.464 289.674 327.923 286.798 327.707 286.238C327.242 285.032 294.576 287.145 294.576 287.145Z" fill="#FBD56F"/>
<path opacity="0.1" d="M294.576 287.145L292.923 286.238C292.923 286.238 292.15 289.42 292.403 291.687C292.427 291.917 292.523 292.134 292.677 292.309C292.831 292.483 293.036 292.607 293.263 292.663C297.065 293.594 315.187 297.562 327.649 291.973C327.83 291.892 327.986 291.766 328.102 291.607C328.218 291.448 328.29 291.262 328.311 291.067C328.464 289.674 327.923 286.798 327.707 286.238C327.242 285.032 294.576 287.145 294.576 287.145Z" fill="black"/>
<path d="M310.315 290.104C319.92 290.104 327.707 288.373 327.707 286.238C327.707 284.102 319.92 282.371 310.315 282.371C300.71 282.371 292.923 284.102 292.923 286.238C292.923 288.373 300.71 290.104 310.315 290.104Z" fill="#FBD56F"/>
<path d="M288.07 279.34L286.418 278.432C286.418 278.432 285.644 281.614 285.897 283.882C285.922 284.112 286.018 284.329 286.172 284.503C286.326 284.678 286.53 284.801 286.758 284.858C290.56 285.789 308.682 289.757 321.144 284.168C321.324 284.087 321.48 283.96 321.596 283.801C321.713 283.643 321.785 283.457 321.806 283.262C321.959 281.868 321.418 278.993 321.202 278.432C320.737 277.227 288.07 279.34 288.07 279.34Z" fill="#FBD56F"/>
<path opacity="0.1" d="M288.07 279.34L286.418 278.432C286.418 278.432 285.644 281.614 285.897 283.882C285.922 284.112 286.018 284.329 286.172 284.503C286.326 284.678 286.53 284.801 286.758 284.858C290.56 285.789 308.682 289.757 321.144 284.168C321.324 284.087 321.48 283.96 321.596 283.801C321.713 283.643 321.785 283.457 321.806 283.262C321.959 281.868 321.418 278.993 321.202 278.432C320.737 277.227 288.07 279.34 288.07 279.34Z" fill="black"/>
<path d="M303.81 282.299C313.415 282.299 321.202 280.568 321.202 278.432C321.202 276.297 313.415 274.566 303.81 274.566C294.204 274.566 286.418 276.297 286.418 278.432C286.418 280.568 294.204 282.299 303.81 282.299Z" fill="#FBD56F"/>
<path d="M302.705 273.076L301.052 272.168C301.052 272.168 300.279 275.35 300.532 277.618C300.557 277.848 300.653 278.065 300.807 278.239C300.961 278.414 301.165 278.537 301.393 278.594C305.195 279.525 323.317 283.493 335.778 277.904C335.959 277.823 336.115 277.696 336.231 277.538C336.347 277.379 336.419 277.193 336.441 276.998C336.593 275.604 336.052 272.729 335.836 272.168C335.371 270.963 302.705 273.076 302.705 273.076Z" fill="#FBD56F"/>
<path opacity="0.1" d="M302.705 273.076L301.052 272.168C301.052 272.168 300.279 275.35 300.532 277.618C300.557 277.848 300.653 278.065 300.807 278.239C300.961 278.414 301.165 278.537 301.393 278.594C305.195 279.525 323.317 283.493 335.778 277.904C335.959 277.823 336.115 277.696 336.231 277.538C336.347 277.379 336.419 277.193 336.441 276.998C336.593 275.604 336.052 272.729 335.836 272.168C335.371 270.963 302.705 273.076 302.705 273.076Z" fill="black"/>
<path d="M318.445 276.035C328.05 276.035 335.837 274.304 335.837 272.168C335.837 270.033 328.05 268.302 318.445 268.302C308.839 268.302 301.052 270.033 301.052 272.168C301.052 274.304 308.839 276.035 318.445 276.035Z" fill="#FBD56F"/>
<path d="M292.817 268.866L291.164 267.958C291.164 267.958 290.391 271.14 290.644 273.408C290.669 273.638 290.765 273.855 290.919 274.029C291.073 274.204 291.277 274.327 291.505 274.383C295.307 275.315 313.429 279.283 325.89 273.694C326.071 273.613 326.227 273.486 326.343 273.327C326.459 273.168 326.532 272.982 326.553 272.788C326.706 271.394 326.164 268.519 325.948 267.958C325.484 266.753 292.817 268.866 292.817 268.866Z" fill="#FBD56F"/>
<path opacity="0.1" d="M292.817 268.866L291.164 267.958C291.164 267.958 290.391 271.14 290.644 273.408C290.669 273.638 290.765 273.855 290.919 274.029C291.073 274.204 291.277 274.327 291.505 274.383C295.307 275.315 313.429 279.283 325.89 273.694C326.071 273.613 326.227 273.486 326.343 273.327C326.459 273.168 326.532 272.982 326.553 272.788C326.706 271.394 326.164 268.519 325.948 267.958C325.484 266.753 292.817 268.866 292.817 268.866Z" fill="black"/>
<path d="M308.557 271.825C318.162 271.825 325.949 270.094 325.949 267.958C325.949 265.823 318.162 264.092 308.557 264.092C298.951 264.092 291.165 265.823 291.165 267.958C291.165 270.094 298.951 271.825 308.557 271.825Z" fill="#FBD56F"/>
<path d="M299.419 260.738L297.766 259.831C297.766 259.831 296.993 263.013 297.246 265.28C297.271 265.51 297.367 265.727 297.521 265.901C297.674 266.076 297.879 266.2 298.106 266.256C301.909 267.187 320.03 271.155 332.492 265.566C332.673 265.485 332.829 265.359 332.945 265.2C333.061 265.041 333.133 264.855 333.154 264.66C333.307 263.266 332.766 260.391 332.55 259.831C332.085 258.625 299.419 260.738 299.419 260.738Z" fill="#FBD56F"/>
<path opacity="0.1" d="M299.419 260.738L297.766 259.831C297.766 259.831 296.993 263.013 297.246 265.28C297.271 265.51 297.367 265.727 297.521 265.901C297.674 266.076 297.879 266.2 298.106 266.256C301.909 267.187 320.03 271.155 332.492 265.566C332.673 265.485 332.829 265.359 332.945 265.2C333.061 265.041 333.133 264.855 333.154 264.66C333.307 263.266 332.766 260.391 332.55 259.831C332.085 258.625 299.419 260.738 299.419 260.738Z" fill="black"/>
<path d="M315.158 263.697C324.764 263.697 332.55 261.966 332.55 259.831C332.55 257.695 324.764 255.964 315.158 255.964C305.553 255.964 297.766 257.695 297.766 259.831C297.766 261.966 305.553 263.697 315.158 263.697Z" fill="#FBD56F"/>
<path d="M302.675 251.091L301.023 250.183C301.023 250.183 300.249 253.365 300.502 255.632C300.527 255.862 300.623 256.079 300.777 256.254C300.931 256.428 301.135 256.552 301.363 256.608C305.165 257.54 323.287 261.507 335.748 255.919C335.929 255.837 336.085 255.711 336.201 255.552C336.318 255.393 336.39 255.207 336.411 255.012C336.564 253.619 336.023 250.743 335.807 250.183C335.342 248.977 302.675 251.091 302.675 251.091Z" fill="#FBD56F"/>
<path opacity="0.1" d="M302.675 251.091L301.023 250.183C301.023 250.183 300.249 253.365 300.502 255.632C300.527 255.862 300.623 256.079 300.777 256.254C300.931 256.428 301.135 256.552 301.363 256.608C305.165 257.54 323.287 261.507 335.748 255.919C335.929 255.837 336.085 255.711 336.201 255.552C336.318 255.393 336.39 255.207 336.411 255.012C336.564 253.619 336.023 250.743 335.807 250.183C335.342 248.977 302.675 251.091 302.675 251.091Z" fill="black"/>
<path d="M318.414 254.05C328.02 254.05 335.806 252.319 335.806 250.183C335.806 248.048 328.02 246.316 318.414 246.316C308.809 246.316 301.022 248.048 301.022 250.183C301.022 252.319 308.809 254.05 318.414 254.05Z" fill="#FBD56F"/>
<path d="M407.504 317.401C405.083 317.317 404.996 316.391 401.884 314.792C400.127 313.89 397.459 311.27 395.47 309.161C395.311 308.992 395.157 308.827 395.007 308.666C395.533 308.655 395.832 308.649 395.832 308.649C395.832 308.649 395.053 301.918 395.745 300.319C396.437 298.72 395.918 289.211 395.918 289.211C395.918 289.211 396.35 281.974 395.572 280.291C394.794 278.608 395.832 267.837 395.832 267.837C395.832 267.837 396.523 261.442 396.696 248.399C396.869 235.356 389.088 234.935 389.088 234.935C389.088 234.935 388.05 234.856 386.475 234.708C386.323 234.694 386.163 234.678 386.003 234.663C387.023 232.557 387.618 230.98 387.618 230.98C387.618 230.98 386.321 218.778 385.975 216.675C385.629 214.571 383.554 205.904 383.554 205.904C383.554 205.904 382.084 202.201 381.22 199.592C380.355 196.984 377.761 193.955 377.761 193.955C377.761 193.955 373.092 184.866 371.795 183.52C371.194 182.896 370.35 182.108 369.618 181.443C369.486 181.323 369.36 181.209 369.238 181.099C369.433 180.151 369.537 179.186 369.547 178.219C369.547 178.219 364.705 173.506 364.36 172.328C364.014 171.15 359.431 166.774 359.431 166.774C359.431 166.774 356.837 162.062 353.898 161.978C352.509 161.9 351.116 161.942 349.734 162.102C350.338 159.898 351.052 157.589 351.693 155.608C351.764 155.387 351.834 155.172 351.904 154.96C354.253 153.393 356.097 151.194 357.215 148.623C357.277 148.487 357.332 148.349 357.388 148.21C357.419 148.211 357.45 148.216 357.481 148.216C357.603 148.214 357.724 148.204 357.844 148.183C358.812 148.019 359.631 146.941 359.185 146.091C359.214 146.139 359.255 146.178 359.305 146.205C359.355 146.232 359.411 146.245 359.467 146.244C359.79 146.233 360.183 145.773 360.259 145.368C360.272 145.298 360.279 145.227 360.29 145.156C360.304 145.068 360.318 144.981 360.329 144.892C360.339 144.809 360.345 144.726 360.352 144.643C360.36 144.557 360.366 144.471 360.371 144.385C360.375 144.305 360.378 144.224 360.379 144.144C360.381 144.051 360.38 143.958 360.378 143.866C360.377 143.791 360.376 143.717 360.373 143.643C360.367 143.53 360.358 143.418 360.347 143.305C360.343 143.259 360.342 143.213 360.337 143.167L360.336 143.173C360.285 142.714 360.192 142.259 360.057 141.816C359.579 140.252 358.577 138.701 358.963 137.113C358.968 137.096 358.975 137.08 358.98 137.063L358.98 137.067C359.302 135.834 360.383 134.939 361.045 133.838C361.108 133.733 361.163 133.625 361.218 133.516C361.228 133.496 361.24 133.477 361.25 133.457C361.289 133.375 361.323 133.291 361.358 133.207C361.381 133.154 361.405 133.101 361.426 133.046C361.454 132.973 361.477 132.898 361.501 132.824C361.523 132.756 361.547 132.689 361.566 132.62C361.585 132.554 361.6 132.487 361.616 132.421C361.635 132.34 361.654 132.26 361.67 132.179C361.681 132.121 361.69 132.062 361.699 132.004C361.714 131.912 361.727 131.82 361.737 131.727C361.742 131.677 361.746 131.627 361.75 131.577C361.758 131.473 361.764 131.37 361.767 131.266C361.768 131.225 361.768 131.183 361.768 131.142C361.769 131.028 361.766 130.915 361.76 130.801C361.758 130.767 361.756 130.733 361.753 130.699C361.745 130.578 361.732 130.458 361.716 130.338C361.714 130.32 361.713 130.303 361.71 130.285L361.71 130.29C361.563 129.233 361.136 128.232 360.471 127.39C359.714 126.501 358.758 125.798 357.677 125.337C356.597 124.877 355.423 124.67 354.248 124.735C353.598 124.807 352.943 124.819 352.291 124.77C351.205 124.613 350.287 123.933 349.422 123.276C347.008 121.442 344.594 119.608 342.18 117.774C341.373 117.082 340.445 116.538 339.443 116.169C338.419 115.86 337.192 115.967 336.435 116.704C335.079 118.024 335.941 120.295 335.396 122.085C334.925 123.635 333.407 124.685 331.836 125.209C330.264 125.732 328.583 125.847 326.968 126.226C326.488 126.303 326.038 126.507 325.666 126.816C325.248 127.317 325.045 127.959 325.1 128.606C325.09 130.19 325.476 131.753 326.224 133.156C326.529 133.727 326.899 134.305 327.224 134.89C327.251 134.939 327.277 134.987 327.303 135.036C327.339 135.103 327.376 135.17 327.41 135.238C327.467 135.347 327.52 135.457 327.571 135.567C327.593 135.614 327.613 135.662 327.634 135.71C327.668 135.787 327.7 135.866 327.73 135.944C327.75 135.994 327.769 136.043 327.786 136.093C327.819 136.185 327.848 136.278 327.875 136.37C328.047 136.915 328.064 137.495 327.922 138.048C327.673 138.953 326.957 139.65 326.325 140.356C325.81 140.908 325.443 141.579 325.258 142.307L325.255 142.323C325.22 142.492 325.214 142.666 325.236 142.837C325.239 142.859 325.241 142.88 325.246 142.901C325.254 142.939 325.265 142.977 325.278 143.014C325.288 143.04 325.299 143.066 325.312 143.092C325.325 143.122 325.34 143.151 325.357 143.179C325.388 143.226 325.425 143.269 325.466 143.307C325.486 143.323 325.506 143.338 325.527 143.351C325.562 143.377 325.599 143.399 325.638 143.419C325.662 143.43 325.686 143.441 325.712 143.451C325.769 143.472 325.829 143.488 325.889 143.498C325.906 143.501 325.92 143.507 325.938 143.509C326.03 143.521 326.123 143.525 326.216 143.521C326.243 143.52 326.272 143.517 326.3 143.515C326.389 143.508 326.478 143.497 326.566 143.482C326.598 143.476 326.63 143.471 326.663 143.464C326.791 143.438 326.925 143.406 327.072 143.361C327.557 143.217 328.03 143.032 328.484 142.81C328.484 142.862 328.48 142.912 328.48 142.964C328.48 143.052 328.48 143.145 328.489 143.233C328.513 144.883 328.829 146.517 329.423 148.06C330.35 150.464 331.905 152.584 333.932 154.204C333.907 154.349 333.879 154.495 333.849 154.642C333.432 156.66 332.561 158.684 332.023 158.528C331.497 158.412 330.959 158.354 330.42 158.354C330.257 158.35 330.099 158.348 329.948 158.347L329.948 158.346C329.46 158.29 328.966 158.29 328.478 158.346C328.26 158.361 328.041 158.331 327.835 158.259C326.438 157.824 324.953 157.742 323.515 158.02C320.525 158.624 315.978 159.729 314.731 161.052C312.829 163.072 310.062 165.007 306.949 173.422C306.949 173.422 305.393 178.555 304.182 179.228C304.449 179.092 304.723 178.971 305.004 178.864C304.843 179.142 304.621 179.382 304.355 179.565C304.794 179.344 305.249 179.157 305.717 179.005C304.772 184.488 306.171 200.17 306.171 200.17C306.171 200.17 305.047 202.874 306.517 204.473C307.39 205.423 307.865 206.905 308.108 207.954C308.04 208.059 307.969 208.167 307.895 208.28V208.282C307.117 209.472 306.076 211.023 305.393 211.878C304.182 213.393 304.528 218.189 304.528 218.189C304.528 218.189 304.269 220.461 303.404 221.303C302.54 222.144 302.713 225.258 302.713 225.258L300.465 233.42C300.465 233.42 298.389 235.272 298.389 236.113C298.389 236.955 296.747 239.311 296.747 239.311C296.747 239.311 294.239 243.35 296.747 242.761C297.661 242.497 298.518 242.072 299.278 241.505L299.277 241.566C299.273 241.714 299.27 241.864 299.268 242.017C299.197 246.416 299.683 252.606 302.972 252.606C308.073 252.606 321.215 258.581 321.215 258.581C323.896 260.601 327.527 259.927 327.527 259.927C327.527 259.927 321.129 266.238 321.302 268.847C321.475 271.456 317.67 275.747 317.67 275.747L305.912 298.383C305.977 299.961 306.261 301.521 306.754 303.023C306.699 303.071 306.641 303.117 306.586 303.166C302.068 307.238 301.675 315.297 301.675 315.297L300.637 319.421L316.373 326.237C316.373 326.237 336.778 326.657 340.323 325.732C343.868 324.806 343.09 320.935 338.421 320.178C333.752 319.42 332.628 317.401 331.072 316.475C330.022 315.851 326.294 311.815 323.98 309.257C323.945 309.218 323.913 309.182 323.878 309.144L324.414 306.209C325.452 305.704 327.008 300.655 327.008 300.655C327.008 300.655 327.008 298.636 328.046 298.047C329.083 297.458 331.245 291.399 331.245 291.399C331.245 291.399 335.914 283.741 335.654 282.732C335.395 281.722 339.026 276.589 339.026 276.589C339.026 276.589 345.165 270.698 344.906 269.646C344.646 268.595 349.834 263.209 349.834 263.209C351.708 261.798 353.271 260.023 354.425 257.995C354.892 257.921 355.394 257.842 355.923 257.755C362.712 256.657 373.993 254.673 375.254 254.121C376.983 253.364 376.637 256.73 375.945 259.591C375.254 262.452 374.735 276.168 375.513 277.935C376.291 279.702 375.945 282.563 375.945 282.563L374.908 297.963L375.6 301.244C375.6 301.244 373.265 303.096 374.216 304.19C375.167 305.283 374.303 309.996 374.303 309.996C374.384 309.966 374.481 309.937 374.59 309.908C374.507 310.093 374.427 310.283 374.356 310.482C373.016 314.25 373.784 320.43 373.784 320.43V325.311C373.784 325.311 397.734 325.732 403.008 325.732C408.282 325.732 415.545 323.207 415.977 321.188C416.409 319.168 409.925 317.485 407.504 317.401ZM339.386 229.798L337.817 229.928C338.337 229.854 338.861 229.81 339.386 229.798ZM348.951 165.208C349.17 164.235 349.437 163.188 349.731 162.114L348.951 165.208ZM351.909 232.158C350.413 232.742 348.748 232.744 347.251 232.163L347.24 232.158C347.24 232.158 347.327 226.268 348.018 223.827C348.71 221.387 349.661 216.927 349.661 216.927C349.661 216.927 350.439 210.784 351.217 208.007C351.996 205.23 355.022 189.747 356.578 188.737C358.134 187.727 358.999 189.495 358.999 189.495C358.999 189.495 359.232 189.49 359.621 189.447C359.694 189.609 359.777 189.78 359.869 189.962C361.714 193.64 367.126 201.191 367.126 201.191C368.732 202.168 370.092 203.492 371.104 205.062C372.573 207.502 373.006 213.225 373.006 213.225C373.006 213.225 376.291 225.931 377.848 227.698C378.626 228.582 378.28 229.109 377.74 229.413C376.638 230.008 375.701 230.862 375.012 231.899C374.79 232.246 374.556 232.626 374.318 233.032C373.723 232.896 373.19 232.755 372.746 232.607C368.51 231.204 354.244 231.148 351.909 232.158Z" fill="url(#paint0_linear)"/>
<path d="M373.217 320.48V325.32C373.217 325.32 396.652 325.737 401.813 325.737C406.974 325.737 414.08 323.233 414.503 321.231C414.926 319.228 408.581 317.559 406.212 317.476C403.843 317.392 403.759 316.474 400.713 314.889C398.994 313.994 396.383 311.396 394.437 309.305C392.936 307.691 391.83 306.378 391.83 306.378C391.83 306.378 379.224 306.127 375.586 308.13C374.748 308.592 374.169 309.497 373.777 310.615C372.465 314.352 373.217 320.48 373.217 320.48Z" fill="#434175"/>
<path opacity="0.1" d="M373.777 310.615C376.42 309.709 391.894 309.357 394.437 309.305C392.936 307.691 391.829 306.378 391.829 306.378C391.829 306.378 379.223 306.127 375.585 308.13C374.748 308.592 374.169 309.497 373.777 310.615Z" fill="black"/>
<path d="M305.788 233.447C305.788 233.447 306.277 233.739 307.155 234.261C307.314 234.355 307.485 234.458 307.667 234.567C308.224 234.899 308.893 235.294 309.656 235.748C320.289 242.068 349.294 259.201 350.882 259.064C351.298 259.029 352.548 258.844 354.274 258.567C354.731 258.494 355.222 258.415 355.739 258.328C362.383 257.24 373.422 255.273 374.655 254.725C376.347 253.974 376.009 257.312 375.332 260.149C374.655 262.986 374.148 276.588 374.909 278.34C375.671 280.092 375.332 282.93 375.332 282.93L374.317 298.2L374.994 301.454C374.994 301.454 372.709 303.29 373.64 304.375C374.571 305.46 373.725 310.132 373.725 310.132C376.432 309.131 394.791 308.797 394.791 308.797C394.791 308.797 394.03 302.122 394.706 300.536C395.383 298.951 394.876 289.522 394.876 289.522C394.876 289.522 395.299 282.345 394.537 280.677C393.776 279.008 394.791 268.327 394.791 268.327C394.791 268.327 395.468 261.985 395.637 249.051C395.806 236.117 388.192 235.7 388.192 235.7C388.192 235.7 387.177 235.621 385.635 235.475C382.62 235.189 377.594 234.643 374.237 233.924C373.549 233.784 372.87 233.606 372.202 233.392C368.056 232 354.096 231.945 351.812 232.946C350.35 233.525 348.717 233.527 347.254 232.951L347.244 232.946L345.467 230.109L328.497 231.536L326.698 231.688L309.992 233.093L308.844 233.19L305.788 233.447Z" fill="#565387"/>
<path opacity="0.1" d="M373.809 246.247C378.738 248.617 383.442 240.216 385.635 235.475C382.619 235.189 377.594 234.644 374.237 233.924C372.029 237.579 369.083 243.976 373.809 246.247Z" fill="black"/>
<path d="M359.003 189.472C359.106 190.045 359.308 190.597 359.6 191.104C361.406 194.75 366.702 202.239 366.702 202.239C368.277 203.211 369.608 204.523 370.594 206.077C372.032 208.497 372.455 214.171 372.455 214.171C372.455 214.171 375.67 226.771 377.193 228.524C377.954 229.4 377.616 229.922 377.088 230.224C376.006 230.817 375.089 231.664 374.418 232.689C372.2 236.207 368.658 243.185 373.64 245.58C380.408 248.834 386.753 231.778 386.753 231.778C386.753 231.778 385.484 219.679 385.146 217.592C384.807 215.506 382.777 206.912 382.777 206.912C382.777 206.912 381.339 203.24 380.492 200.653C379.646 198.066 377.108 195.062 377.108 195.062C377.108 195.062 372.54 186.05 371.271 184.715C370.682 184.096 369.856 183.315 369.14 182.656C368.313 181.893 367.633 181.294 367.633 181.294C367.633 181.294 358.918 187.469 359.003 189.472Z" fill="#EE8E9E"/>
<path d="M301.641 319.478L317.039 326.237C317.039 326.237 337.006 326.655 340.475 325.737C343.943 324.819 343.182 320.98 338.613 320.229C334.045 319.478 332.945 317.476 331.422 316.558C330.395 315.939 326.747 311.937 324.483 309.4C323.393 308.178 322.623 307.295 322.623 307.295C322.623 307.295 319.662 299.535 311.455 301.287C309.958 301.607 308.577 302.323 307.462 303.36C303.041 307.397 302.657 315.39 302.657 315.39L301.641 319.478Z" fill="#434175"/>
<path opacity="0.1" d="M307.667 234.567C308.224 234.899 308.893 235.294 309.656 235.748C320.289 242.068 349.294 259.201 350.882 259.064C351.298 259.029 352.548 258.844 354.274 258.567C354.731 258.494 355.222 258.415 355.739 258.328C355.76 258.297 355.778 258.265 355.797 258.233C356.649 256.766 357.301 255.193 357.734 253.557C359.511 246.881 350.712 241.791 350.712 241.791L348.851 240.364C346.736 236.851 331.507 233.53 331.507 233.53L329.544 232.23L328.497 231.536L328.221 231.354L325.839 229.775L313.91 230.61L310.366 232.856L309.992 233.093L308.678 233.928L307.667 234.567Z" fill="black"/>
<path opacity="0.1" d="M307.462 303.36C310.701 314.408 324.231 310.8 324.231 310.8L324.483 309.4C323.393 308.178 322.623 307.295 322.623 307.295C322.623 307.295 319.662 299.535 311.456 301.287C309.958 301.607 308.577 302.323 307.462 303.36Z" fill="black"/>
<path d="M303.926 253.223C308.918 253.223 321.777 259.148 321.777 259.148C324.4 261.15 327.953 260.483 327.953 260.483C327.953 260.483 321.693 266.741 321.862 269.328C322.031 271.915 318.309 276.17 318.309 276.17L306.803 298.617C307.649 314.555 324.231 310.132 324.231 310.132L324.908 306.377C325.923 305.877 327.446 300.87 327.446 300.87C327.446 300.87 327.446 298.867 328.461 298.283C329.476 297.699 331.591 291.691 331.591 291.691C331.591 291.691 336.16 284.098 335.906 283.096C335.652 282.095 339.206 277.005 339.206 277.005C339.206 277.005 345.213 271.164 344.959 270.121C344.705 269.078 349.781 263.737 349.781 263.737C351.62 262.333 353.149 260.574 354.274 258.567C355.126 257.099 355.777 255.527 356.211 253.891C357.643 248.515 352.215 244.166 350.047 242.679C349.522 242.319 349.189 242.125 349.189 242.125L347.328 240.698C346.367 239.099 342.692 237.542 338.971 236.319C336.287 235.436 333.578 234.727 331.847 234.301C330.701 234.021 329.984 233.864 329.984 233.864L328.021 232.564L327.331 232.107L326.698 231.688L324.316 230.109L319.008 230.48L312.386 230.944L308.843 233.19L307.155 234.261L300.542 238.454C300.542 238.454 300.368 240.059 300.312 242.214C300.308 242.38 300.305 242.549 300.302 242.723C300.232 247.085 300.708 253.223 303.926 253.223Z" fill="#565387"/>
<path d="M329.392 159.765L331.169 166.024C331.169 166.024 334.299 176.788 334.637 177.539C334.976 178.29 343.182 185.884 343.521 186.05C343.859 186.217 348.328 188.721 348.328 188.721C348.328 188.721 348.682 174.952 348.343 170.947C348.314 170.067 348.388 169.187 348.563 168.323C349.103 165.184 350.468 160.581 351.6 157.037C352.548 154.066 353.335 151.838 353.335 151.838C353.335 151.838 333.537 151.004 334.214 152.923C334.47 153.649 334.387 154.862 334.14 156.079C333.732 158.08 332.879 160.087 332.353 159.932C331.838 159.818 331.312 159.76 330.784 159.76C330.053 159.739 329.392 159.765 329.392 159.765Z" fill="#EE8E9E"/>
<path opacity="0.1" d="M334.14 156.079C336.559 158.07 339.564 159.238 342.709 159.411C345.855 159.584 348.973 158.751 351.6 157.037C352.548 154.066 353.335 151.838 353.335 151.838C353.335 151.838 333.538 151.004 334.214 152.923C334.47 153.649 334.387 154.862 334.14 156.079Z" fill="black"/>
<path d="M358.159 144.498C358.16 146.029 357.913 147.551 357.427 149.005C357.305 149.38 357.164 149.749 357.004 150.111C355.864 152.773 353.941 155.037 351.482 156.609C349.024 158.181 346.144 158.989 343.214 158.929C340.285 158.869 337.441 157.943 335.051 156.271C332.661 154.599 330.835 152.258 329.809 149.552C329.228 148.02 328.918 146.401 328.895 144.765C328.886 144.678 328.886 144.586 328.886 144.498C328.886 140.67 330.429 136.998 333.173 134.291C335.918 131.583 339.641 130.062 343.523 130.062C347.405 130.062 351.127 131.583 353.872 134.291C356.617 136.998 358.159 140.67 358.159 144.498H358.159Z" fill="#EE8E9E"/>
<path opacity="0.1" d="M329.392 159.765L331.169 166.024C331.169 166.024 334.299 176.788 334.637 177.539C334.976 178.29 343.182 185.884 343.521 186.05C343.859 186.217 348.328 188.721 348.328 188.721C348.328 188.721 348.682 174.952 348.343 170.947C348.314 170.067 348.388 169.187 348.563 168.323L347.412 172.95L347.497 182.212L348.174 182.713L346.651 184.966V183.297C346.651 183.297 341.236 178.123 340.39 175.954C339.544 173.784 336.499 169.855 336.499 169.855C336.499 169.855 333.03 164.104 332.945 163.103C332.879 162.322 331.422 160.516 330.784 159.76C330.053 159.739 329.392 159.765 329.392 159.765Z" fill="black"/>
<path opacity="0.1" d="M359.003 189.472C359.106 190.045 359.308 190.597 359.6 191.104C361.45 190.917 367.753 189.757 369.14 182.656C368.313 181.893 367.633 181.294 367.633 181.294C367.633 181.294 358.918 187.469 359.003 189.472Z" fill="black"/>
<path opacity="0.1" d="M300.302 242.723C302.009 241.531 303.633 239.906 304.603 239.455C306.041 238.787 308.241 236.618 308.241 236.618C308.241 236.618 308.799 236.244 309.655 235.748C311.226 234.84 313.799 233.525 315.771 233.363C317.537 233.218 323.405 232.848 328.021 232.564C331.361 232.357 334.045 232.195 334.045 232.195C334.045 232.195 339.544 230.276 341.913 231.528C343.61 232.366 345.398 233.01 347.243 233.447C347.243 233.447 347.245 233.265 347.253 232.951L347.243 232.946L345.467 230.109L326.698 231.688L324.316 230.109L312.386 230.944L308.843 233.19L305.787 233.447C305.787 233.447 306.276 233.739 307.154 234.261L300.542 238.454C300.542 238.454 300.339 240.318 300.302 242.723Z" fill="black"/>
<path d="M297.835 243.46C298.73 243.198 299.57 242.776 300.312 242.215V242.214C302.016 241.024 303.635 239.403 304.603 238.954C306.041 238.287 308.241 236.117 308.241 236.117C308.241 236.117 312.725 233.113 315.771 232.863C316.601 232.794 318.338 232.676 320.424 232.542C322.559 232.402 325.058 232.245 327.331 232.107C328.641 232.025 329.874 231.948 330.916 231.885C332.785 231.771 334.045 231.695 334.045 231.695C334.045 231.695 339.544 229.775 341.913 231.027C343.61 231.865 345.398 232.509 347.243 232.946C347.243 232.946 347.328 227.105 348.005 224.685C348.682 222.265 349.612 217.843 349.612 217.843C349.612 217.843 350.374 211.751 351.135 208.998C351.897 206.244 354.858 190.89 356.381 189.889C357.903 188.887 358.749 190.64 358.749 190.64C358.749 190.64 368.902 190.473 369.071 179.458C369.071 179.458 364.333 174.785 363.995 173.617C363.657 172.449 359.173 168.11 359.173 168.11C359.173 168.11 356.634 163.437 353.758 163.353C352.399 163.276 351.035 163.318 349.683 163.477L347.243 173.283L347.328 182.546L348.005 183.046L346.482 185.299V183.63C346.482 183.63 341.067 178.457 340.221 176.287C339.375 174.118 336.329 170.189 336.329 170.189C336.329 170.189 332.861 164.438 332.776 163.437C332.691 162.436 330.323 159.752 330.323 159.752C329.845 159.697 329.362 159.697 328.884 159.752C328.671 159.767 328.456 159.737 328.255 159.665C326.889 159.235 325.435 159.153 324.028 159.428C321.102 160.027 316.652 161.124 315.432 162.436C313.571 164.438 310.864 166.357 307.818 174.702L324.231 180.543L322.827 183.176L309.764 207.662C309.764 207.662 309.331 208.358 308.743 209.268V209.27C307.982 210.45 306.963 211.988 306.295 212.836C305.111 214.338 305.449 219.094 305.449 219.094C305.449 219.094 305.195 221.347 304.349 222.182C303.503 223.016 303.672 226.104 303.672 226.104L301.473 234.198C301.473 234.198 299.442 236.034 299.442 236.868C299.442 237.703 297.835 240.039 297.835 240.039C297.835 240.039 295.381 244.044 297.835 243.46Z" fill="#434175"/>
<path opacity="0.1" d="M384.469 249.468C384.469 249.468 379.139 251.221 377.7 253.724C376.262 256.227 384.469 249.468 384.469 249.468Z" fill="black"/>
<path opacity="0.1" d="M381.762 243.961C381.592 244.211 374.461 251.269 374.909 252.973C375.356 254.677 381.762 243.961 381.762 243.961Z" fill="black"/>
<path opacity="0.1" d="M342.59 248.968C342.59 248.968 334.637 252.667 333.96 254.28C333.284 255.893 342.59 248.968 342.59 248.968Z" fill="black"/>
<path opacity="0.1" d="M342.083 253.724C342.083 253.724 334.905 256.728 333.925 257.479C332.945 258.23 342.083 253.724 342.083 253.724Z" fill="black"/>
<path opacity="0.1" d="M338.783 260.149C338.783 260.149 335.604 262.486 333.852 260.65C332.099 258.814 338.783 260.149 338.783 260.149Z" fill="black"/>
<path opacity="0.1" d="M350.713 199.235C350.543 199.485 339.967 218.26 337.175 219.679C334.383 221.097 350.713 199.235 350.713 199.235Z" fill="black"/>
<path opacity="0.1" d="M350.204 206.327C350.204 206.745 339.883 228.524 338.191 228.774C336.499 229.024 350.204 206.327 350.204 206.327Z" fill="black"/>
<path opacity="0.1" d="M310.948 220.346C310.948 220.346 305.963 230.846 304.011 231.444C302.058 232.043 310.948 220.346 310.948 220.346Z" fill="black"/>
<path opacity="0.1" d="M310.102 215.673C310.102 215.673 308.384 219.345 307.339 219.345C306.295 219.345 310.102 215.673 310.102 215.673Z" fill="black"/>
<path opacity="0.1" d="M358.159 144.498C358.16 146.029 357.913 147.551 357.427 149.005C357.305 149.38 357.164 149.749 357.004 150.111C356.252 149.998 355.544 149.692 354.952 149.222C354.324 148.802 353.799 148.249 353.416 147.603C353.128 146.915 352.878 146.211 352.667 145.496C352.33 144.688 351.78 143.984 351.074 143.457C350.368 142.929 349.532 142.597 348.652 142.495C349.139 143.313 348.365 144.436 347.413 144.582C346.461 144.724 345.534 144.164 344.879 143.468C344.223 142.771 343.749 141.924 343.097 141.227C342.442 140.53 341.515 139.971 340.563 140.113C339.721 140.238 339.07 140.872 338.363 141.344C337.661 141.815 336.675 142.132 335.994 141.627C335.613 141.348 335.427 140.872 335.063 140.568C334.128 139.796 332.673 140.593 331.983 141.59C330.921 143.134 330.274 144.068 328.895 144.765C328.886 144.678 328.886 144.586 328.886 144.498C328.886 140.67 330.428 136.998 333.173 134.291C335.918 131.583 339.641 130.062 343.523 130.062C347.404 130.062 351.127 131.583 353.872 134.291C356.617 136.998 358.159 140.67 358.159 144.498Z" fill="black"/>
<path d="M331.985 141.172C332.673 140.174 334.127 139.376 335.065 140.152C335.429 140.453 335.615 140.929 335.994 141.211C336.674 141.717 337.661 141.4 338.365 140.926C339.068 140.453 339.721 139.822 340.563 139.696C341.515 139.553 342.443 140.112 343.097 140.81C343.75 141.507 344.224 142.353 344.878 143.051C345.533 143.748 346.461 144.307 347.413 144.163C348.365 144.02 349.141 142.896 348.652 142.078C349.531 142.18 350.367 142.512 351.072 143.04C351.778 143.567 352.328 144.271 352.666 145.078C352.876 145.793 353.126 146.497 353.415 147.185C353.798 147.831 354.324 148.384 354.953 148.803C355.729 149.364 356.67 149.837 357.618 149.674C358.567 149.512 359.369 148.44 358.929 147.596C359.232 148.05 359.882 147.417 359.981 146.883C360.195 145.71 360.128 144.503 359.785 143.361C359.318 141.81 358.337 140.271 358.715 138.697C359.014 137.45 360.094 136.555 360.75 135.449C361.912 133.489 361.604 130.848 360.19 129.055C359.455 128.176 358.521 127.48 357.463 127.023C356.406 126.565 355.254 126.36 354.1 126.422C353.465 126.494 352.824 126.506 352.186 126.457C351.123 126.302 350.225 125.627 349.379 124.976L342.292 119.52C341.504 118.834 340.596 118.295 339.613 117.928C338.612 117.622 337.412 117.727 336.67 118.459C335.343 119.767 336.187 122.02 335.654 123.794C335.193 125.331 333.707 126.373 332.17 126.892C330.632 127.411 328.987 127.525 327.407 127.901C326.936 127.978 326.495 128.18 326.132 128.486C325.723 128.985 325.524 129.621 325.579 130.26C325.569 131.83 325.946 133.379 326.679 134.773C327.499 136.329 328.8 137.929 328.34 139.624C328.096 140.521 327.395 141.212 326.778 141.913C325.439 143.432 324.987 145.677 327.506 144.893C329.934 144.137 330.615 143.158 331.985 141.172Z" fill="#434175"/>
<g opacity="0.1">
<path opacity="0.1" d="M359.982 145.237C359.884 145.772 359.233 146.405 358.93 145.951C359.371 146.795 358.568 147.866 357.62 148.029C356.671 148.192 355.731 147.719 354.954 147.157C354.325 146.739 353.8 146.186 353.416 145.54C353.128 144.852 352.877 144.148 352.667 143.433C352.329 142.626 351.779 141.922 351.074 141.394C350.368 140.867 349.532 140.535 348.653 140.433C349.142 141.251 348.366 142.375 347.414 142.518C346.462 142.662 345.534 142.103 344.88 141.405C344.226 140.708 343.752 139.862 343.098 139.165C342.444 138.467 341.516 137.907 340.564 138.05C339.723 138.177 339.069 138.808 338.366 139.281C337.663 139.755 336.676 140.072 335.996 139.566C335.616 139.284 335.431 138.808 335.067 138.507C334.129 137.731 332.675 138.529 331.986 139.527C330.616 141.513 329.935 142.492 327.508 143.247C326.711 143.495 326.213 143.439 325.945 143.2C325.412 144.407 325.654 145.469 327.508 144.893C329.935 144.137 330.616 143.158 331.986 141.172C332.675 140.174 334.129 139.376 335.067 140.152C335.431 140.453 335.616 140.929 335.996 141.211C336.676 141.717 337.663 141.4 338.366 140.926C339.069 140.453 339.723 139.822 340.564 139.696C341.516 139.553 342.444 140.112 343.098 140.81C343.752 141.507 344.226 142.353 344.88 143.051C345.534 143.748 346.462 144.307 347.414 144.163C348.366 144.02 349.142 142.896 348.653 142.078C349.532 142.18 350.368 142.512 351.074 143.04C351.779 143.567 352.329 144.271 352.667 145.078C352.877 145.793 353.128 146.497 353.416 147.185C353.8 147.831 354.325 148.384 354.954 148.803C355.731 149.364 356.671 149.837 357.62 149.674C358.568 149.512 359.371 148.44 358.93 147.596C359.233 148.05 359.884 147.417 359.982 146.883C360.114 146.162 360.139 145.427 360.058 144.7C360.039 144.88 360.015 145.059 359.982 145.237Z" fill="black"/>
<path opacity="0.1" d="M328.319 138.042C328.326 138.021 328.335 138.001 328.341 137.979C328.801 136.284 327.501 134.684 326.68 133.128C326.105 132.03 325.748 130.834 325.629 129.603C325.597 129.821 325.581 130.041 325.58 130.26C325.57 131.83 325.947 133.379 326.68 134.773C327.241 135.837 328.026 136.921 328.319 138.042Z" fill="black"/>
<path opacity="0.1" d="M360.751 133.804C360.095 134.91 359.015 135.805 358.716 137.052C358.6 137.579 358.605 138.125 358.731 138.651C359.046 137.429 360.104 136.541 360.751 135.449C361.362 134.38 361.591 133.139 361.403 131.926C361.311 132.588 361.089 133.225 360.751 133.804Z" fill="black"/>
</g>
<path opacity="0.1" d="M308.743 209.268V209.27C308.856 209.73 308.942 210.196 309.002 210.666C309.002 210.666 315.686 226.104 316.532 227.022C316.793 227.304 317.774 228.692 319.008 230.48C319.454 231.125 319.933 231.825 320.424 232.542C322.982 236.287 325.838 240.54 325.838 240.54L332.099 245.964C332.099 245.964 345.719 247.038 350.047 242.679C349.522 242.319 349.189 242.125 349.189 242.125L347.328 240.698C346.367 239.099 342.692 237.542 338.971 236.319C335.543 236.344 332.739 236.618 332.739 236.618L331.847 234.301L330.916 231.885L326.184 219.595C326.184 219.595 323.131 204.074 322.116 203.323C321.101 202.572 321.354 200.236 321.354 200.236C321.354 200.236 323.216 193.644 322.539 192.726C321.862 191.808 323.639 185.049 323.639 185.049C323.462 184.389 323.188 183.758 322.827 183.177L309.764 207.662C309.764 207.662 309.331 208.358 308.743 209.268Z" fill="black"/>
<path d="M323.808 184.548C323.808 184.548 322.031 191.307 322.708 192.225C323.385 193.143 321.524 199.735 321.524 199.735C321.524 199.735 321.27 202.072 322.285 202.823C323.3 203.574 326.353 219.094 326.353 219.094L332.908 236.117C332.908 236.117 353.419 234.114 351.304 240.456C349.189 246.798 332.268 245.463 332.268 245.463L326.008 240.039C326.008 240.039 317.547 227.439 316.701 226.521C315.855 225.603 309.172 210.166 309.172 210.166C309.172 210.166 308.833 207.078 307.395 205.493C305.957 203.908 307.056 201.226 307.056 201.226C307.056 201.226 305.28 181.044 307.141 178.624C309.002 176.204 321.862 177.289 323.808 184.548Z" fill="#EE8E9E"/>
<path opacity="0.1" d="M313.317 171.865L307.987 175.036C307.987 175.036 306.464 180.126 305.28 180.793C305.28 180.793 315.94 174.952 323.977 188.387C323.977 188.387 323.723 186.635 324.823 185.8C325.923 184.966 325.669 181.377 325.669 181.377C325.962 180.811 326.216 180.225 326.431 179.625C327.192 177.789 323.216 167.275 313.317 171.865Z" fill="black"/>
<path d="M313.148 171.531L307.818 174.702C307.818 174.702 306.295 179.792 305.11 180.46C305.11 180.46 315.771 174.619 323.808 188.053C323.808 188.053 323.554 186.301 324.654 185.466C325.754 184.632 325.5 181.044 325.5 181.044C325.793 180.477 326.047 179.891 326.261 179.291C327.023 177.456 323.046 166.942 313.148 171.531Z" fill="#434175"/>
<path d="M265.641 317.665C274.417 317.665 281.531 310.217 281.531 301.03C281.531 291.843 274.417 284.395 265.641 284.395C256.866 284.395 249.752 291.843 249.752 301.03C249.752 310.217 256.866 317.665 265.641 317.665Z" fill="#FBD56F"/>
<path opacity="0.1" d="M265.641 317.665C274.417 317.665 281.531 310.217 281.531 301.03C281.531 291.843 274.417 284.395 265.641 284.395C256.866 284.395 249.752 291.843 249.752 301.03C249.752 310.217 256.866 317.665 265.641 317.665Z" fill="black"/>
<path d="M268.383 317.665C277.159 317.665 284.273 310.383 284.273 301.4C284.273 292.418 277.159 285.136 268.383 285.136C259.608 285.136 252.494 292.418 252.494 301.4C252.494 310.383 259.608 317.665 268.383 317.665Z" fill="#FBD56F"/>
<path d="M38.1374 310.171C48.9758 310.171 57.7621 308.706 57.7621 306.899C57.7621 305.092 48.9758 303.627 38.1374 303.627C27.299 303.627 18.5127 305.092 18.5127 306.899C18.5127 308.706 27.299 310.171 38.1374 310.171Z" fill="#297CE0"/>
<path d="M46.252 301.546C47.0924 300.776 47.8808 299.867 48.123 298.761C48.3652 297.655 47.8872 296.329 46.8156 295.925C45.6149 295.472 44.3317 296.293 43.3589 297.122C42.3861 297.95 41.2712 298.897 39.998 298.721C40.6529 298.136 41.1429 297.393 41.4202 296.565C41.6975 295.737 41.7527 294.853 41.5804 293.998C41.5245 293.645 41.3724 293.313 41.1403 293.039C40.4738 292.336 39.2654 292.638 38.4673 293.191C35.9292 294.952 35.221 298.353 35.2072 301.413C34.9512 300.309 35.1668 299.159 35.1605 298.026C35.1542 296.894 34.8395 295.639 33.8709 295.03C33.2676 294.71 32.589 294.553 31.9042 294.574C30.7632 294.533 29.4925 294.646 28.7134 295.469C27.7453 296.492 27.9963 298.207 28.8386 299.333C29.6808 300.459 30.9619 301.164 32.1411 301.942C33.087 302.498 33.8937 303.257 34.5012 304.162C34.5726 304.288 34.6312 304.421 34.6762 304.559H41.8287C43.4343 303.756 44.9223 302.743 46.252 301.546Z" fill="#297CE0"/>
<path d="M215.609 285.563C216.483 286.743 217.198 288.031 217.736 289.393C217.878 289.746 218.017 290.116 218.149 290.504C220.263 296.736 216.913 304.21 215.955 303.404C214.997 302.597 212.013 301.102 211.436 303.204C210.859 305.305 208.727 307.454 208.727 307.454C204.843 311.307 201.327 307.144 199.02 302.843C198.266 301.423 197.595 299.963 197.012 298.467C196.5 297.146 196.205 296.233 196.205 296.233L212.382 282.639C212.382 282.639 213.946 283.347 215.609 285.563Z" fill="#297CE0"/>
<path d="M190.113 294.255C190.987 295.436 191.702 296.724 192.24 298.086C192.382 298.439 192.521 298.809 192.653 299.197C194.767 305.429 191.417 312.902 190.459 312.096C189.502 311.29 186.517 309.794 185.94 311.896C185.363 313.998 183.231 316.146 183.231 316.146C179.347 319.999 175.831 315.836 173.524 311.535C172.77 310.116 172.099 308.655 171.516 307.16C171.004 305.839 170.709 304.926 170.709 304.926L186.887 291.332C186.887 291.332 188.45 292.04 190.113 294.255Z" fill="#297CE0"/>
<path d="M138.919 306.265C138.828 307.724 138.545 309.165 138.078 310.553C137.959 310.913 137.827 311.286 137.677 311.668C135.272 317.796 127.857 321.441 127.641 320.218C127.425 318.994 126.096 315.964 124.291 317.219C122.487 318.474 119.456 318.786 119.456 318.786C113.972 319.308 113.959 313.89 114.966 309.126C115.304 307.559 115.733 306.012 116.251 304.494C116.712 303.154 117.076 302.266 117.076 302.266L138.327 301.983C138.327 301.983 139.072 303.512 138.919 306.265Z" fill="#297CE0"/>
<path d="M111.462 299.435C111.371 300.894 111.088 302.335 110.621 303.723C110.502 304.083 110.37 304.456 110.22 304.838C107.815 310.966 100.4 314.611 100.184 313.388C99.9687 312.164 98.6388 309.134 96.8345 310.389C95.0302 311.644 91.9989 311.956 91.9989 311.956C86.5157 312.478 86.5027 307.06 87.5092 302.296C87.847 300.729 88.2762 299.182 88.7946 297.664C89.2549 296.324 89.619 295.436 89.619 295.436L110.87 295.153C110.87 295.153 111.616 296.682 111.462 299.435Z" fill="#297CE0"/>
<path opacity="0.2" d="M215.609 285.563C216.483 286.743 217.198 288.031 217.736 289.393C217.878 289.746 218.017 290.116 218.149 290.504C220.263 296.736 216.913 304.21 215.955 303.404C214.997 302.597 212.013 301.102 211.436 303.204C210.859 305.305 208.727 307.454 208.727 307.454C204.843 311.307 201.327 307.144 199.02 302.843C198.266 301.423 197.595 299.963 197.012 298.467C196.5 297.146 196.205 296.233 196.205 296.233L212.382 282.639C212.382 282.639 213.946 283.347 215.609 285.563Z" fill="black"/>
<path opacity="0.2" d="M190.113 294.255C190.987 295.436 191.702 296.724 192.24 298.086C192.382 298.439 192.521 298.809 192.653 299.197C194.767 305.429 191.417 312.902 190.459 312.096C189.502 311.29 186.517 309.794 185.94 311.896C185.363 313.998 183.231 316.146 183.231 316.146C179.347 319.999 175.831 315.836 173.524 311.535C172.77 310.116 172.099 308.655 171.516 307.16C171.004 305.839 170.709 304.926 170.709 304.926L186.887 291.332C186.887 291.332 188.45 292.04 190.113 294.255Z" fill="black"/>
<path opacity="0.2" d="M138.919 306.265C138.828 307.724 138.545 309.165 138.078 310.553C137.959 310.913 137.827 311.286 137.677 311.668C135.272 317.796 127.857 321.441 127.641 320.218C127.425 318.994 126.096 315.964 124.291 317.219C122.487 318.474 119.456 318.786 119.456 318.786C113.972 319.308 113.959 313.89 114.966 309.126C115.304 307.559 115.733 306.012 116.251 304.494C116.712 303.154 117.076 302.266 117.076 302.266L138.327 301.983C138.327 301.983 139.072 303.512 138.919 306.265Z" fill="black"/>
<path opacity="0.2" d="M111.462 299.435C111.371 300.894 111.088 302.335 110.621 303.723C110.502 304.083 110.37 304.456 110.22 304.838C107.815 310.966 100.4 314.611 100.184 313.388C99.9687 312.164 98.6388 309.134 96.8345 310.389C95.0302 311.644 91.9989 311.956 91.9989 311.956C86.5157 312.478 86.5027 307.06 87.5092 302.296C87.847 300.729 88.2762 299.182 88.7946 297.664C89.2549 296.324 89.619 295.436 89.619 295.436L110.87 295.153C110.87 295.153 111.616 296.682 111.462 299.435Z" fill="black"/>
<path d="M258.761 207.577C258.761 263.559 239.56 308.941 150.952 308.941C91.4113 308.941 45.3471 294.35 43.1438 207.577C41.7226 151.613 91.4112 106.213 150.952 106.213C210.493 106.213 258.761 151.595 258.761 207.577Z" fill="#297CE0"/>
<path opacity="0.2" d="M130.728 107.983H130.741C130.738 107.985 130.735 107.986 130.731 107.986L130.728 107.983Z" fill="black"/>
<path opacity="0.2" d="M130.939 107.949C131.213 107.905 131.754 107.831 132.541 107.772L130.788 107.977C130.813 107.971 130.845 107.964 130.883 107.958C130.901 107.955 130.917 107.952 130.939 107.949Z" fill="black"/>
<path opacity="0.2" d="M210.601 149.367L202.732 152.161C198.72 146.855 194.404 141.78 189.804 136.961C184.784 131.679 179.306 126.84 173.433 122.497C153.285 107.769 137.7 107.393 132.554 107.772L144.383 106.4C155.563 108.297 166.314 112.13 176.14 117.722C183.014 121.63 189.417 126.295 195.225 131.627C205.524 141.056 210.601 149.367 210.601 149.367Z" fill="black"/>
<path opacity="0.2" d="M139.463 154.644C139.463 154.644 129.076 120.494 137.889 111.181C137.889 111.181 151.739 106.524 162.126 132.913L139.463 154.644Z" fill="black"/>
<path d="M192.061 122.748C192.061 122.748 219.607 99.6605 231.793 103.885C231.793 103.885 241.676 114.529 221.337 134.502L192.061 122.748Z" fill="#297CE0"/>
<path opacity="0.2" d="M192.061 122.748C192.061 122.748 219.607 99.6605 231.793 103.885C231.793 103.885 241.676 114.529 221.337 134.502L192.061 122.748Z" fill="black"/>
<path d="M277.962 233.345C277.962 263.436 256.068 287.209 235.468 287.209C214.868 287.209 203.361 263.436 203.361 233.345C203.361 203.254 220.096 180.036 240.661 178.86C273.24 176.997 277.962 203.254 277.962 233.345Z" fill="#297CE0"/>
<path opacity="0.2" d="M277.962 233.345C277.962 263.436 256.068 287.209 235.468 287.209C214.868 287.209 203.361 263.436 203.361 233.345C203.361 203.254 220.096 180.036 240.661 178.86C273.24 176.997 277.962 203.254 277.962 233.345Z" fill="black"/>
<path d="M234.209 246.539C238.033 246.539 241.134 242.648 241.134 237.847C241.134 233.046 238.033 229.154 234.209 229.154C230.384 229.154 227.284 233.046 227.284 237.847C227.284 242.648 230.384 246.539 234.209 246.539Z" fill="#297CE0"/>
<path d="M258.761 239.089C262.585 239.089 265.686 235.197 265.686 230.396C265.686 225.595 262.585 221.703 258.761 221.703C254.936 221.703 251.836 225.595 251.836 230.396C251.836 235.197 254.936 239.089 258.761 239.089Z" fill="#297CE0"/>
<path d="M196.568 126.02C196.573 127.968 196.113 129.888 195.224 131.627C194.052 133.938 192.149 135.81 189.804 136.961C184.784 131.679 179.306 126.84 173.433 122.497C173.956 120.723 174.882 119.09 176.14 117.722C177.225 116.529 178.551 115.574 180.033 114.919C181.516 114.264 183.121 113.923 184.746 113.919C191.274 113.919 196.568 119.336 196.568 126.02Z" fill="#FAD46F"/>
</g>
<defs>
<linearGradient id="paint0_linear" x1="355.815" y1="326.332" x2="355.815" y2="116.006" gradientUnits="userSpaceOnUse">
<stop stop-color="#808080" stop-opacity="0.25"/>
<stop offset="0.53514" stop-color="#808080" stop-opacity="0.12"/>
<stop offset="1" stop-color="#808080" stop-opacity="0.1"/>
</linearGradient>
<clipPath id="clip0">
<rect width="473" height="335" fill="white"/>
</clipPath>
</defs>
</svg>
