<svg width="436" height="313" viewBox="0 0 436 313" fill="none" xmlns="http://www.w3.org/2000/svg">
<g clip-path="url(#clip0)">
<path d="M0 312.789H70.1318" stroke="#3F3D56" stroke-miterlimit="10"/>
<path d="M405.836 53.9083H110.858C106.332 53.9083 102.663 57.573 102.663 62.0936V256.288C102.663 260.808 106.332 264.473 110.858 264.473H405.836C410.362 264.473 414.031 260.808 414.031 256.288V62.0936C414.031 57.573 410.362 53.9083 405.836 53.9083Z" fill="#F2F2F2"/>
<path d="M396.33 40.6161H101.352C96.8261 40.6161 93.157 44.2808 93.157 48.8014V242.996C93.157 247.516 96.8261 251.181 101.352 251.181H396.33C400.856 251.181 404.525 247.516 404.525 242.996V48.8014C404.525 44.2808 400.856 40.6161 396.33 40.6161Z" stroke="#3F3D56" stroke-miterlimit="10"/>
<path d="M93.157 60.8033H404.525" stroke="#3F3D56" stroke-miterlimit="10"/>
<path opacity="0.3" d="M361.182 108.132H282.256C280.601 108.132 279.26 109.472 279.26 111.125V118.22C279.26 119.873 280.601 121.213 282.256 121.213H361.182C362.837 121.213 364.178 119.873 364.178 118.22V111.125C364.178 109.472 362.837 108.132 361.182 108.132Z" fill="#297CE0"/>
<path opacity="0.3" d="M377.447 144.422H265.991C264.336 144.422 262.994 145.762 262.994 147.414V151.978C262.994 153.631 264.336 154.971 265.991 154.971H377.447C379.102 154.971 380.444 153.631 380.444 151.978V147.414C380.444 145.762 379.102 144.422 377.447 144.422Z" fill="#297CE0"/>
<path opacity="0.3" d="M377.447 173.116H265.991C264.336 173.116 262.994 174.456 262.994 176.109V180.672C262.994 182.325 264.336 183.665 265.991 183.665H377.447C379.102 183.665 380.444 182.325 380.444 180.672V176.109C380.444 174.456 379.102 173.116 377.447 173.116Z" fill="#297CE0"/>
<path opacity="0.3" d="M377.447 201.81H265.991C264.336 201.81 262.994 203.15 262.994 204.803V209.366C262.994 211.019 264.336 212.359 265.991 212.359H377.447C379.102 212.359 380.444 211.019 380.444 209.366V204.803C380.444 203.15 379.102 201.81 377.447 201.81Z" fill="#297CE0"/>
<path d="M365.407 103.912H286.481C284.826 103.912 283.485 105.252 283.485 106.905V114C283.485 115.653 284.826 116.993 286.481 116.993H365.407C367.062 116.993 368.403 115.653 368.403 114V106.905C368.403 105.252 367.062 103.912 365.407 103.912Z" stroke="#3F3D56" stroke-miterlimit="10"/>
<path d="M381.672 140.202H270.215C268.561 140.202 267.219 141.542 267.219 143.195V147.758C267.219 149.411 268.561 150.751 270.215 150.751H381.672C383.327 150.751 384.669 149.411 384.669 147.758V143.195C384.669 141.542 383.327 140.202 381.672 140.202Z" stroke="#3F3D56" stroke-miterlimit="10"/>
<path d="M381.672 168.896H270.215C268.561 168.896 267.219 170.236 267.219 171.889V176.453C267.219 178.105 268.561 179.445 270.215 179.445H381.672C383.327 179.445 384.669 178.105 384.669 176.453V171.889C384.669 170.236 383.327 168.896 381.672 168.896Z" stroke="#3F3D56" stroke-miterlimit="10"/>
<path d="M381.672 197.59H270.215C268.561 197.59 267.219 198.93 267.219 200.583V205.147C267.219 206.8 268.561 208.14 270.215 208.14H381.672C383.327 208.14 384.669 206.8 384.669 205.147V200.583C384.669 198.93 383.327 197.59 381.672 197.59Z" stroke="#3F3D56" stroke-miterlimit="10"/>
<path opacity="0.3" d="M116.816 59.605C120.316 59.605 123.153 56.7711 123.153 53.2754C123.153 49.7797 120.316 46.9458 116.816 46.9458C113.316 46.9458 110.479 49.7797 110.479 53.2754C110.479 56.7711 113.316 59.605 116.816 59.605Z" fill="#297CE0"/>
<path opacity="0.3" d="M134.56 59.605C138.06 59.605 140.897 56.7711 140.897 53.2754C140.897 49.7797 138.06 46.9458 134.56 46.9458C131.06 46.9458 128.223 49.7797 128.223 53.2754C128.223 56.7711 131.06 59.605 134.56 59.605Z" fill="#297CE0"/>
<path opacity="0.3" d="M152.304 59.605C155.804 59.605 158.641 56.7711 158.641 53.2754C158.641 49.7797 155.804 46.9458 152.304 46.9458C148.804 46.9458 145.967 49.7797 145.967 53.2754C145.967 56.7711 148.804 59.605 152.304 59.605Z" fill="#297CE0"/>
<path d="M119.351 57.0731C122.851 57.0731 125.688 54.2393 125.688 50.7435C125.688 47.2478 122.851 44.4139 119.351 44.4139C115.851 44.4139 113.014 47.2478 113.014 50.7435C113.014 54.2393 115.851 57.0731 119.351 57.0731Z" stroke="#3F3D56" stroke-miterlimit="10"/>
<path d="M137.095 57.0731C140.595 57.0731 143.432 54.2393 143.432 50.7435C143.432 47.2478 140.595 44.4139 137.095 44.4139C133.595 44.4139 130.758 47.2478 130.758 50.7435C130.758 54.2393 133.595 57.0731 137.095 57.0731Z" stroke="#3F3D56" stroke-miterlimit="10"/>
<path d="M154.839 57.0731C158.339 57.0731 161.176 54.2393 161.176 50.7435C161.176 47.2478 158.339 44.4139 154.839 44.4139C151.339 44.4139 148.502 47.2478 148.502 50.7435C148.502 54.2393 151.339 57.0731 154.839 57.0731Z" stroke="#3F3D56" stroke-miterlimit="10"/>
<path d="M191.533 242.319C190.472 237.438 190.191 230.77 190.548 226.132C190.548 226.132 185.183 202.592 180.962 200.396L180.961 200.397C180.896 200.48 178.847 203.162 178.587 211.463C178.324 219.895 175.334 225.429 175.334 225.429C175.334 225.429 176.302 235.939 175.749 242.319L191.533 242.319Z" fill="#297CE0"/>
<path d="M230.56 92.5189H133.196C131.877 92.5189 130.571 92.7783 129.353 93.2824C128.134 93.7865 127.027 94.5254 126.095 95.4569C125.162 96.3883 124.422 97.4942 123.918 98.7112C123.413 99.9282 123.153 101.233 123.153 102.55V232.288C123.153 233.606 123.413 234.91 123.918 236.127C124.422 237.344 125.162 238.45 126.095 239.381C127.027 240.313 128.134 241.052 129.353 241.556C130.571 242.06 131.877 242.319 133.196 242.319H167.356C166.215 237.594 164.797 230.213 166.233 225.081L166.232 225.077L166.233 225.08C166.3 224.84 166.372 224.604 166.451 224.375C167.438 221.044 167.767 217.554 167.42 214.098C168.054 211.145 168.054 208.092 167.42 205.139C166.364 200.22 165.626 195.389 165.626 195.389C165.626 195.389 165.044 188.89 165.552 184.905C165.563 184.818 165.576 184.735 165.588 184.65C165.409 184.609 165.309 184.586 165.309 184.586C165.309 184.586 166.804 177.822 167.331 173.518C167.456 172.502 167.62 171.214 167.797 169.841C167.31 169.76 166.831 169.639 166.364 169.478C161.615 167.809 160.12 152.701 160.12 152.701V147.914C160.12 147.914 158.537 140.58 164.078 137.33C169.413 134.2 171.543 133.344 171.693 133.285C171.734 133.256 171.774 133.229 171.815 133.197C172.418 132.725 172.895 132.111 173.205 131.411C173.212 131.29 173.214 131.17 173.21 131.051C173.12 129.335 171.924 127.775 170.789 126.413C169.821 125.251 168.853 124.09 167.885 122.928C167.554 122.583 167.299 122.171 167.137 121.72C167.076 121.471 167.049 121.215 167.058 120.958C167.057 120.864 167.058 120.769 167.06 120.674C167.076 119.808 167.099 118.943 167.131 118.077C167.158 117.321 167.348 116.366 168.09 116.211C168.476 116.13 168.986 116.271 169.19 115.934C169.258 115.796 169.276 115.637 169.239 115.487C169.237 115.498 169.236 115.51 169.233 115.521C169.23 115.507 169.228 115.493 169.225 115.479C169.073 114.872 168.981 114.252 168.951 113.628C168.942 113.346 168.983 113.065 169.07 112.797C169.499 111.541 170.978 111.026 172.285 110.789C173.592 110.552 175.06 110.348 175.88 109.305C176.1 108.958 176.338 108.624 176.593 108.303C176.97 107.962 177.432 107.729 177.931 107.629C179.553 107.219 181.267 107.371 182.792 108.06C183.424 108.349 184.059 108.737 184.753 108.693C185.473 108.647 186.089 108.141 186.8 108.017C187.949 107.819 189.047 108.678 189.613 109.696C189.973 110.344 190.152 111.076 190.134 111.816C190.148 112.553 189.881 113.268 189.389 113.816C188.894 114.34 188.157 114.7 187.951 115.39C187.868 115.671 187.887 115.974 187.813 116.257C187.804 116.293 187.789 116.326 187.777 116.36C187.79 116.378 187.805 116.394 187.819 116.412C188.683 117.55 189.263 118.878 189.509 120.286C189.755 121.693 189.661 123.139 189.234 124.503C188.806 125.867 188.059 127.108 187.053 128.125C186.048 129.141 184.814 129.902 183.453 130.345C183.45 130.434 183.447 130.523 183.447 130.612C183.422 131.166 183.516 131.719 183.723 132.233C183.93 132.747 184.245 133.211 184.647 133.593L192.483 136.803C192.483 136.803 197.2 136.232 198.902 143.263C199.175 144.432 199.273 145.635 199.194 146.832C199.132 147.892 199.276 149.759 200.485 152.174C202.42 156.039 201.98 164.91 198.023 165.789C194.274 166.621 192.816 166.271 192.673 166.232L192.664 166.387C192.726 168.052 193.319 182.409 195.473 184.146C196.068 184.627 195.954 184.951 195.466 185.17L195.467 185.171C195.467 185.171 195.471 185.264 195.48 185.43C195.545 186.48 195.877 190.478 197.319 192.754C198.99 195.389 198.815 210.585 198.815 210.585L199.957 219.545C199.957 219.545 199.254 225.078 199.957 226.044C200.357 226.592 200.84 235.076 201.184 242.319H230.56C233.223 242.319 235.778 241.263 237.661 239.381C239.545 237.5 240.603 234.949 240.603 232.288V102.55C240.603 101.233 240.343 99.9282 239.838 98.7112C239.333 97.4942 238.594 96.3883 237.661 95.4569C236.729 94.5254 235.621 93.7865 234.403 93.2824C233.184 92.7783 231.878 92.5189 230.56 92.5189Z" fill="#297CE0"/>
<path d="M220.42 81.1256H123.057C117.51 81.1256 113.014 85.6166 113.014 91.1566V220.895C113.014 226.435 117.51 230.926 123.057 230.926H220.42C225.967 230.926 230.463 226.435 230.463 220.895V91.1566C230.463 85.6166 225.967 81.1256 220.42 81.1256Z" stroke="#3F3D56" stroke-miterlimit="10"/>
<path d="M42.5962 135.72C42.5962 135.72 38.6569 134.556 37.812 135.822C36.967 137.088 38.9639 146.265 38.9639 146.265L47.6442 146.792L44.6149 139.151L42.5962 135.72Z" fill="#2F2E41"/>
<path d="M12.2282 211.08C12.2282 211.08 20.1264 228.399 14.0439 227.855C7.96143 227.31 5.60107 211.08 5.60107 211.08H12.2282Z" fill="#A0616A"/>
<path d="M63.8838 209.276C63.8838 209.276 60.4189 227.989 66.1885 225.99C71.9581 223.991 70.3138 207.673 70.3138 207.673L63.8838 209.276Z" fill="#A0616A"/>
<path d="M40.9158 131.377C40.9158 131.377 40.8251 140.082 44.184 140.535C47.543 140.989 42.2776 145.613 42.2776 145.613L36.2859 146.792L27.6615 146.157L23.8486 141.261C23.8486 141.261 30.5666 138.087 27.6615 128.204L40.9158 131.377Z" fill="#A0616A"/>
<path opacity="0.1" d="M40.9158 131.377C40.9158 131.377 40.8251 140.082 44.184 140.535C47.543 140.989 42.2776 145.613 42.2776 145.613L36.2859 146.792L27.6615 146.157L23.8486 141.261C23.8486 141.261 30.5666 138.087 27.6615 128.204L40.9158 131.377Z" fill="black"/>
<path d="M56.3487 205.005C56.3487 205.005 60.6155 214.163 57.2565 242.906C57.2565 242.906 58.2552 253.062 57.4381 254.966C56.6211 256.87 49.9031 282.712 49.9031 282.712C49.9031 282.712 41.2787 284.617 40.0985 278.904C40.0985 278.904 41.2787 270.743 41.1879 269.474C41.0971 268.205 43.0944 254.331 43.0944 254.331L39.0091 227.492L35.9225 251.702C35.9225 251.702 35.9225 258.684 34.9239 260.225C33.9253 261.767 34.9239 292.777 34.9239 292.777C34.9239 292.777 37.7381 297.492 33.4713 297.583C29.2045 297.674 25.3916 297.492 25.0285 294.5C24.6653 291.508 24.4838 288.516 23.576 286.702C22.6681 284.889 21.4879 264.124 21.7603 256.87C22.0326 249.616 15.7686 212.349 17.7658 208.45C19.7631 204.551 56.3487 205.005 56.3487 205.005Z" fill="#2F2E41"/>
<path d="M36.2861 134.641C42.3026 134.641 47.18 129.77 47.18 123.761C47.18 117.751 42.3026 112.88 36.2861 112.88C30.2695 112.88 25.3921 117.751 25.3921 123.761C25.3921 129.77 30.2695 134.641 36.2861 134.641Z" fill="#A0616A"/>
<path d="M25.392 141.442C25.392 141.442 32.0192 146.339 41.6422 142.44C41.6422 142.44 44.8196 140.898 44.5472 138.541C44.2749 136.183 51.1744 157.491 51.1744 157.491L58.1647 194.577L57.8016 209.72C57.8016 209.72 54.7149 208.178 45.0919 211.624C35.4689 215.07 19.7634 207.725 19.7634 207.725L20.3081 168.826L20.8528 146.157L22.3054 141.17C22.3054 141.17 23.0316 139.81 25.392 141.442Z" fill="#F2F2F2"/>
<path d="M41.2185 135.355C41.2185 135.355 42.8222 135.095 44.3655 137.543C45.9088 139.991 49.5402 141.533 49.5402 141.533C49.5402 141.533 58.3461 142.077 59.6171 146.792C60.8881 151.507 64.0655 157.945 65.6088 169.823C67.1521 181.701 70.2387 200.652 70.6926 202.194C71.1465 203.735 70.0571 208.45 71.3281 209.901C72.5991 211.352 62.3406 211.352 62.3406 211.352C62.3406 211.352 61.4327 203.917 60.7973 203.917C60.1618 203.917 60.3433 208.904 60.9788 212.531C61.6143 216.158 56.3489 212.531 56.3489 212.531C56.3489 212.531 52.2636 195.937 48.36 180.976C44.4563 166.015 42.1867 157.763 42.913 154.408C43.6392 151.054 45.6365 141.442 44.1839 140.535C42.7314 139.629 41.2185 135.355 41.2185 135.355Z" fill="#2F2E41"/>
<path d="M28.1266 135.347C28.1266 135.347 25.7548 136.636 19.7631 140.898C13.7714 145.16 9.6862 148.424 9.6862 148.424C9.6862 148.424 7.32584 150.237 5.87331 161.028C4.42078 171.818 1.15258 199.746 2.42355 203.282C3.69452 206.818 4.14843 208.904 3.69451 210.989C3.2406 213.075 13.2267 212.984 13.4083 212.531C13.5899 212.077 13.136 203.826 13.5899 203.645C14.0438 203.463 16.4949 208.541 16.9489 212.803C17.4028 217.064 22.6682 220.419 23.8484 220.419C25.0286 220.419 31.111 195.847 31.2018 179.072C31.2926 162.297 29.2046 148.152 27.6613 146.157C26.118 144.162 28.1266 135.347 28.1266 135.347Z" fill="#2F2E41"/>
<path d="M44.0931 283.529C44.0931 283.529 44.8193 281.534 47.3613 282.168C49.9032 282.803 51.6281 280.536 51.6281 280.536C51.6281 280.536 52.9898 280.355 52.082 282.078C51.1741 283.801 50.4479 284.979 50.4479 284.979C50.4479 284.979 55.8949 297.402 52.3543 300.394C48.8138 303.386 44.7286 301.573 44.7286 301.573C44.7286 301.573 40.7341 298.762 40.9157 291.327C40.9157 291.327 40.7341 288.969 38.5553 285.161C36.3765 281.352 34.7424 275.549 37.3751 274.461C40.0078 273.373 40.6855 273.333 40.6855 273.333C40.6855 273.333 39.4535 278.961 42.6357 280.927L44.0931 283.529Z" fill="#3F3D56"/>
<path d="M27.2076 297.583C27.2076 297.583 25.0289 293.503 28.6602 293.049C32.2915 292.596 36.1952 292.324 36.0136 294.228C35.8321 296.132 35.3781 299.034 35.3781 299.034L36.0136 301.119C36.0136 301.119 36.1952 306.288 36.8307 306.923C37.4661 307.557 40.9159 312.998 33.5625 312.998C26.209 312.998 24.0302 312.182 24.6657 310.459C25.3012 308.736 25.4828 300.213 25.4828 300.213L27.2076 297.583Z" fill="#3F3D56"/>
<path d="M32.8362 115.056C32.8362 115.056 37.92 116.416 40.5528 116.96C43.1855 117.504 42.9131 115.963 42.9131 115.963C42.9131 115.963 46.3629 116.416 46.1813 116.053C45.9997 115.691 47.6338 113.786 45.7274 111.61C43.821 109.434 44.3656 107.802 44.3656 107.802H42.7316L42.2776 107.167H39.7357C39.7357 107.167 37.8293 106.442 32.8362 107.167C27.8431 107.893 21.0344 108.074 20.4897 111.066C19.945 114.058 17.1307 117.776 18.1293 119.499C19.1279 121.222 24.8473 128.294 25.392 131.287C25.9367 134.279 28.48 134.944 28.3885 133.07C28.297 131.196 25.7551 124.667 27.9339 124.395C30.1127 124.123 33.8348 118.592 32.8362 115.056Z" fill="#2F2E41"/>
<path d="M394.969 3.14685C393.168 3.24845 391.431 3.84911 389.953 4.88146C388.475 5.91382 387.314 7.33706 386.6 8.9916C384.507 14.0442 387.202 19.9793 391.247 23.6637C395.292 27.3482 400.488 29.4542 405.209 32.2223C411.55 35.9405 417.248 41.1019 420.421 47.7273C423.594 54.3527 423.932 62.5597 420.202 68.8892C416.74 74.7641 410.446 78.2802 404.442 81.523" stroke="#3F3D56" stroke-miterlimit="10"/>
<path d="M400.3 7.17355C404.383 7.17355 407.694 5.5677 407.694 3.58677C407.694 1.60585 404.383 0 400.3 0C396.217 0 392.907 1.60585 392.907 3.58677C392.907 5.5677 396.217 7.17355 400.3 7.17355Z" fill="#297CE0"/>
<path d="M406.215 30.8041C410.298 30.8041 413.609 29.1982 413.609 27.2173C413.609 25.2363 410.298 23.6305 406.215 23.6305C402.132 23.6305 398.822 25.2363 398.822 27.2173C398.822 29.1982 402.132 30.8041 406.215 30.8041Z" fill="#297CE0"/>
<path d="M392.696 34.6018C396.779 34.6018 400.089 32.996 400.089 31.0151C400.089 29.0341 396.779 27.4283 392.696 27.4283C388.612 27.4283 385.302 29.0341 385.302 31.0151C385.302 32.996 388.612 34.6018 392.696 34.6018Z" fill="#297CE0"/>
<path d="M413.82 54.4345C417.903 54.4345 421.213 52.8287 421.213 50.8478C421.213 48.8668 417.903 47.261 413.82 47.261C409.736 47.261 406.426 48.8668 406.426 50.8478C406.426 52.8287 409.736 54.4345 413.82 54.4345Z" fill="#297CE0"/>
<path d="M428.607 54.4345C432.69 54.4345 436 52.8287 436 50.8478C436 48.8668 432.69 47.261 428.607 47.261C424.523 47.261 421.213 48.8668 421.213 50.8478C421.213 52.8287 424.523 54.4345 428.607 54.4345Z" fill="#297CE0"/>
</g>
<defs>
<clipPath id="clip0">
<rect width="436" height="313" fill="white"/>
</clipPath>
</defs>
</svg>
