<svg width="441" height="342" viewBox="0 0 441 342" fill="none" xmlns="http://www.w3.org/2000/svg">
<path d="M387.84 318.058C387.808 317.917 384.709 303.794 391.038 292.064C397.367 280.335 410.877 275.162 411.013 275.111L411.63 274.879L411.776 275.522C411.808 275.663 414.907 289.786 408.578 301.516C402.249 313.246 388.739 318.418 388.603 318.47L387.986 318.701L387.84 318.058ZM410.784 276.449C408.077 277.612 397.397 282.704 392.051 292.61C386.705 302.518 388.318 314.234 388.833 317.132C391.538 315.971 402.214 310.887 407.565 300.97C412.91 291.063 411.298 279.348 410.784 276.449Z" fill="#3F3D56"/>
<path d="M403.741 297.402C392.368 304.24 387.987 317.823 387.987 317.823C387.987 317.823 402.047 320.319 413.421 313.481C424.795 306.642 429.175 293.059 429.175 293.059C429.175 293.059 415.115 290.563 403.741 297.402Z" fill="#D0CDE1"/>
<path d="M156.63 256.254C155.277 256.254 153.911 256.232 152.57 256.19L152.6 255.217C154.526 255.277 156.491 255.294 158.426 255.267L158.439 256.241C157.837 256.249 157.234 256.254 156.63 256.254ZM164.305 256.028L164.248 255.055C166.177 254.942 168.13 254.782 170.054 254.58L170.156 255.549C168.217 255.752 166.249 255.914 164.305 256.028ZM146.709 255.876C144.764 255.727 142.799 255.532 140.868 255.295L140.987 254.328C142.903 254.563 144.853 254.757 146.783 254.904L146.709 255.876ZM175.977 254.805L175.831 253.842C177.747 253.551 179.678 253.214 181.569 252.838L181.759 253.794C179.853 254.172 177.908 254.512 175.977 254.805ZM135.06 254.448C133.139 254.123 131.2 253.749 129.296 253.336L129.503 252.383C131.392 252.794 133.316 253.165 135.223 253.487L135.06 254.448ZM187.488 252.518L187.254 251.572C189.135 251.107 191.027 250.594 192.876 250.046L193.153 250.98C191.289 251.532 189.384 252.05 187.488 252.518ZM123.59 251.959C121.706 251.459 119.809 250.908 117.954 250.321L118.248 249.392C120.089 249.974 121.971 250.521 123.841 251.018L123.59 251.959ZM198.741 249.182L198.421 248.262C200.246 247.628 202.082 246.942 203.878 246.224L204.24 247.129C202.43 247.852 200.58 248.543 198.741 249.182ZM112.384 248.419C110.554 247.747 108.712 247.021 106.911 246.263L107.29 245.365C109.077 246.117 110.904 246.837 112.721 247.505L112.384 248.419ZM209.626 244.829L209.222 243.943C210.975 243.147 212.737 242.297 214.459 241.417L214.903 242.285C213.167 243.171 211.392 244.027 209.626 244.829ZM220.057 239.5L219.575 238.654C221.256 237.696 222.934 236.688 224.561 235.659L225.082 236.482C223.442 237.519 221.752 238.535 220.057 239.5ZM229.965 233.237L229.407 232.438C230.99 231.333 232.569 230.176 234.102 228.999L234.696 229.771C233.152 230.957 231.56 232.123 229.965 233.237ZM81.3657 231.865C79.7921 230.722 78.2202 229.526 76.6932 228.307L77.3016 227.546C78.8169 228.755 80.3769 229.942 81.9384 231.076L81.3657 231.865ZM239.265 226.094L238.636 225.349C240.112 224.104 241.58 222.808 243.001 221.495L243.662 222.21C242.231 223.534 240.751 224.84 239.265 226.094ZM72.1887 224.542C70.7231 223.259 69.2671 221.925 67.8613 220.576L68.5363 219.873C69.9317 221.212 71.3765 222.536 72.8309 223.809L72.1887 224.542ZM247.88 218.13L247.186 217.446C248.546 216.068 249.891 214.643 251.184 213.21L251.908 213.861C250.606 215.306 249.25 216.742 247.88 218.13ZM63.72 216.419C62.3754 215.006 61.0474 213.546 59.773 212.078L60.5094 211.44C61.7741 212.896 63.0918 214.345 64.4265 215.747L63.72 216.419ZM255.738 209.414L254.985 208.795C256.214 207.301 257.424 205.759 258.582 204.211L259.363 204.794C258.196 206.354 256.977 207.908 255.738 209.414ZM56.0285 207.564C54.821 206.039 53.632 204.465 52.4944 202.885L53.2856 202.316C54.4146 203.883 55.5945 205.446 56.793 206.96L56.0285 207.564ZM262.772 200.014L261.966 199.467C263.053 197.867 264.118 196.22 265.131 194.572L265.962 195.082C264.941 196.743 263.868 198.402 262.772 200.014ZM49.1786 198.051C48.1163 196.424 47.0766 194.749 46.088 193.072L46.9278 192.578C47.909 194.241 48.9408 195.904 49.9951 197.518L49.1786 198.051ZM268.922 190.007L268.069 189.536C269.005 187.844 269.914 186.105 270.772 184.369L271.646 184.801C270.782 186.55 269.865 188.302 268.922 190.007H268.922ZM274.129 179.474L273.235 179.083C274.012 177.31 274.758 175.494 275.453 173.686L276.363 174.035C275.663 175.858 274.911 177.687 274.129 179.474H274.129ZM38.2318 177.372C37.4844 175.579 36.7686 173.745 36.1045 171.92L37.021 171.587C37.6798 173.398 38.3901 175.218 39.1316 176.997L38.2318 177.372ZM278.345 168.498L277.419 168.191C278.028 166.359 278.602 164.486 279.125 162.625L280.064 162.888C279.536 164.764 278.957 166.652 278.345 168.498ZM34.2265 166.362C33.6464 164.506 33.1013 162.609 32.6064 160.724L33.5495 160.476C34.0406 162.347 34.5816 164.23 35.1572 166.072L34.2265 166.362ZM281.522 157.206L280.573 156.985C281.009 155.107 281.408 153.19 281.759 151.286L282.718 151.462C282.364 153.381 281.962 155.313 281.522 157.206ZM31.2487 155.017C30.8422 153.114 30.4742 151.175 30.1552 149.253L31.1169 149.093C31.4337 151.001 31.7988 152.925 32.2023 154.813L31.2487 155.017ZM283.647 145.671L282.681 145.539C282.943 143.63 283.164 141.684 283.339 139.755L284.31 139.842C284.134 141.787 283.911 143.748 283.647 145.671ZM29.3273 143.446C29.0974 141.517 28.9086 139.553 28.766 137.608L29.7386 137.536C29.8798 139.467 30.0674 141.417 30.2956 143.331L29.3273 143.446ZM284.707 133.991L283.733 133.947C283.82 132.016 283.864 130.058 283.864 128.127H284.839C284.839 130.073 284.795 132.046 284.707 133.991ZM28.4706 131.749C28.4373 130.554 28.4204 129.335 28.4202 128.127C28.4202 127.377 28.4266 126.629 28.4394 125.882L29.4144 125.899C29.4016 126.64 29.3951 127.383 29.3951 128.127C29.3954 129.326 29.4123 130.536 29.4451 131.722L28.4706 131.749ZM29.6458 120.082L28.6727 120.021C28.7944 118.074 28.9624 116.108 29.1716 114.177L30.1409 114.282C29.9331 116.198 29.7667 118.15 29.6458 120.082H29.6458ZM283.235 114.138C283.04 112.217 282.772 111.28 282.489 109.368L283.454 109.225C283.738 111.153 283.983 112.624 284.179 114.559L283.235 114.138ZM30.9 108.51L29.9364 108.361C30.2352 106.434 30.5822 104.491 30.9681 102.586L31.9235 102.779C31.5408 104.67 31.1963 106.598 30.9 108.51H30.9ZM281.505 103.631C281.133 101.73 280.714 99.817 280.258 97.9444L281.205 97.7141C281.665 99.6009 282.087 101.529 282.462 103.444L281.505 103.631ZM33.2094 97.1021L32.2637 96.8651C32.7371 94.978 33.2615 93.0753 33.8223 91.2093L34.7558 91.4896C34.1996 93.3412 33.6792 95.2295 33.2094 97.1021ZM278.75 92.3212C278.206 90.466 277.612 88.5998 276.984 86.7739L277.906 86.457C278.539 88.297 279.138 90.1779 279.686 92.0471L278.75 92.3212ZM36.5656 85.9391L35.6459 85.6161C36.2938 83.7742 36.9934 81.9235 37.7251 80.1154L38.6291 80.4808C37.9029 82.2749 37.2085 84.1115 36.5656 85.9391ZM274.964 81.3136C274.252 79.5205 273.491 77.7209 272.699 75.9647L273.589 75.5646C274.386 77.3344 275.154 79.1477 275.87 80.9544L274.964 81.3136ZM40.9416 75.1252L40.0556 74.7184C40.8699 72.9462 41.7366 71.169 42.6316 69.4363L43.498 69.8831C42.6097 71.6027 41.7497 73.3663 40.9416 75.1252ZM270.192 70.7233C269.319 69.0032 268.395 67.2795 267.444 65.6008L268.293 65.1208C269.251 66.8126 270.182 68.5493 271.061 70.2827L270.192 70.7233ZM46.2928 64.7654L45.4478 64.2792C46.4204 62.5914 47.446 60.902 48.4965 59.2583L49.3181 59.7825C48.2758 61.4139 47.2577 63.0905 46.2928 64.7654ZM264.464 60.6073C263.434 58.9683 262.355 57.3355 261.258 55.7541L262.058 55.1989C263.164 56.7924 264.252 58.4376 265.29 60.0892L264.464 60.6073ZM52.5682 54.9446L51.7713 54.3832C52.8953 52.7901 54.0704 51.2023 55.2649 49.6637L56.0352 50.2608C54.85 51.7879 53.6834 53.3636 52.5682 54.9446ZM257.832 51.051C256.657 49.5131 255.434 47.9843 254.194 46.507L254.942 45.8812C256.19 47.3698 257.423 48.9101 258.607 50.4596L257.832 51.051ZM59.7116 45.7413L58.9694 45.1095C60.2307 43.629 61.5453 42.1553 62.8767 40.7295L63.5893 41.3941C62.2682 42.8092 60.9636 44.2719 59.7116 45.7413ZM250.354 42.1322C249.044 40.7076 247.685 39.2955 246.316 37.9358L247.003 37.2445C248.383 38.615 249.752 40.0375 251.071 41.4728L250.354 42.1322ZM67.6599 37.2293L66.9782 36.5328C68.3723 35.1698 69.815 33.8222 71.2658 32.5277L71.9152 33.2546C70.4753 34.5392 69.0436 35.8765 67.6599 37.2293V37.2293ZM242.092 33.9264C240.657 32.6254 239.175 31.3423 237.687 30.1127L238.309 29.362C239.807 30.6009 241.301 31.8937 242.747 33.2047L242.092 33.9264ZM76.3461 29.4776L75.7306 28.7221C77.2385 27.4949 78.7969 26.2846 80.3627 25.1247L80.9435 25.9073C79.3894 27.0586 77.8426 28.2596 76.3461 29.4776H76.3461ZM85.6972 22.5513L85.153 21.743C86.7669 20.6578 88.4284 19.5952 90.0915 18.584L90.598 19.4165C88.9478 20.4199 87.2989 21.4747 85.6972 22.5513H85.6972ZM95.636 16.5097L95.168 15.6547C96.8754 14.7211 98.6261 13.8152 100.371 12.9619L100.8 13.8373C99.0679 14.6839 97.3305 15.5829 95.636 16.5097ZM213.301 14.2522C211.566 13.3885 209.789 12.554 208.019 11.7721L208.413 10.881C210.197 11.6688 211.988 12.5097 213.736 13.3801L213.301 14.2522ZM106.079 11.4051L105.691 10.5111C107.476 9.73822 109.301 8.99699 111.116 8.30786L111.462 9.21894C109.661 9.90261 107.85 10.6381 106.079 11.4051ZM202.627 9.53698C200.822 8.8374 198.974 8.1699 197.135 7.55331L197.445 6.6294C199.298 7.25097 201.16 7.92345 202.979 8.62876L202.627 9.53698ZM116.954 7.27809L116.65 6.35227C118.503 5.74521 120.394 5.17358 122.269 4.65382L122.53 5.59249C120.669 6.10844 118.793 6.67556 116.954 7.27809H116.954ZM191.571 5.82941C189.711 5.29966 187.815 4.8063 185.934 4.36313L186.157 3.41496C188.053 3.86145 189.964 4.35861 191.838 4.89217L191.571 5.82941ZM128.177 4.16546L127.96 3.21561C129.859 2.78196 131.794 2.38684 133.711 2.04144L133.884 3.00009C131.982 3.34311 130.062 3.73514 128.177 4.16546ZM180.235 3.15852C178.336 2.80239 176.402 2.48556 174.487 2.21676L174.622 1.25192C176.552 1.52287 178.501 1.8421 180.415 2.20082L180.235 3.15852ZM139.639 2.0983L139.51 1.13251C141.44 0.875128 143.403 0.658659 145.344 0.489765L145.428 1.46031C143.502 1.62825 141.555 1.84279 139.639 2.0983ZM168.701 1.53928C166.781 1.35849 164.826 1.2191 162.891 1.12561L162.938 0.152216C164.888 0.246655 166.857 0.387001 168.793 0.569239L168.701 1.53928ZM151.242 1.0866L151.201 0.113226C152.993 0.0385327 154.819 0.000477431 156.63 0L157.071 0.000709917L157.068 0.975059L156.63 0.974349C154.833 0.974802 153.02 1.01262 151.242 1.0866Z" fill="#3F3D56"/>
<path d="M440.144 317.78H82.8152V318.754H440.144V317.78Z" fill="#3F3D56"/>
<path d="M291.953 153.959L296.828 229.471C296.828 229.471 308.527 259.189 308.04 287.445C308.04 287.445 303.653 298.65 307.065 300.599C310.477 302.547 312.427 304.009 310.477 305.471C308.527 306.932 307.065 310.342 308.527 311.317C309.99 312.291 310.477 313.753 309.99 313.753H295.365C295.365 313.753 298.29 306.445 293.903 304.496C289.515 302.547 291.953 297.676 291.953 297.676L259.291 202.19L233.454 289.881C233.454 289.881 237.842 292.804 234.429 294.266C231.017 295.727 229.554 292.804 231.017 295.727C232.479 298.65 230.529 300.112 230.529 300.599C230.529 301.086 215.905 299.137 215.905 299.137C215.905 299.137 223.217 292.804 219.805 291.342C216.392 289.881 214.93 288.419 215.905 287.445C216.88 286.471 220.78 277.214 220.78 277.214C220.78 277.214 222.73 242.138 223.217 240.676C223.704 239.215 223.217 232.394 223.217 228.984C223.217 225.574 222.73 211.933 224.192 208.523C225.654 205.113 227.117 163.216 234.917 158.344C242.717 153.472 291.953 153.959 291.953 153.959Z" fill="#2F2E41"/>
<path d="M230.04 298.163C230.04 298.163 239.79 318.137 232.965 320.573C226.141 323.009 217.366 321.06 215.416 323.983C213.466 326.906 192.016 330.316 191.529 323.009C191.041 315.701 214.928 302.06 214.928 302.06L218.04 297.053L230.04 298.163Z" fill="#2F2E41"/>
<path d="M309.015 312.778C309.015 312.778 318.764 332.752 311.939 335.188C305.115 337.624 296.34 335.675 294.39 338.599C292.44 341.522 270.99 344.932 270.503 337.624C270.015 330.317 293.902 316.676 293.902 316.676L297.014 311.669L309.015 312.778Z" fill="#2F2E41"/>
<path d="M263.922 62.127C272.807 62.127 280.009 54.9291 280.009 46.0502C280.009 37.1713 272.807 29.9734 263.922 29.9734C255.037 29.9734 247.835 37.1713 247.835 46.0502C247.835 54.9291 255.037 62.127 263.922 62.127Z" fill="#EE8E9E"/>
<path d="M274.89 54.5758L272.94 68.7038L258.315 79.9088L254.415 74.5499V56.0373L274.89 54.5758Z" fill="#EE8E9E"/>
<path d="M251.978 72.6012C251.978 72.6012 267.09 74.0628 274.89 68.7038L290.489 160.78C290.489 160.78 235.403 165.164 232.966 162.241V133.498L242.716 86.7293L251.978 72.6012Z" fill="#3F3D56"/>
<path d="M273.547 64.3017L278.789 68.7039C278.789 68.7039 300.238 72.1141 298.776 77.9602L292.926 147.139L294.876 170.523C294.876 170.523 278.301 166.139 265.627 170.523C252.952 174.908 263.022 76.3022 263.022 76.3022C263.022 76.3022 274.642 65.7455 273.547 64.3017Z" fill="#D0CDE1"/>
<path d="M254.416 69.6341C254.416 69.6341 238.817 80.8832 236.867 88.1908C234.917 95.4984 228.58 172.472 228.58 172.472C228.58 172.472 231.505 171.01 232.967 173.446C234.429 175.882 256.854 73.4874 254.416 69.6341Z" fill="#D0CDE1"/>
<path d="M247.841 45.3499C247.841 45.3499 246.099 42.7393 246.769 39.9279C247.169 38.3317 247.327 36.6845 247.238 35.0413C247.238 35.0413 248.645 30.4895 250.051 27.9458C251.458 25.4022 250.788 24.3311 255.209 23.5279C259.63 22.7246 257.821 16.9679 269.476 23.1932C269.869 23.7418 270.416 24.1618 271.048 24.4001C271.68 24.6383 272.368 24.6842 273.026 24.5319C275.437 24.0634 276.308 27.4103 276.308 27.4103C276.308 27.4103 277.916 26.4732 278.518 27.8119C279.121 29.1507 283.42 27.0084 283.42 36.0452C283.42 45.0819 278.528 53.154 278.528 53.154C278.528 53.154 278.887 37.9532 270.916 36.4136C262.945 34.874 254.372 30.3891 252.295 36.1458C251.174 39.3768 249.679 42.4658 247.841 45.3499Z" fill="#2F2E41"/>
<path d="M278.704 48.9639C279.572 48.9639 280.276 48.0259 280.276 46.8689C280.276 45.7119 279.572 44.774 278.704 44.774C277.836 44.774 277.132 45.7119 277.132 46.8689C277.132 48.0259 277.836 48.9639 278.704 48.9639Z" fill="#A0616A"/>
<path d="M212.633 197.525C208.776 195.206 204.124 195.384 202.356 195.561C203.03 197.203 205.05 201.394 208.907 203.713C212.774 206.037 217.419 205.855 219.185 205.679C218.512 204.037 216.491 199.845 212.633 197.525Z" fill="#D0CDE1"/>
<path d="M230.758 243.526H206.649C205.21 243.526 203.83 244.097 202.813 245.113C201.796 246.13 201.224 247.509 201.224 248.947C201.224 250.384 201.796 251.763 202.813 252.78C203.83 253.797 205.21 254.368 206.649 254.368H230.758C232.196 254.366 233.574 253.795 234.59 252.778C235.606 251.762 236.177 250.383 236.177 248.947C236.177 247.51 235.606 246.132 234.59 245.115C233.574 244.099 232.196 243.527 230.758 243.526Z" fill="#D0CDE1"/>
<path d="M339.933 186.303H204.761C203.188 186.303 201.631 186.613 200.178 187.214C198.726 187.815 197.406 188.697 196.294 189.808C195.182 190.919 194.3 192.238 193.698 193.69C193.096 195.142 192.787 196.698 192.787 198.269V264.086C192.787 267.259 194.048 270.303 196.294 272.547C198.539 274.791 201.585 276.052 204.761 276.052H339.933C341.506 276.052 343.063 275.743 344.516 275.141C345.968 274.54 347.288 273.658 348.4 272.547C349.512 271.436 350.394 270.117 350.996 268.665C351.598 267.213 351.907 265.657 351.907 264.086V198.269C351.907 196.698 351.598 195.142 350.996 193.69C350.394 192.238 349.512 190.919 348.4 189.808C347.288 188.697 345.968 187.815 344.516 187.214C343.063 186.613 341.506 186.303 339.933 186.303ZM201.416 194.466C201.683 194.418 208.013 193.341 213.254 196.493C218.495 199.644 220.508 205.737 220.591 205.995L220.803 206.652L220.123 206.773C219.153 206.924 218.172 206.996 217.19 206.988C214.809 206.988 211.36 206.595 208.285 204.745C203.044 201.595 201.031 195.501 200.948 195.244L200.736 194.587L201.416 194.466ZM230.759 255.572H206.649C204.891 255.572 203.205 254.874 201.961 253.632C200.718 252.389 200.019 250.704 200.019 248.947C200.019 247.189 200.718 245.504 201.961 244.262C203.205 243.019 204.891 242.321 206.649 242.321H230.759C232.517 242.321 234.203 243.019 235.447 244.262C236.69 245.504 237.389 247.189 237.389 248.947C237.389 250.704 236.69 252.389 235.447 253.632C234.203 254.874 232.517 255.572 230.759 255.572ZM340.455 254.368C340.45 256.283 339.686 258.118 338.331 259.473C336.976 260.827 335.139 261.59 333.223 261.596H315.141C313.224 261.59 311.388 260.827 310.033 259.473C308.677 258.118 307.914 256.283 307.908 254.368V243.526C307.914 241.61 308.677 239.775 310.033 238.421C311.388 237.066 313.224 236.303 315.141 236.298H333.223C335.139 236.303 336.976 237.066 338.331 238.421C339.686 239.775 340.45 241.61 340.455 243.526L340.455 254.368Z" fill="#D0CDE1"/>
<path d="M320.867 252.259H313.031C312.472 252.259 311.935 252.482 311.54 252.877C311.144 253.272 310.922 253.808 310.922 254.368C310.922 254.927 311.144 255.463 311.54 255.858C311.935 256.254 312.472 256.476 313.031 256.476H320.867C321.426 256.476 321.963 256.254 322.359 255.858C322.754 255.463 322.977 254.927 322.977 254.368C322.977 253.808 322.754 253.272 322.359 252.877C321.963 252.482 321.426 252.259 320.867 252.259ZM320.867 255.271H313.031C312.913 255.271 312.795 255.248 312.685 255.203C312.575 255.158 312.475 255.091 312.391 255.007C312.307 254.923 312.24 254.824 312.194 254.714C312.149 254.604 312.125 254.486 312.125 254.368C312.125 254.249 312.149 254.131 312.194 254.021C312.24 253.912 312.307 253.812 312.391 253.728C312.475 253.644 312.575 253.578 312.685 253.532C312.795 253.487 312.913 253.464 313.031 253.464H320.867C320.986 253.464 321.104 253.487 321.214 253.532C321.323 253.578 321.423 253.644 321.508 253.728C321.592 253.812 321.659 253.912 321.704 254.021C321.75 254.131 321.773 254.249 321.773 254.368C321.773 254.486 321.75 254.604 321.704 254.714C321.659 254.824 321.592 254.923 321.508 255.007C321.423 255.091 321.323 255.158 321.214 255.203C321.104 255.248 320.986 255.271 320.867 255.271Z" fill="#D0CDE1"/>
<path d="M335.333 252.259H327.497C327.22 252.259 326.945 252.313 326.689 252.419C326.432 252.525 326.2 252.68 326.003 252.876C325.807 253.072 325.651 253.304 325.545 253.56C325.439 253.816 325.384 254.09 325.384 254.368C325.384 254.645 325.439 254.919 325.545 255.175C325.651 255.431 325.807 255.664 326.003 255.859C326.2 256.055 326.432 256.21 326.689 256.316C326.945 256.422 327.22 256.476 327.497 256.476H335.333C335.892 256.476 336.429 256.254 336.824 255.858C337.22 255.463 337.442 254.927 337.442 254.368C337.442 253.808 337.22 253.272 336.824 252.877C336.429 252.482 335.892 252.259 335.333 252.259ZM335.333 255.271H327.497C327.378 255.271 327.26 255.248 327.15 255.203C327.041 255.158 326.941 255.091 326.856 255.007C326.772 254.923 326.705 254.824 326.66 254.714C326.614 254.604 326.591 254.486 326.591 254.368C326.591 254.249 326.614 254.131 326.66 254.021C326.705 253.912 326.772 253.812 326.856 253.728C326.941 253.644 327.041 253.578 327.15 253.532C327.26 253.487 327.378 253.464 327.497 253.464H335.333C335.572 253.465 335.801 253.56 335.97 253.729C336.14 253.899 336.235 254.128 336.235 254.368C336.235 254.607 336.14 254.836 335.97 255.006C335.801 255.175 335.572 255.271 335.333 255.271Z" fill="#D0CDE1"/>
<path d="M320.867 246.839H313.031C312.472 246.839 311.935 247.061 311.54 247.456C311.144 247.851 310.922 248.388 310.922 248.947C310.922 249.506 311.144 250.042 311.54 250.437C311.935 250.833 312.472 251.055 313.031 251.055H320.867C321.144 251.055 321.419 251.001 321.675 250.895C321.932 250.79 322.164 250.634 322.361 250.439C322.557 250.243 322.713 250.01 322.819 249.754C322.925 249.498 322.98 249.224 322.98 248.947C322.98 248.67 322.925 248.395 322.819 248.139C322.713 247.883 322.557 247.651 322.361 247.455C322.164 247.259 321.932 247.104 321.675 246.998C321.419 246.892 321.144 246.838 320.867 246.839ZM320.867 249.85H313.031C312.792 249.85 312.562 249.755 312.392 249.586C312.223 249.416 312.127 249.186 312.127 248.947C312.127 248.707 312.223 248.477 312.392 248.308C312.562 248.138 312.792 248.043 313.031 248.043H320.867C321.107 248.043 321.337 248.138 321.506 248.308C321.676 248.477 321.771 248.707 321.771 248.947C321.771 249.186 321.676 249.416 321.506 249.586C321.337 249.755 321.107 249.85 320.867 249.85Z" fill="#D0CDE1"/>
<path d="M335.333 246.839H327.497C327.22 246.838 326.945 246.892 326.689 246.998C326.432 247.104 326.2 247.259 326.003 247.455C325.807 247.651 325.651 247.883 325.545 248.139C325.439 248.395 325.384 248.67 325.384 248.947C325.384 249.224 325.439 249.498 325.545 249.754C325.651 250.01 325.807 250.243 326.003 250.439C326.2 250.634 326.432 250.79 326.689 250.895C326.945 251.001 327.22 251.055 327.497 251.055H335.333C335.892 251.055 336.429 250.833 336.824 250.437C337.22 250.042 337.442 249.506 337.442 248.947C337.442 248.388 337.22 247.851 336.824 247.456C336.429 247.061 335.892 246.839 335.333 246.839ZM335.333 249.85H327.497C327.257 249.85 327.027 249.755 326.858 249.586C326.688 249.416 326.593 249.186 326.593 248.947C326.593 248.707 326.688 248.477 326.858 248.308C327.027 248.138 327.257 248.043 327.497 248.043H335.333C335.572 248.043 335.802 248.138 335.972 248.308C336.141 248.477 336.237 248.707 336.237 248.947C336.237 249.186 336.141 249.416 335.972 249.586C335.802 249.755 335.572 249.85 335.333 249.85Z" fill="#D0CDE1"/>
<path d="M320.867 241.417H313.031C312.472 241.417 311.935 241.64 311.54 242.035C311.144 242.43 310.922 242.966 310.922 243.526C310.922 244.085 311.144 244.621 311.54 245.016C311.935 245.412 312.472 245.634 313.031 245.634H320.867C321.426 245.634 321.963 245.412 322.359 245.016C322.754 244.621 322.977 244.085 322.977 243.526C322.977 242.966 322.754 242.43 322.359 242.035C321.963 241.64 321.426 241.417 320.867 241.417ZM320.867 244.429H313.031C312.792 244.429 312.562 244.334 312.392 244.164C312.223 243.995 312.127 243.765 312.127 243.526C312.127 243.286 312.223 243.056 312.392 242.887C312.562 242.717 312.792 242.622 313.031 242.622H320.867C321.107 242.622 321.337 242.717 321.506 242.887C321.676 243.056 321.771 243.286 321.771 243.526C321.771 243.765 321.676 243.995 321.506 244.164C321.337 244.334 321.107 244.429 320.867 244.429Z" fill="#D0CDE1"/>
<path d="M335.333 241.417H327.497C327.22 241.417 326.945 241.471 326.689 241.577C326.432 241.683 326.2 241.838 326.003 242.034C325.807 242.23 325.651 242.462 325.545 242.718C325.439 242.974 325.384 243.248 325.384 243.526C325.384 243.803 325.439 244.077 325.545 244.333C325.651 244.589 325.807 244.822 326.003 245.017C326.2 245.213 326.432 245.368 326.689 245.474C326.945 245.58 327.22 245.634 327.497 245.634H335.333C335.891 245.633 336.427 245.41 336.822 245.015C337.217 244.62 337.439 244.084 337.439 243.526C337.439 242.967 337.217 242.431 336.822 242.036C336.427 241.641 335.891 241.418 335.333 241.417ZM335.333 244.429H327.497C327.257 244.429 327.027 244.334 326.858 244.164C326.688 243.995 326.593 243.765 326.593 243.526C326.593 243.286 326.688 243.056 326.858 242.887C327.027 242.717 327.257 242.622 327.497 242.622H335.333C335.572 242.622 335.802 242.717 335.972 242.887C336.141 243.056 336.237 243.286 336.237 243.526C336.237 243.765 336.141 243.995 335.972 244.164C335.802 244.334 335.572 244.429 335.333 244.429Z" fill="#D0CDE1"/>
<path d="M297.315 171.498L293.82 182.893C293.82 182.893 292.927 204.138 281.228 201.215C269.528 198.292 284.64 173.446 284.64 173.446L288.052 168.088L297.315 171.498Z" fill="#EE8E9E"/>
<path d="M231.016 171.498L227.522 182.893C227.522 182.893 226.629 204.138 214.929 201.215C203.229 198.292 218.341 173.446 218.341 173.446L221.754 168.088L231.016 171.498Z" fill="#EE8E9E"/>
<path d="M294.875 74.5499C294.875 74.5499 302.675 72.6012 305.113 85.7549C307.55 98.9086 310.475 136.421 310.475 136.421L298.775 175.882C298.775 175.882 287.076 169.549 284.638 170.523L293.845 136.265L286.101 101.344C286.101 101.344 292.925 74.5499 294.875 74.5499Z" fill="#D0CDE1"/>
<path opacity="0.15" d="M283.537 102.011L293.774 136.113L283.537 170.702L289.387 136.113L283.537 102.011Z" fill="black"/>
<path d="M236.865 101.344L219.315 170.523C219.315 170.523 228.572 173.576 231.985 176.012L236.865 101.344Z" fill="#D0CDE1"/>
<path d="M52.7664 275.197C79.6896 275.197 101.515 253.386 101.515 226.48C101.515 199.574 79.6896 177.762 52.7664 177.762C25.8432 177.762 4.01758 199.574 4.01758 226.48C4.01758 253.386 25.8432 275.197 52.7664 275.197Z" fill="#3F3D56"/>
<path opacity="0.1" d="M52.7655 268.377C75.9195 268.377 94.6895 249.619 94.6895 226.48C94.6895 203.341 75.9195 184.583 52.7655 184.583C29.6116 184.583 10.8416 203.341 10.8416 226.48C10.8416 249.619 29.6116 268.377 52.7655 268.377Z" fill="black"/>
<path d="M50.7578 251.203V245.105C47.6733 245.045 44.4823 243.958 42.6211 242.448L43.8973 238.403C46.1092 240.06 48.7916 240.969 51.5555 240.999C55.3315 240.999 57.8842 238.524 57.8842 235.082C57.8842 231.762 55.81 229.709 51.8746 227.897C46.4501 225.483 43.0997 222.705 43.0997 217.453C43.0997 212.441 46.2374 208.637 51.1302 207.732V201.634H54.4273V207.49C56.886 207.524 59.2842 208.257 61.3411 209.603L60.0113 213.588C58.0387 212.239 55.7011 211.523 53.3105 211.536C49.2157 211.536 47.6733 214.313 47.6733 216.728C47.6733 219.867 49.641 221.437 54.2679 223.611C59.7454 226.147 62.5111 229.286 62.5111 234.66C62.5111 239.429 59.586 243.897 54.1082 244.923V251.203H50.7578Z" fill="#297CE0"/>
<path d="M104.264 325.575C69.8424 330.705 34.85 330.705 0.428711 325.575V313.883C34.8866 318.494 69.8059 318.494 104.264 313.883V325.575Z" fill="#3F3D56"/>
<path d="M104.264 307.549C69.8424 312.679 34.85 312.679 0.428711 307.549V295.857C34.8866 300.469 69.8059 300.469 104.264 295.857V307.549Z" fill="#3F3D56"/>
<path d="M104.264 289.524C69.8424 294.654 34.85 294.654 0.428711 289.524V277.832C34.8866 282.444 69.8059 282.444 104.264 277.832V289.524Z" fill="#3F3D56"/>
</svg>
