<svg width="65" height="29" viewBox="0 0 65 29" fill="none" xmlns="http://www.w3.org/2000/svg">
<path d="M3.996 8.994C3.996 9.306 4.092 9.528 4.284 9.66C4.488 9.792 4.77 9.858 5.13 9.858C5.31 9.858 5.496 9.846 5.688 9.822C5.88 9.786 6.048 9.744 6.192 9.696C6.3 9.828 6.39 9.978 6.462 10.146C6.546 10.302 6.588 10.494 6.588 10.722C6.588 11.178 6.414 11.55 6.066 11.838C5.73 12.126 5.13 12.27 4.266 12.27C3.21 12.27 2.394 12.03 1.818 11.55C1.254 11.07 0.972 10.29 0.972 9.21V1.506C1.104 1.47 1.29 1.434 1.53 1.398C1.782 1.35 2.046 1.326 2.322 1.326C2.85 1.326 3.258 1.422 3.546 1.614C3.846 1.794 3.996 2.184 3.996 2.784V3.936H6.354C6.426 4.068 6.492 4.236 6.552 4.44C6.624 4.632 6.66 4.848 6.66 5.088C6.66 5.508 6.564 5.814 6.372 6.006C6.192 6.186 5.946 6.276 5.634 6.276H3.996V8.994ZM11.887 10.056C12.091 10.056 12.313 10.038 12.553 10.002C12.805 9.954 12.991 9.894 13.111 9.822V8.382L11.815 8.49C11.479 8.514 11.203 8.586 10.987 8.706C10.771 8.826 10.663 9.006 10.663 9.246C10.663 9.486 10.753 9.684 10.933 9.84C11.125 9.984 11.443 10.056 11.887 10.056ZM11.743 2.982C12.391 2.982 12.979 3.048 13.507 3.18C14.047 3.312 14.503 3.516 14.875 3.792C15.259 4.056 15.553 4.398 15.757 4.818C15.961 5.226 16.063 5.712 16.063 6.276V10.308C16.063 10.62 15.973 10.878 15.793 11.082C15.625 11.274 15.421 11.442 15.181 11.586C14.401 12.054 13.303 12.288 11.887 12.288C11.251 12.288 10.675 12.228 10.159 12.108C9.65503 11.988 9.21703 11.808 8.84503 11.568C8.48503 11.328 8.20303 11.022 7.99903 10.65C7.80703 10.278 7.71103 9.846 7.71103 9.354C7.71103 8.526 7.95703 7.89 8.44903 7.446C8.94103 7.002 9.70303 6.726 10.735 6.618L13.093 6.366V6.24C13.093 5.892 12.937 5.646 12.625 5.502C12.325 5.346 11.887 5.268 11.311 5.268C10.855 5.268 10.411 5.316 9.97903 5.412C9.54703 5.508 9.15703 5.628 8.80903 5.772C8.65303 5.664 8.52103 5.502 8.41303 5.286C8.30503 5.058 8.25103 4.824 8.25103 4.584C8.25103 4.272 8.32303 4.026 8.46703 3.846C8.62303 3.654 8.85703 3.492 9.16903 3.36C9.51703 3.228 9.92503 3.132 10.393 3.072C10.873 3.012 11.323 2.982 11.743 2.982ZM26.484 10.416C26.424 10.98 26.256 11.412 25.98 11.712C25.716 12.012 25.326 12.162 24.81 12.162C24.426 12.162 24.084 12.072 23.784 11.892C23.484 11.7 23.16 11.382 22.812 10.938L21.03 8.706V11.982C20.898 12.006 20.7 12.036 20.436 12.072C20.184 12.12 19.926 12.144 19.662 12.144C19.398 12.144 19.158 12.126 18.942 12.09C18.738 12.054 18.564 11.982 18.42 11.874C18.276 11.766 18.162 11.622 18.078 11.442C18.006 11.25 17.97 11.004 17.97 10.704V0.282C18.102 0.245999 18.294 0.209999 18.546 0.174C18.81 0.126 19.074 0.102 19.338 0.102C19.602 0.102 19.836 0.12 20.04 0.155999C20.256 0.191999 20.436 0.263999 20.58 0.372C20.724 0.48 20.832 0.629999 20.904 0.821999C20.988 1.002 21.03 1.242 21.03 1.542V6.294L24.126 3.126C24.75 3.126 25.248 3.264 25.62 3.54C26.004 3.816 26.196 4.164 26.196 4.584C26.196 4.764 26.166 4.932 26.106 5.088C26.046 5.232 25.95 5.382 25.818 5.538C25.698 5.694 25.536 5.862 25.332 6.042C25.14 6.21 24.912 6.408 24.648 6.636L23.604 7.536L26.484 10.416ZM32.1401 12.288C31.4321 12.288 30.7721 12.192 30.1601 12C29.5601 11.796 29.0321 11.496 28.5761 11.1C28.1321 10.704 27.7781 10.206 27.5141 9.606C27.2621 9.006 27.1361 8.304 27.1361 7.5C27.1361 6.708 27.2621 6.03 27.5141 5.466C27.7781 4.89 28.1201 4.422 28.5401 4.062C28.9601 3.69 29.4401 3.42 29.9801 3.252C30.5201 3.072 31.0721 2.982 31.6361 2.982C32.2721 2.982 32.8481 3.078 33.3641 3.27C33.8921 3.462 34.3421 3.726 34.7141 4.062C35.0981 4.398 35.3921 4.8 35.5961 5.268C35.8121 5.736 35.9201 6.246 35.9201 6.798C35.9201 7.206 35.8061 7.518 35.5781 7.734C35.3501 7.95 35.0321 8.088 34.6241 8.148L30.1781 8.814C30.3101 9.21 30.5801 9.51 30.9881 9.714C31.3961 9.906 31.8641 10.002 32.3921 10.002C32.8841 10.002 33.3461 9.942 33.7781 9.822C34.2221 9.69 34.5821 9.54 34.8581 9.372C35.0501 9.492 35.2121 9.66 35.3441 9.876C35.4761 10.092 35.5421 10.32 35.5421 10.56C35.5421 11.1 35.2901 11.502 34.7861 11.766C34.4021 11.97 33.9701 12.108 33.4901 12.18C33.0101 12.252 32.5601 12.288 32.1401 12.288ZM31.6361 5.214C31.3481 5.214 31.0961 5.262 30.8801 5.358C30.6761 5.454 30.5081 5.58 30.3761 5.736C30.2441 5.88 30.1421 6.048 30.0701 6.24C30.0101 6.42 29.9741 6.606 29.9621 6.798L33.0401 6.294C33.0041 6.054 32.8721 5.814 32.6441 5.574C32.4161 5.334 32.0801 5.214 31.6361 5.214ZM45.1905 2.982C45.6825 2.982 46.1625 3.054 46.6305 3.198C47.1105 3.33 47.5245 3.534 47.8725 3.81C48.2325 3.57 48.6345 3.372 49.0785 3.216C49.5345 3.06 50.0805 2.982 50.7165 2.982C51.1725 2.982 51.6165 3.042 52.0485 3.162C52.4925 3.282 52.8825 3.474 53.2185 3.738C53.5665 3.99 53.8425 4.332 54.0465 4.764C54.2505 5.184 54.3525 5.7 54.3525 6.312V11.982C54.2325 12.018 54.0405 12.054 53.7765 12.09C53.5245 12.126 53.2605 12.144 52.9845 12.144C52.7205 12.144 52.4805 12.126 52.2645 12.09C52.0605 12.054 51.8865 11.982 51.7425 11.874C51.5985 11.766 51.4845 11.622 51.4005 11.442C51.3285 11.25 51.2925 11.004 51.2925 10.704V6.402C51.2925 6.042 51.1905 5.784 50.9865 5.628C50.7825 5.46 50.5065 5.376 50.1585 5.376C49.9905 5.376 49.8105 5.418 49.6185 5.502C49.4265 5.574 49.2825 5.652 49.1865 5.736C49.1985 5.784 49.2045 5.832 49.2045 5.88C49.2045 5.916 49.2045 5.952 49.2045 5.988V11.982C49.0725 12.018 48.8745 12.054 48.6105 12.09C48.3585 12.126 48.1005 12.144 47.8365 12.144C47.5725 12.144 47.3325 12.126 47.1165 12.09C46.9125 12.054 46.7385 11.982 46.5945 11.874C46.4505 11.766 46.3365 11.622 46.2525 11.442C46.1805 11.25 46.1445 11.004 46.1445 10.704V6.402C46.1445 6.042 46.0305 5.784 45.8025 5.628C45.5865 5.46 45.3225 5.376 45.0105 5.376C44.7945 5.376 44.6085 5.412 44.4525 5.484C44.2965 5.544 44.1645 5.604 44.0565 5.664V11.982C43.9365 12.018 43.7445 12.054 43.4805 12.09C43.2285 12.126 42.9645 12.144 42.6885 12.144C42.4245 12.144 42.1845 12.126 41.9685 12.09C41.7645 12.054 41.5905 11.982 41.4465 11.874C41.3025 11.766 41.1885 11.622 41.1045 11.442C41.0325 11.25 40.9965 11.004 40.9965 10.704V5.268C40.9965 4.944 41.0625 4.686 41.1945 4.494C41.3385 4.302 41.5305 4.122 41.7705 3.954C42.1785 3.666 42.6825 3.432 43.2825 3.252C43.8945 3.072 44.5305 2.982 45.1905 2.982ZM60.8452 12.288C60.1372 12.288 59.4772 12.192 58.8652 12C58.2652 11.796 57.7372 11.496 57.2812 11.1C56.8372 10.704 56.4832 10.206 56.2192 9.606C55.9672 9.006 55.8412 8.304 55.8412 7.5C55.8412 6.708 55.9672 6.03 56.2192 5.466C56.4832 4.89 56.8252 4.422 57.2452 4.062C57.6652 3.69 58.1452 3.42 58.6852 3.252C59.2252 3.072 59.7772 2.982 60.3412 2.982C60.9772 2.982 61.5532 3.078 62.0692 3.27C62.5972 3.462 63.0472 3.726 63.4192 4.062C63.8032 4.398 64.0972 4.8 64.3012 5.268C64.5172 5.736 64.6252 6.246 64.6252 6.798C64.6252 7.206 64.5112 7.518 64.2832 7.734C64.0552 7.95 63.7372 8.088 63.3292 8.148L58.8832 8.814C59.0152 9.21 59.2852 9.51 59.6932 9.714C60.1012 9.906 60.5692 10.002 61.0972 10.002C61.5892 10.002 62.0512 9.942 62.4832 9.822C62.9272 9.69 63.2872 9.54 63.5632 9.372C63.7552 9.492 63.9172 9.66 64.0492 9.876C64.1812 10.092 64.2472 10.32 64.2472 10.56C64.2472 11.1 63.9952 11.502 63.4912 11.766C63.1072 11.97 62.6752 12.108 62.1952 12.18C61.7152 12.252 61.2652 12.288 60.8452 12.288ZM60.3412 5.214C60.0532 5.214 59.8012 5.262 59.5852 5.358C59.3812 5.454 59.2132 5.58 59.0812 5.736C58.9492 5.88 58.8472 6.048 58.7752 6.24C58.7152 6.42 58.6792 6.606 58.6672 6.798L61.7452 6.294C61.7092 6.054 61.5772 5.814 61.3492 5.574C61.1212 5.334 60.7852 5.214 60.3412 5.214ZM4.05 27.982C3.918 28.006 3.72 28.036 3.456 28.072C3.204 28.12 2.946 28.144 2.682 28.144C2.418 28.144 2.178 28.126 1.962 28.09C1.758 28.054 1.584 27.982 1.44 27.874C1.296 27.766 1.182 27.622 1.098 27.442C1.026 27.25 0.99 27.004 0.99 26.704V16.264C1.122 16.24 1.314 16.21 1.566 16.174C1.83 16.126 2.094 16.102 2.358 16.102C2.622 16.102 2.856 16.12 3.06 16.156C3.276 16.192 3.456 16.264 3.6 16.372C3.744 16.48 3.852 16.63 3.924 16.822C4.008 17.002 4.05 17.242 4.05 17.542V27.982ZM15.0349 23.626C15.0349 24.37 14.9209 25.036 14.6929 25.624C14.4649 26.2 14.1409 26.686 13.7209 27.082C13.3129 27.478 12.8209 27.778 12.2449 27.982C11.6689 28.186 11.0269 28.288 10.3189 28.288C9.61092 28.288 8.96892 28.18 8.39292 27.964C7.81692 27.748 7.31892 27.442 6.89892 27.046C6.49092 26.638 6.17292 26.146 5.94492 25.57C5.71692 24.994 5.60292 24.346 5.60292 23.626C5.60292 22.918 5.71692 22.276 5.94492 21.7C6.17292 21.124 6.49092 20.638 6.89892 20.242C7.31892 19.834 7.81692 19.522 8.39292 19.306C8.96892 19.09 9.61092 18.982 10.3189 18.982C11.0269 18.982 11.6689 19.096 12.2449 19.324C12.8209 19.54 13.3129 19.852 13.7209 20.26C14.1409 20.656 14.4649 21.142 14.6929 21.718C14.9209 22.294 15.0349 22.93 15.0349 23.626ZM8.73492 23.626C8.73492 24.358 8.87292 24.922 9.14892 25.318C9.43692 25.702 9.83292 25.894 10.3369 25.894C10.8409 25.894 11.2249 25.696 11.4889 25.3C11.7649 24.904 11.9029 24.346 11.9029 23.626C11.9029 22.906 11.7649 22.354 11.4889 21.97C11.2129 21.574 10.8229 21.376 10.3189 21.376C9.81492 21.376 9.42492 21.574 9.14892 21.97C8.87292 22.354 8.73492 22.906 8.73492 23.626ZM22.1493 27.766C21.9813 27.898 21.7353 28.006 21.4113 28.09C21.0873 28.174 20.7213 28.216 20.3133 28.216C19.8453 28.216 19.4373 28.156 19.0893 28.036C18.7533 27.916 18.5193 27.724 18.3873 27.46C18.2793 27.256 18.1473 26.974 17.9913 26.614C17.8473 26.242 17.6913 25.834 17.5233 25.39C17.3553 24.934 17.1813 24.448 17.0013 23.932C16.8213 23.416 16.6473 22.906 16.4793 22.402C16.3233 21.898 16.1793 21.412 16.0473 20.944C15.9153 20.476 15.8073 20.062 15.7233 19.702C15.8913 19.534 16.1133 19.39 16.3893 19.27C16.6773 19.138 16.9893 19.072 17.3253 19.072C17.7453 19.072 18.0873 19.162 18.3513 19.342C18.6273 19.51 18.8313 19.834 18.9633 20.314L19.6653 23.068C19.7973 23.608 19.9233 24.1 20.0433 24.544C20.1633 24.976 20.2533 25.312 20.3133 25.552H20.4033C20.6313 24.664 20.8713 23.68 21.1233 22.6C21.3753 21.52 21.6033 20.458 21.8073 19.414C22.0113 19.306 22.2393 19.222 22.4913 19.162C22.7553 19.102 23.0073 19.072 23.2473 19.072C23.6673 19.072 24.0213 19.162 24.3093 19.342C24.5973 19.522 24.7413 19.834 24.7413 20.278C24.7413 20.47 24.6933 20.752 24.5973 21.124C24.5133 21.484 24.3993 21.898 24.2553 22.366C24.1233 22.822 23.9613 23.308 23.7693 23.824C23.5893 24.34 23.4033 24.844 23.2113 25.336C23.0193 25.828 22.8273 26.29 22.6353 26.722C22.4553 27.142 22.2933 27.49 22.1493 27.766ZM30.646 28.288C29.938 28.288 29.278 28.192 28.666 28C28.066 27.796 27.538 27.496 27.082 27.1C26.638 26.704 26.284 26.206 26.02 25.606C25.768 25.006 25.642 24.304 25.642 23.5C25.642 22.708 25.768 22.03 26.02 21.466C26.284 20.89 26.626 20.422 27.046 20.062C27.466 19.69 27.946 19.42 28.486 19.252C29.026 19.072 29.578 18.982 30.142 18.982C30.778 18.982 31.354 19.078 31.87 19.27C32.398 19.462 32.848 19.726 33.22 20.062C33.604 20.398 33.898 20.8 34.102 21.268C34.318 21.736 34.426 22.246 34.426 22.798C34.426 23.206 34.312 23.518 34.084 23.734C33.856 23.95 33.538 24.088 33.13 24.148L28.684 24.814C28.816 25.21 29.086 25.51 29.494 25.714C29.902 25.906 30.37 26.002 30.898 26.002C31.39 26.002 31.852 25.942 32.284 25.822C32.728 25.69 33.088 25.54 33.364 25.372C33.556 25.492 33.718 25.66 33.85 25.876C33.982 26.092 34.048 26.32 34.048 26.56C34.048 27.1 33.796 27.502 33.292 27.766C32.908 27.97 32.476 28.108 31.996 28.18C31.516 28.252 31.066 28.288 30.646 28.288ZM30.142 21.214C29.854 21.214 29.602 21.262 29.386 21.358C29.182 21.454 29.014 21.58 28.882 21.736C28.75 21.88 28.648 22.048 28.576 22.24C28.516 22.42 28.48 22.606 28.468 22.798L31.546 22.294C31.51 22.054 31.378 21.814 31.15 21.574C30.922 21.334 30.586 21.214 30.142 21.214Z" fill="#1E6AFF"/>
</svg>
