<svg width="112" height="38" viewBox="0 0 112 38" fill="none" xmlns="http://www.w3.org/2000/svg">
<path d="M52.9854 14.9523C52.9854 15.2529 53.0779 15.4668 53.2629 15.5939C53.4594 15.7211 53.7311 15.7847 54.078 15.7847C54.2514 15.7847 54.4306 15.7731 54.6156 15.75C54.8005 15.7153 54.9624 15.6749 55.1011 15.6286C55.2052 15.7558 55.2919 15.9003 55.3613 16.0622C55.4422 16.2125 55.4826 16.3974 55.4826 16.6171C55.4826 17.0564 55.315 17.4148 54.9797 17.6923C54.656 17.9698 54.078 18.1085 53.2455 18.1085C52.2281 18.1085 51.442 17.8773 50.887 17.4148C50.3437 16.9524 50.072 16.2009 50.072 15.1604V7.73804C50.1991 7.70336 50.3783 7.66867 50.6096 7.63399C50.8523 7.58774 51.1067 7.56462 51.3726 7.56462C51.8813 7.56462 52.2744 7.65711 52.5519 7.84209C52.8409 8.01551 52.9854 8.39125 52.9854 8.96932V10.0792H55.2572C55.3266 10.2064 55.3902 10.3682 55.448 10.5648C55.5173 10.7498 55.552 10.9579 55.552 11.1891C55.552 11.5937 55.4595 11.8885 55.2745 12.0735C55.1011 12.2469 54.8641 12.3337 54.5635 12.3337H52.9854V14.9523ZM60.588 15.9755C60.7845 15.9755 60.9984 15.9581 61.2296 15.9234C61.4724 15.8772 61.6516 15.8194 61.7672 15.75V14.3627L60.5186 14.4667C60.1949 14.4898 59.929 14.5592 59.7209 14.6748C59.5128 14.7904 59.4087 14.9638 59.4087 15.1951C59.4087 15.4263 59.4954 15.6171 59.6688 15.7674C59.8538 15.9061 60.1602 15.9755 60.588 15.9755ZM60.4492 9.16008C61.0735 9.16008 61.64 9.22367 62.1487 9.35084C62.669 9.47801 63.1083 9.67456 63.4667 9.94047C63.8367 10.1948 64.1199 10.5243 64.3165 10.929C64.513 11.322 64.6113 11.7903 64.6113 12.3337V16.2182C64.6113 16.5188 64.5246 16.7674 64.3512 16.9639C64.1893 17.1489 63.9928 17.3108 63.7615 17.4495C63.01 17.9004 61.9522 18.1259 60.588 18.1259C59.9752 18.1259 59.4203 18.0681 58.9231 17.9524C58.4376 17.8368 58.0156 17.6634 57.6572 17.4322C57.3103 17.201 57.0386 16.9061 56.8421 16.5477C56.6571 16.1893 56.5646 15.7731 56.5646 15.2991C56.5646 14.5014 56.8016 13.8886 57.2756 13.4609C57.7497 13.0331 58.4838 12.7672 59.4781 12.6631L61.7499 12.4204V12.299C61.7499 11.9637 61.5996 11.7267 61.299 11.5879C61.0099 11.4377 60.588 11.3625 60.033 11.3625C59.5937 11.3625 59.1659 11.4087 58.7497 11.5012C58.3335 11.5937 57.9578 11.7093 57.6225 11.8481C57.4722 11.744 57.345 11.5879 57.241 11.3798C57.1369 11.1602 57.0849 10.9347 57.0849 10.7035C57.0849 10.4029 57.1542 10.1659 57.293 9.99249C57.4433 9.80751 57.6687 9.65143 57.9693 9.52426C58.3046 9.39708 58.6977 9.30459 59.1486 9.24679C59.611 9.18898 60.0446 9.16008 60.4492 9.16008ZM74.6513 16.3223C74.5935 16.8657 74.4316 17.2819 74.1657 17.5709C73.9114 17.8599 73.5356 18.0045 73.0385 18.0045C72.6686 18.0045 72.3391 17.9178 72.05 17.7443C71.761 17.5594 71.4488 17.253 71.1136 16.8252L69.3967 14.6748V17.831C69.2695 17.8542 69.0788 17.8831 68.8244 17.9178C68.5816 17.964 68.3331 17.9871 68.0787 17.9871C67.8244 17.9871 67.5931 17.9698 67.385 17.9351C67.1885 17.9004 67.0209 17.831 66.8821 17.727C66.7434 17.6229 66.6336 17.4842 66.5526 17.3108C66.4833 17.1258 66.4486 16.8888 66.4486 16.5998V6.55879C66.5758 6.5241 66.7607 6.48942 67.0035 6.45474C67.2579 6.40849 67.5122 6.38537 67.7666 6.38537C68.0209 6.38537 68.2464 6.40271 68.4429 6.43739C68.651 6.47208 68.8244 6.54145 68.9632 6.6455C69.1019 6.74955 69.2059 6.89407 69.2753 7.07905C69.3562 7.25247 69.3967 7.48369 69.3967 7.77272V12.351L72.3795 9.29881C72.9807 9.29881 73.4605 9.43177 73.8189 9.69768C74.1889 9.96359 74.3738 10.2989 74.3738 10.7035C74.3738 10.8769 74.3449 11.0388 74.2871 11.1891C74.2293 11.3278 74.1368 11.4723 74.0097 11.6226C73.894 11.7729 73.738 11.9348 73.5414 12.1082C73.3564 12.2701 73.1368 12.4608 72.8824 12.6805L71.8766 13.5476L74.6513 16.3223ZM80.1006 18.1259C79.4185 18.1259 78.7826 18.0334 78.193 17.8484C77.6149 17.6518 77.1062 17.3628 76.6669 16.9813C76.2391 16.5998 75.8981 16.12 75.6437 15.5419C75.4009 14.9638 75.2796 14.2875 75.2796 13.5129C75.2796 12.7499 75.4009 12.0966 75.6437 11.5533C75.8981 10.9983 76.2276 10.5474 76.6322 10.2006C77.0369 9.84219 77.4993 9.58207 78.0196 9.42021C78.5398 9.24679 79.0717 9.16008 79.615 9.16008C80.2278 9.16008 80.7827 9.25257 81.2799 9.43755C81.7886 9.62253 82.2221 9.87688 82.5805 10.2006C82.9505 10.5243 83.2337 10.9116 83.4303 11.3625C83.6384 11.8134 83.7424 12.3047 83.7424 12.8366C83.7424 13.2297 83.6326 13.5302 83.4129 13.7383C83.1933 13.9465 82.8869 14.0794 82.4938 14.1372L78.2103 14.7789C78.3375 15.1604 78.5976 15.4494 78.9907 15.646C79.3838 15.8309 79.8347 15.9234 80.3434 15.9234C80.8174 15.9234 81.2625 15.8656 81.6787 15.75C82.1065 15.6228 82.4533 15.4783 82.7192 15.3165C82.9042 15.4321 83.0603 15.5939 83.1875 15.802C83.3146 16.0101 83.3782 16.2298 83.3782 16.461C83.3782 16.9813 83.1354 17.3686 82.6499 17.6229C82.2799 17.8195 81.8637 17.9524 81.4013 18.0218C80.9388 18.0912 80.5053 18.1259 80.1006 18.1259ZM79.615 11.3105C79.3376 11.3105 79.0948 11.3567 78.8867 11.4492C78.6901 11.5417 78.5283 11.6631 78.4011 11.8134C78.2739 11.9521 78.1757 12.114 78.1063 12.299C78.0485 12.4724 78.0138 12.6516 78.0022 12.8366L80.9677 12.351C80.933 12.1198 80.8058 11.8885 80.5862 11.6573C80.3665 11.4261 80.0428 11.3105 79.615 11.3105ZM92.6739 9.16008C93.1479 9.16008 93.6104 9.22945 94.0613 9.36818C94.5237 9.49536 94.9226 9.6919 95.2579 9.95781C95.6047 9.72658 95.992 9.53582 96.4198 9.38552C96.8591 9.23523 97.3851 9.16008 97.9979 9.16008C98.4372 9.16008 98.865 9.21788 99.2812 9.3335C99.709 9.44911 100.085 9.63409 100.408 9.88844C100.744 10.1312 101.01 10.4607 101.206 10.8769C101.403 11.2816 101.501 11.7787 101.501 12.3683V17.831C101.385 17.8657 101.2 17.9004 100.946 17.9351C100.703 17.9698 100.449 17.9871 100.183 17.9871C99.9286 17.9871 99.6974 17.9698 99.4893 17.9351C99.2928 17.9004 99.1251 17.831 98.9864 17.727C98.8476 17.6229 98.7378 17.4842 98.6569 17.3108C98.5875 17.1258 98.5528 16.8888 98.5528 16.5998V12.455C98.5528 12.1082 98.4546 11.8596 98.258 11.7093C98.0615 11.5475 97.7956 11.4666 97.4603 11.4666C97.2984 11.4666 97.125 11.507 96.94 11.5879C96.7551 11.6573 96.6163 11.7325 96.5238 11.8134C96.5354 11.8596 96.5412 11.9059 96.5412 11.9521C96.5412 11.9868 96.5412 12.0215 96.5412 12.0562V17.831C96.414 17.8657 96.2232 17.9004 95.9689 17.9351C95.7261 17.9698 95.4775 17.9871 95.2232 17.9871C94.9688 17.9871 94.7376 17.9698 94.5295 17.9351C94.333 17.9004 94.1653 17.831 94.0266 17.727C93.8879 17.6229 93.778 17.4842 93.6971 17.3108C93.6277 17.1258 93.593 16.8888 93.593 16.5998V12.455C93.593 12.1082 93.4832 11.8596 93.2635 11.7093C93.0554 11.5475 92.8011 11.4666 92.5005 11.4666C92.2924 11.4666 92.1132 11.5012 91.9629 11.5706C91.8126 11.6284 91.6854 11.6862 91.5814 11.744V17.831C91.4658 17.8657 91.2808 17.9004 91.0264 17.9351C90.7836 17.9698 90.5293 17.9871 90.2634 17.9871C90.009 17.9871 89.7778 17.9698 89.5697 17.9351C89.3732 17.9004 89.2055 17.831 89.0668 17.727C88.9281 17.6229 88.8182 17.4842 88.7373 17.3108C88.6679 17.1258 88.6332 16.8888 88.6332 16.5998V11.3625C88.6332 11.0503 88.6968 10.8018 88.824 10.6168C88.9627 10.4318 89.1477 10.2584 89.379 10.0965C89.772 9.81907 90.2576 9.59363 90.8357 9.42021C91.4253 9.24679 92.038 9.16008 92.6739 9.16008ZM107.756 18.1259C107.074 18.1259 106.438 18.0334 105.849 17.8484C105.271 17.6518 104.762 17.3628 104.323 16.9813C103.895 16.5998 103.554 16.12 103.299 15.5419C103.057 14.9638 102.935 14.2875 102.935 13.5129C102.935 12.7499 103.057 12.0966 103.299 11.5533C103.554 10.9983 103.883 10.5474 104.288 10.2006C104.693 9.84219 105.155 9.58207 105.675 9.42021C106.195 9.24679 106.727 9.16008 107.271 9.16008C107.883 9.16008 108.438 9.25257 108.936 9.43755C109.444 9.62253 109.878 9.87688 110.236 10.2006C110.606 10.5243 110.889 10.9116 111.086 11.3625C111.294 11.8134 111.398 12.3047 111.398 12.8366C111.398 13.2297 111.288 13.5302 111.069 13.7383C110.849 13.9465 110.543 14.0794 110.149 14.1372L105.866 14.7789C105.993 15.1604 106.253 15.4494 106.646 15.646C107.039 15.8309 107.49 15.9234 107.999 15.9234C108.473 15.9234 108.918 15.8656 109.334 15.75C109.762 15.6228 110.109 15.4783 110.375 15.3165C110.56 15.4321 110.716 15.5939 110.843 15.802C110.97 16.0101 111.034 16.2298 111.034 16.461C111.034 16.9813 110.791 17.3686 110.306 17.6229C109.936 17.8195 109.519 17.9524 109.057 18.0218C108.594 18.0912 108.161 18.1259 107.756 18.1259ZM107.271 11.3105C106.993 11.3105 106.75 11.3567 106.542 11.4492C106.346 11.5417 106.184 11.6631 106.057 11.8134C105.93 11.9521 105.831 12.114 105.762 12.299C105.704 12.4724 105.669 12.6516 105.658 12.8366L108.623 12.351C108.589 12.1198 108.461 11.8885 108.242 11.6573C108.022 11.4261 107.698 11.3105 107.271 11.3105ZM53.0374 32.831C52.9103 32.8542 52.7195 32.8831 52.4651 32.9178C52.2224 32.964 51.9738 32.9871 51.7194 32.9871C51.4651 32.9871 51.2339 32.9698 51.0258 32.9351C50.8292 32.9004 50.6616 32.831 50.5229 32.727C50.3841 32.6229 50.2743 32.4842 50.1934 32.3108C50.124 32.1258 50.0893 31.8888 50.0893 31.5998V21.5414C50.2165 21.5183 50.4015 21.4894 50.6442 21.4547C50.8986 21.4085 51.1529 21.3854 51.4073 21.3854C51.6616 21.3854 51.8871 21.4027 52.0836 21.4374C52.2917 21.4721 52.4651 21.5414 52.6039 21.6455C52.7426 21.7495 52.8467 21.8941 52.916 22.079C52.997 22.2525 53.0374 22.4837 53.0374 22.7727V32.831ZM63.6208 28.6343C63.6208 29.3511 63.5109 29.9927 63.2913 30.5593C63.0716 31.1142 62.7594 31.5824 62.3548 31.9639C61.9617 32.3455 61.4877 32.6345 60.9328 32.831C60.3778 33.0276 59.7593 33.1259 59.0772 33.1259C58.3951 33.1259 57.7765 33.0218 57.2216 32.8137C56.6666 32.6056 56.1868 32.3108 55.7822 31.9293C55.3891 31.5362 55.0827 31.0622 54.8631 30.5072C54.6434 29.9523 54.5336 29.328 54.5336 28.6343C54.5336 27.9522 54.6434 27.3337 54.8631 26.7787C55.0827 26.2238 55.3891 25.7555 55.7822 25.374C56.1868 24.9809 56.6666 24.6803 57.2216 24.4722C57.7765 24.2641 58.3951 24.1601 59.0772 24.1601C59.7593 24.1601 60.3778 24.2699 60.9328 24.4896C61.4877 24.6977 61.9617 24.9983 62.3548 25.3914C62.7594 25.7729 63.0716 26.2411 63.2913 26.7961C63.5109 27.351 63.6208 27.9637 63.6208 28.6343ZM57.5511 28.6343C57.5511 29.3395 57.684 29.8829 57.9499 30.2644C58.2274 30.6344 58.6089 30.8194 59.0945 30.8194C59.5801 30.8194 59.95 30.6286 60.2044 30.2471C60.4703 29.8656 60.6033 29.328 60.6033 28.6343C60.6033 27.9406 60.4703 27.4088 60.2044 27.0388C59.9385 26.6573 59.5627 26.4666 59.0772 26.4666C58.5916 26.4666 58.2159 26.6573 57.9499 27.0388C57.684 27.4088 57.5511 27.9406 57.5511 28.6343ZM70.475 32.6229C70.3132 32.7501 70.0762 32.8542 69.764 32.9351C69.4518 33.016 69.0992 33.0565 68.7061 33.0565C68.2553 33.0565 67.8622 32.9987 67.5269 32.8831C67.2032 32.7675 66.9777 32.5825 66.8506 32.3281C66.7465 32.1316 66.6193 31.8599 66.469 31.5131C66.3303 31.1547 66.18 30.7616 66.0181 30.3338C65.8563 29.8945 65.6886 29.4262 65.5152 28.9291C65.3418 28.432 65.1742 27.9406 65.0123 27.455C64.862 26.9695 64.7233 26.5012 64.5961 26.0503C64.4689 25.5995 64.3649 25.2006 64.284 24.8538C64.4458 24.6919 64.6597 24.5532 64.9256 24.4375C65.2031 24.3104 65.5037 24.2468 65.8274 24.2468C66.232 24.2468 66.5615 24.3335 66.8159 24.5069C67.0818 24.6688 67.2783 24.9809 67.4055 25.4434L68.0818 28.0967C68.209 28.617 68.3304 29.091 68.446 29.5187C68.5616 29.9349 68.6483 30.2587 68.7061 30.4899H68.7929C69.0125 29.6343 69.2437 28.6863 69.4865 27.6458C69.7293 26.6053 69.949 25.5821 70.1455 24.5763C70.3421 24.4722 70.5617 24.3913 70.8045 24.3335C71.0589 24.2757 71.3017 24.2468 71.5329 24.2468C71.9375 24.2468 72.2786 24.3335 72.5561 24.5069C72.8335 24.6803 72.9723 24.9809 72.9723 25.4087C72.9723 25.5937 72.926 25.8654 72.8335 26.2238C72.7526 26.5706 72.6428 26.9695 72.504 27.4204C72.3769 27.8597 72.2208 28.3279 72.0358 28.8251C71.8624 29.3222 71.6832 29.8078 71.4982 30.2818C71.3132 30.7558 71.1282 31.2009 70.9433 31.6171C70.7698 32.0218 70.6138 32.357 70.475 32.6229ZM78.6611 33.1259C77.979 33.1259 77.3431 33.0334 76.7535 32.8484C76.1754 32.6518 75.6667 32.3628 75.2274 31.9813C74.7996 31.5998 74.4586 31.12 74.2042 30.5419C73.9614 29.9638 73.84 29.2875 73.84 28.5129C73.84 27.7499 73.9614 27.0966 74.2042 26.5533C74.4586 25.9983 74.7881 25.5474 75.1927 25.2006C75.5974 24.8422 76.0598 24.5821 76.5801 24.4202C77.1003 24.2468 77.6321 24.1601 78.1755 24.1601C78.7883 24.1601 79.3432 24.2526 79.8403 24.4375C80.349 24.6225 80.7826 24.8769 81.141 25.2006C81.511 25.5243 81.7942 25.9116 81.9907 26.3625C82.1988 26.8134 82.3029 27.3047 82.3029 27.8366C82.3029 28.2297 82.1931 28.5302 81.9734 28.7383C81.7537 28.9465 81.4474 29.0794 81.0543 29.1372L76.7708 29.7789C76.898 30.1604 77.1581 30.4494 77.5512 30.646C77.9443 30.8309 78.3952 30.9234 78.9039 30.9234C79.3779 30.9234 79.823 30.8656 80.2392 30.75C80.667 30.6228 81.0138 30.4783 81.2797 30.3165C81.4647 30.4321 81.6208 30.5939 81.748 30.802C81.8751 31.0101 81.9387 31.2298 81.9387 31.461C81.9387 31.9813 81.6959 32.3686 81.2104 32.6229C80.8404 32.8195 80.4242 32.9524 79.9617 33.0218C79.4993 33.0912 79.0657 33.1259 78.6611 33.1259ZM78.1755 26.3105C77.898 26.3105 77.6553 26.3567 77.4472 26.4492C77.2506 26.5417 77.0888 26.6631 76.9616 26.8134C76.8344 26.9521 76.7361 27.114 76.6668 27.299C76.609 27.4724 76.5743 27.6516 76.5627 27.8366L79.5282 27.351C79.4935 27.1198 79.3663 26.8885 79.1467 26.6573C78.927 26.4261 78.6033 26.3105 78.1755 26.3105Z" fill="white"/>
<path d="M20.6198 0.0031267C9.37722 -0.180282 0.0458529 7.72892 0.000171061 17.4899C-0.0191471 21.6133 1.59881 25.4078 4.32176 28.4122C6.49517 30.8103 5.20085 34.3656 1.8346 35.2439C1.80369 35.252 1.77267 35.2599 1.74165 35.2679C1.1054 35.4297 1.03528 36.1947 1.63313 36.4434C3.06369 37.0383 4.66551 37.3723 6.3579 37.3723C9.27313 37.3723 11.921 36.3832 13.8846 34.772C14.1832 34.527 14.6095 34.4415 15.0065 34.5335C16.8744 34.966 18.8482 35.1731 20.8877 35.117C31.7678 34.8173 40.4767 26.9923 40.4645 17.5429C40.4522 7.96472 31.6073 0.182331 20.6198 0.0031267Z" fill="#1E6AFF"/>
<path d="M20.332 33.1995C30.4212 33.1995 38.6001 26.0997 38.6001 17.3416C38.6001 8.58349 30.4212 1.48364 20.332 1.48364C10.2429 1.48364 2.06396 8.58349 2.06396 17.3416C2.06396 26.0997 10.2429 33.1995 20.332 33.1995Z" fill="url(#paint0_linear)"/>
<path d="M20.3316 29.6168C19.8603 29.6168 19.3881 29.5052 18.9662 29.2941C17.6912 28.656 15.2014 27.2877 12.8528 25.2932C9.79744 22.6984 7.98653 19.9133 7.47016 17.0151C7.06914 14.7638 7.64176 12.4655 9.04119 10.7096C10.3373 9.0833 12.1738 8.13308 14.2127 8.03364C14.3326 8.02785 14.454 8.02478 14.5736 8.02478C16.4837 8.02478 18.287 8.76092 19.6511 10.0976C19.8974 10.3391 20.1246 10.5952 20.3315 10.8642C20.5386 10.5953 20.7657 10.339 21.0121 10.0976C22.3762 8.76092 24.1795 8.02478 26.0897 8.02478C26.2093 8.02478 26.3307 8.02774 26.4506 8.03364C28.4894 8.13296 30.3261 9.0833 31.6221 10.7097C33.0215 12.4656 33.5941 14.7639 33.193 17.0152C32.6768 19.9133 30.8657 22.6985 27.8104 25.2933C25.4619 27.2878 22.9721 28.6561 21.697 29.2942C21.2753 29.5052 20.8031 29.6168 20.3316 29.6168Z" fill="white"/>
<defs>
<linearGradient id="paint0_linear" x1="19.9302" y1="16.3997" x2="9.43489" y2="-8.20443" gradientUnits="userSpaceOnUse">
<stop stop-color="white" stop-opacity="0"/>
<stop offset="1" stop-color="white"/>
</linearGradient>
</defs>
</svg>
