<svg width="677" height="339" viewBox="0 0 677 339" fill="none" xmlns="http://www.w3.org/2000/svg">
<g clip-path="url(#clip0)">
<path d="M650.811 22.4432H349.47V173.248H650.811V22.4432Z" fill="white"/>
<path d="M314.823 310.016L321.96 307.957C323.227 304.675 324.307 301.324 325.197 297.919L321.845 297.797L325.499 296.743C326.557 292.523 326.991 289.661 326.991 289.661C326.991 289.661 312.516 293.976 301.615 302.397L300.27 311.841L298.983 304.579C297.797 305.633 296.678 306.76 295.633 307.955C285.139 320.031 280.572 333.251 285.433 337.483C290.294 341.715 302.742 335.355 313.236 323.279C316.484 319.358 319.112 314.961 321.028 310.243L314.823 310.016Z" fill="#B2CFF5"/>
<path d="M44.4223 266.989L40.3542 250.929C33.1409 247.869 25.7609 245.219 18.2494 242.992L17.7357 250.455L15.6529 242.233C6.33735 239.57 0 238.397 0 238.397C0 238.397 8.56033 270.979 26.5149 295.887L47.436 299.566L31.183 301.911C33.4424 304.631 35.8706 307.207 38.4532 309.622C64.572 333.888 93.6636 345.021 103.431 334.489C113.198 323.957 99.9427 295.748 73.8238 271.482C65.7267 263.96 55.555 257.923 45.3732 253.172L44.4223 266.989Z" fill="#B7D3F6"/>
<path d="M83.113 249.548L87.9244 233.696C83.3296 227.345 78.3806 221.258 73.1009 215.465L68.8067 221.588L71.2702 213.472C64.6707 206.373 59.8513 202.09 59.8513 202.09C59.8513 202.09 50.353 234.41 52.8591 265.022L68.8689 278.995L53.7443 272.594C54.2735 276.092 55.0221 279.553 55.9854 282.956C65.8127 317.242 84.9667 341.823 98.7672 337.86C112.568 333.898 115.789 302.892 105.961 268.606C102.915 257.978 97.3251 247.547 91.0626 238.213L83.113 249.548Z" fill="#B7D3F7"/>
<path d="M148.196 315.908L149.877 323.475L161.636 322.634L160.796 314.227L148.196 315.908Z" fill="#FFB8B8"/>
<path d="M118.797 315.908L117.118 323.475L105.357 322.634L106.198 314.227L118.797 315.908Z" fill="#FFB8B8"/>
<path d="M115.437 70.4161C124.252 70.4161 131.397 63.2644 131.397 54.4423C131.397 45.6202 124.252 38.4685 115.437 38.4685C106.623 38.4685 99.4778 45.6202 99.4778 54.4423C99.4778 63.2644 106.623 70.4161 115.437 70.4161Z" fill="#FFB8B8"/>
<path d="M105.357 58.6458L101.158 77.9828L122.157 84.7085L121.317 60.3277L105.357 58.6458Z" fill="#FFB8B8"/>
<path d="M112.917 80.5048L102.349 72.4964C102.349 72.4964 100.318 69.5754 99.4777 72.0976C98.6377 74.6197 91.0779 83.8678 91.0779 83.8678L96.9577 152.807L141.477 153.648C141.477 153.648 124.081 73.2833 121.859 76.0533C119.637 78.8234 113.757 78.8233 112.917 80.5048Z" fill="#D0CDE1"/>
<path d="M121.737 70.8364C121.737 70.8364 118.377 74.1993 120.057 76.7215C121.737 79.2437 120.477 83.9206 122.157 84.3145C123.837 84.7084 120.477 113.293 125.517 120.86C130.557 128.426 128.037 147.763 128.037 151.126C128.037 154.489 133.077 174.666 133.077 174.666C133.077 174.666 149.876 176.348 149.876 172.144C149.876 167.94 143.997 138.515 143.997 138.515L149.037 86.3899C149.037 86.3899 149.037 81.3455 143.157 79.6641C137.277 77.9826 125.517 73.779 125.517 73.779L121.737 70.8364Z" fill="#2F2E41"/>
<path d="M145.676 131.789H141.477C141.477 131.789 119.637 133.471 121.317 124.223C122.997 114.975 139.797 121.7 139.797 121.7L144.836 124.223L145.676 131.789Z" fill="#FFB8B8"/>
<path d="M103.017 69.4226C103.017 69.4226 96.1178 73.7789 95.2779 75.4604C94.4379 77.1419 75.1184 86.3898 75.1184 93.1157C75.1184 99.8415 80.9983 107.408 80.9983 107.408L88.5581 181.392C88.5581 181.392 101.158 185.596 101.998 182.233C102.838 178.87 106.198 104.886 104.518 101.523C102.838 98.16 102.838 76.3011 102.838 76.3011L103.017 69.4226Z" fill="#2F2E41"/>
<path d="M80.9982 191.481L80.1582 196.525C80.1582 196.525 80.9982 213.34 87.718 212.499C94.4378 211.658 90.2379 194.844 90.2379 194.844L89.398 191.481H80.9982Z" fill="#FFB8B8"/>
<path d="M91.0779 148.604C91.0779 148.604 91.9179 224.269 96.1178 248.65C100.318 273.031 101.998 315.068 101.998 315.068C101.998 315.068 112.917 316.749 114.597 317.59C116.277 318.43 120.477 315.908 120.477 315.908L121.317 191.481L137.277 247.809C137.277 247.809 139.797 315.908 144.836 317.59C149.876 319.271 164.996 315.908 164.996 315.908C164.996 315.908 159.116 251.172 157.436 248.65C155.756 246.128 151.556 172.144 144.836 158.692L142.317 149.444C142.317 149.444 94.4378 151.126 91.0779 148.604Z" fill="#2F2E41"/>
<path d="M150.716 320.112C150.716 320.112 146.517 316.749 146.517 319.271C146.517 321.793 142.317 337.347 147.357 337.347C152.396 337.347 185.996 340.289 185.156 333.564C184.316 326.838 164.103 316.098 164.103 316.098C164.103 316.098 156.596 318.431 155.756 319.271C154.916 320.112 150.716 320.112 150.716 320.112Z" fill="#2F2E41"/>
<path d="M116.277 320.112C116.277 320.112 120.477 316.749 120.477 319.271C120.477 321.793 124.677 337.347 119.637 337.347C114.597 337.347 80.9983 340.289 81.8382 333.564C82.6782 326.838 102.891 316.098 102.891 316.098C102.891 316.098 110.397 318.431 111.237 319.271C112.077 320.112 116.277 320.112 116.277 320.112Z" fill="#2F2E41"/>
<path d="M143.156 85.5492L149.036 86.3899L160.796 120.019C160.796 120.019 164.156 136.833 159.116 139.356C154.076 141.878 144.564 141.385 144.564 141.385L143.156 122.541L147.356 123.382L143.156 114.975V85.5492Z" fill="#2F2E41"/>
<path d="M79.3181 89.7528L75.1182 93.1157C75.1182 93.1157 70.9183 135.993 71.7583 140.196C72.5983 144.4 77.6381 195.684 77.6381 195.684L91.9178 192.322L81.838 90.5936L79.3181 89.7528Z" fill="#2F2E41"/>
<path d="M97.7812 42.832C97.7812 42.832 93.1347 36.9322 97.7812 33.9823V35.4572C97.7812 35.4572 107.738 24.3951 113.712 27.3451L119.023 25.8701V27.3451L122.342 25.8701L121.678 28.0825H126.325L124.333 29.5575C124.333 29.5575 139.601 28.82 130.307 39.8821C130.307 39.8821 134.725 46.5145 130.525 50.2042C130.525 50.2042 126.988 42.0945 122.342 44.3069C121.083 44.9609 119.663 45.2392 118.251 45.1084C116.839 44.9777 115.494 44.4435 114.376 43.5694C114.376 43.5694 105.083 42.832 106.411 47.2568C107.738 51.6816 107.074 53.1565 107.074 53.1565C107.074 53.1565 103.755 55.369 104.419 56.8439C105.083 58.3189 105.083 62.7437 105.083 62.7437C105.083 62.7437 101.764 57.5814 100.436 58.3189C99.1089 59.0563 91.8071 51.6816 97.7812 42.832Z" fill="#2F2E41"/>
<path d="M279.884 95.6348L244.565 96.5129L239.811 54.361H279.884V95.6348Z" fill="#2F2E41"/>
<path d="M242.498 150.278L229.606 239.743C229.606 239.743 218.432 271.572 217.573 287.057L214.135 309.423L229.606 312.864L245.936 250.066L268.282 193.29L265.704 258.669L260.547 312.004L276.017 314.585L285.472 246.625L295.785 196.731C295.785 196.731 303.521 153.719 291.488 149.418L242.498 150.278Z" fill="#2F2E41"/>
<path d="M228.571 303.933L226.851 324.871C226.851 324.871 245.261 335.524 239.354 337.589C233.447 339.654 225.362 336.997 223.708 336.528C221.961 336.032 218.701 335.242 216.234 334.657C215.092 334.395 214.064 333.774 213.3 332.885C212.537 331.996 212.078 330.885 211.991 329.716L211.986 329.639C211.837 327.062 217.645 304.673 217.645 304.673L228.571 303.933Z" fill="#2F2E41"/>
<path d="M273.279 304.457L274.728 324.477C274.728 324.477 295.693 332.273 290.288 335.43C284.884 338.587 276.441 337.525 274.728 337.381C271.57 337.115 263.71 336.849 263.71 336.849C263.71 336.849 262.257 338.108 261.62 335.608C260.982 333.107 262.47 310.77 262.47 310.77L273.279 304.457Z" fill="#2F2E41"/>
<path d="M260.547 78.0178C269.566 78.0178 276.877 70.7001 276.877 61.6732C276.877 52.6463 269.566 45.3286 260.547 45.3286C251.528 45.3286 244.217 52.6463 244.217 61.6732C244.217 70.7001 251.528 78.0178 260.547 78.0178Z" fill="#FFB8B8"/>
<path d="M251.093 71.1357L247.655 90.0613L262.266 96.9435L265.704 72.8567L251.093 71.1357Z" fill="#FFB8B8"/>
<path d="M249.374 160.601L267.423 173.505C267.423 173.505 275.158 193.29 281.174 189.849C287.191 186.408 274.298 169.204 274.298 169.204L259.687 154.579L249.374 160.601Z" fill="#FFB8B8"/>
<path d="M300.942 154.579L302.661 164.902C302.661 164.902 298.364 186.408 293.207 182.107C288.05 177.806 294.926 164.042 294.926 164.042L294.066 155.44L300.942 154.579Z" fill="#FFB8B8"/>
<path d="M260.547 91.7817L258.828 84.8997L248.514 79.7383L245.076 84.0395L233.903 87.4805L246.795 156.3C246.795 156.3 290.628 158.881 291.488 151.999C292.347 145.117 282.893 126.191 282.893 126.191C282.893 126.191 285.471 116.729 284.612 111.567L281.174 90.9214L267.422 86.6202L264.282 82.8172L261.406 87.4804L260.547 91.7817Z" fill="#D0CDE1"/>
<path d="M236.481 89.201L233.903 87.4805C233.903 87.4805 228.746 88.3407 227.027 95.2227C225.308 102.105 227.027 133.073 231.325 139.095C235.622 145.117 247.655 163.182 247.655 163.182L263.985 155.44L246.795 135.654L242.498 110.707L236.481 89.201Z" fill="#D0CDE1"/>
<path d="M274.298 92.6419L281.174 90.9214C281.174 90.9214 285.472 92.6419 287.191 98.6636C288.909 104.685 298.364 134.794 297.504 137.375C296.645 139.955 305.24 157.16 305.24 157.16L293.207 158.02L286.331 139.955L279.455 121.89L274.298 92.6419Z" fill="#D0CDE1"/>
<path d="M232.244 77.195C235.688 75.3021 237.29 71.0536 237.404 67.1228C237.519 63.192 236.566 59.3017 236.491 55.37C236.453 54.5656 236.521 53.7597 236.695 52.9734C236.981 51.9973 237.426 51.0753 238.012 50.2447C242.491 43.3764 250.276 38.5449 258.475 38.4689C259.66 38.4534 260.836 38.6698 261.938 39.1061C262.786 39.4459 263.063 39.4043 263.226 40.4461C265.168 39.8047 267.274 39.8718 269.172 40.6354C271.052 41.4003 272.805 42.4454 274.373 43.7353C275.304 44.4286 276.183 45.1902 277.002 46.0138C281.335 50.5071 282.333 57.4321 281.078 63.5495C280.67 65.5383 282.628 67.4584 284.248 68.6799C285.869 69.9015 287.74 71.0232 288.536 72.8909C289.301 74.6875 288.881 76.7422 289.035 78.6892C289.208 80.5296 289.891 82.2851 291.008 83.7574C292.125 85.2297 293.631 86.3602 295.356 87.0213C295.004 87.443 294.545 87.7618 294.027 87.944C293.509 88.1263 292.952 88.1653 292.414 88.0569C291.29 87.8201 290.24 87.3194 289.348 86.5961C285.994 84.1087 283.594 80.5449 282.549 76.5C282.073 78.6665 282.258 80.9012 282.276 83.1194C282.234 85.5949 282.689 88.0535 283.615 90.3495C284.557 92.6564 286.281 94.557 288.485 95.7166C286.36 96.7583 284.017 96.0033 282.216 94.4666C280.49 92.8264 279.243 90.7465 278.608 88.4503C277.4 84.7852 276.91 80.921 277.165 77.0699C275.188 80.4014 274.465 84.3305 275.127 88.1482C275.819 92.0407 277.85 95.5682 280.867 98.1197C275.606 98.0751 270.432 96.7709 265.778 94.3162C264.576 93.771 263.516 92.9544 262.683 91.9306C261.185 89.8509 261.539 87.0146 261.959 84.4856C262.292 82.486 259.795 79.5952 261.225 78.1594C261.65 77.7393 262.217 77.4952 262.814 77.4758C264.964 77.3148 267.048 76.6612 268.905 75.5656C270.763 74.47 272.343 72.9616 273.526 71.1571C275.174 68.6759 276.111 65.7893 276.233 62.8119C276.232 60.6257 275.759 58.4656 274.847 56.4791C273.935 54.4926 272.605 52.7266 270.948 51.3019C269.292 49.8772 267.347 48.8273 265.248 48.2239C263.148 47.6206 260.944 47.4781 258.784 47.8062C256.625 48.1343 254.561 48.9252 252.735 50.1248C250.909 51.3245 249.364 52.9046 248.204 54.7572C247.044 56.6098 246.298 58.6912 246.016 60.859C245.734 63.0269 245.923 65.2302 246.57 67.3182C247.086 68.9985 247.455 70.7204 247.674 72.4645C247.933 74.4882 248.345 76.4895 248.906 78.4511C249.987 82.2209 251.82 86.0676 255.211 88.0339C254.025 88.5421 252.751 88.8121 251.462 88.8285C247.207 89.2977 242.732 89.1941 238.881 87.3238C235.03 85.4534 231.969 81.4704 232.244 77.195Z" fill="#2F2E41"/>
<path d="M241.528 60.5087C253.747 55.6069 265.793 54.5612 277.526 60.5087V50.6284C277.526 48.9217 276.848 47.2849 275.643 46.078C274.437 44.8712 272.801 44.1932 271.096 44.1932H246.607C245.94 44.1932 245.28 44.3247 244.663 44.5802C244.047 44.8357 243.487 45.2102 243.016 45.6823C242.544 46.1543 242.17 46.7148 241.914 47.3316C241.659 47.9484 241.528 48.6095 241.528 49.2771V60.5087Z" fill="#2F2E41"/>
<path d="M245.33 66.627C246.325 66.627 247.131 65.3357 247.131 63.7428C247.131 62.1499 246.325 60.8586 245.33 60.8586C244.336 60.8586 243.529 62.1499 243.529 63.7428C243.529 65.3357 244.336 66.627 245.33 66.627Z" fill="#FFB8B8"/>
<path d="M396.665 337.473H0V339H396.665V337.473Z" fill="#3F3D56"/>
<path d="M677 152.333H374.131V0H677V152.333ZM375.657 150.806H675.474V1.52699H375.657V150.806Z" fill="#3F3D56"/>
<path d="M524.688 123.908C524.687 126.344 523.963 128.725 522.61 130.75C521.257 132.775 519.334 134.353 517.085 135.285C514.836 136.216 512.361 136.459 509.974 135.984C507.587 135.508 505.394 134.335 503.673 132.612C501.952 130.889 500.779 128.695 500.304 126.305C499.829 123.916 500.072 121.439 501.003 119.188C501.933 116.937 503.51 115.012 505.533 113.658C507.556 112.303 509.935 111.579 512.369 111.577C513.988 111.573 515.592 111.889 517.089 112.507C518.585 113.125 519.945 114.033 521.09 115.179C522.235 116.325 523.142 117.686 523.76 119.184C524.377 120.682 524.693 122.287 524.688 123.908Z" fill="#297CE0"/>
<path d="M547.001 61.7517C547.024 65.7814 546.195 69.7703 544.568 73.4561C543.863 75.0426 543.018 76.563 542.043 77.9989C540.022 80.9224 537.598 83.5444 534.842 85.7866C534.369 86.1836 533.85 86.5959 533.156 87.1303C532.286 87.7793 531.317 88.4588 530.204 89.1918C528.237 90.4648 526.345 91.849 524.536 93.3376C523.463 94.1745 522.533 95.1801 521.782 96.3152C520.844 97.9567 520.371 101.133 520.371 105.76V106.523H499.805V102.95C499.805 100.156 499.874 97.804 500.004 95.7579C500.097 93.9036 500.291 92.0558 500.583 90.2225C500.785 88.61 501.27 87.0461 502.017 85.6034C503.368 83.351 506.625 80.2894 511.965 76.2429C512.193 76.0749 512.422 75.8993 512.659 75.7237C512.88 75.571 513.094 75.4107 513.315 75.2427C515.165 73.9276 516.868 72.4174 518.395 70.7381C518.841 70.215 519.254 69.6642 519.631 69.0889L519.73 68.9362C520.926 66.8161 521.512 64.4061 521.424 61.9731C521.429 61.3576 521.389 60.7425 521.302 60.1331C521.064 57.7562 519.962 55.5496 518.205 53.9335C516.298 52.184 513.839 51.1576 511.255 51.0322C510.927 51.0016 510.622 50.994 510.309 50.994C509.094 50.9872 507.882 51.1308 506.701 51.4216C504.488 51.9679 502.503 53.1965 501.026 54.9337C500.243 55.8587 499.577 56.8767 499.042 57.9647C497.24 62.1259 496.088 66.5395 495.625 71.0511L495.549 71.8528L476.188 66.6915V58.148C476.28 57.8044 476.379 57.4608 476.486 57.1249C477.722 52.8401 479.691 48.8024 482.306 45.1914C483.424 43.6591 484.683 42.2353 486.067 40.9388C486.395 40.6104 486.754 40.2898 487.112 39.9768C489.442 37.9526 492.03 36.2477 494.809 34.9071L495.053 34.7926C500.317 32.3576 506.06 31.1366 511.858 31.2194C512.46 31.2194 513.17 31.227 513.872 31.2652C519.634 31.4114 525.289 32.8545 530.417 35.4873C532.72 36.6806 534.878 38.1358 536.848 39.824C542.375 44.3331 545.933 50.8164 546.772 57.9036C546.925 59.1806 547.001 60.4656 547.001 61.7517Z" fill="#297CE0"/>
<path opacity="0.3" d="M524.689 123.908C524.687 126.344 523.964 128.725 522.61 130.75C521.257 132.775 519.334 134.353 517.085 135.285C514.836 136.216 512.361 136.459 509.974 135.984C507.587 135.508 505.394 134.335 503.673 132.612C501.952 130.889 500.78 128.695 500.304 126.305C499.829 123.916 500.072 121.439 501.003 119.188C501.933 116.937 503.51 115.012 505.533 113.658C507.556 112.303 509.935 111.579 512.369 111.577C513.988 111.573 515.592 111.889 517.089 112.507C518.586 113.125 519.946 114.033 521.09 115.179C522.235 116.325 523.143 117.686 523.76 119.184C524.378 120.682 524.693 122.287 524.689 123.908Z" fill="black"/>
<path opacity="0.3" d="M547.001 61.7517C547.024 65.7814 546.195 69.7703 544.568 73.4561C543.863 75.0426 543.018 76.563 542.043 77.9989C540.022 80.9224 537.598 83.5444 534.842 85.7866C534.369 86.1836 533.85 86.5959 533.156 87.1303C532.286 87.7793 531.317 88.4588 530.204 89.1918C528.237 90.4648 526.345 91.849 524.536 93.3376C523.463 94.1745 522.533 95.1801 521.782 96.3152C520.844 97.9567 520.371 101.133 520.371 105.76V106.523H499.805V102.95C499.805 100.156 499.874 97.804 500.004 95.7579C500.097 93.9036 500.291 92.0558 500.583 90.2225C500.785 88.61 501.27 87.0461 502.017 85.6034C503.368 83.351 506.625 80.2894 511.965 76.2429C512.193 76.0749 512.422 75.8993 512.659 75.7237C512.88 75.571 513.094 75.4107 513.315 75.2427C515.165 73.9276 516.868 72.4174 518.395 70.7381C518.841 70.215 519.254 69.6642 519.631 69.0889L519.73 68.9362C520.926 66.8161 521.512 64.4061 521.424 61.9731C521.429 61.3576 521.389 60.7425 521.302 60.1331C521.064 57.7562 519.962 55.5496 518.205 53.9335C516.298 52.184 513.839 51.1576 511.255 51.0322C510.927 51.0016 510.622 50.994 510.309 50.994C509.094 50.9872 507.882 51.1308 506.701 51.4216C504.488 51.9679 502.503 53.1965 501.026 54.9337C500.243 55.8587 499.577 56.8767 499.042 57.9647C497.24 62.1259 496.088 66.5395 495.625 71.0511L495.549 71.8528L476.188 66.6915V58.148C476.28 57.8044 476.379 57.4608 476.486 57.1249C477.722 52.8401 479.691 48.8024 482.306 45.1914C483.424 43.6591 484.683 42.2353 486.067 40.9388C486.395 40.6104 486.754 40.2898 487.112 39.9768C489.442 37.9526 492.03 36.2477 494.809 34.9071L495.053 34.7926C500.317 32.3576 506.06 31.1366 511.858 31.2194C512.46 31.2194 513.17 31.227 513.872 31.2652C519.634 31.4114 525.289 32.8545 530.417 35.4873C532.72 36.6806 534.878 38.1358 536.848 39.824C542.375 44.3331 545.933 50.8164 546.772 57.9036C546.925 59.1806 547.001 60.4656 547.001 61.7517Z" fill="black"/>
<path d="M516.297 123.908C516.295 126.344 515.572 128.725 514.219 130.75C512.865 132.775 510.943 134.353 508.693 135.285C506.444 136.216 503.97 136.459 501.583 135.984C499.195 135.508 497.003 134.335 495.282 132.612C493.56 130.889 492.388 128.695 491.913 126.305C491.437 123.916 491.681 121.439 492.611 119.188C493.542 116.937 495.118 115.012 497.141 113.658C499.165 112.303 501.543 111.579 503.978 111.577C505.597 111.573 507.201 111.889 508.697 112.507C510.194 113.125 511.554 114.033 512.699 115.179C513.844 116.325 514.751 117.686 515.369 119.184C515.986 120.682 516.302 122.287 516.297 123.908Z" fill="#297CE0"/>
<path d="M538.61 61.7517C538.634 65.7814 537.804 69.7703 536.177 73.4561C535.472 75.0426 534.627 76.563 533.652 77.9989C531.632 80.9224 529.207 83.5444 526.451 85.7866C525.978 86.1836 525.459 86.5959 524.765 87.1303C523.896 87.7793 522.927 88.4588 521.813 89.1918C519.847 90.4648 517.954 91.849 516.145 93.3376C515.073 94.1745 514.143 95.1801 513.392 96.3152C512.453 97.9567 511.98 101.133 511.98 105.76V106.523H491.415V102.95C491.415 100.156 491.484 97.804 491.613 95.7579C491.707 93.9036 491.9 92.0558 492.193 90.2225C492.394 88.61 492.88 87.0461 493.627 85.6034C494.977 83.351 498.234 80.2894 503.574 76.2429C503.803 76.0749 504.032 75.8993 504.268 75.7237C504.49 75.571 504.703 75.4107 504.924 75.2427C506.774 73.9276 508.477 72.4174 510.005 70.7381C510.451 70.215 510.864 69.6642 511.24 69.0889L511.34 68.9362C512.535 66.8161 513.122 64.4061 513.033 61.9731C513.039 61.3576 512.998 60.7425 512.911 60.1331C512.674 57.7562 511.572 55.5496 509.814 53.9335C507.907 52.184 505.449 51.1576 502.865 51.0322C502.537 51.0016 502.232 50.994 501.919 50.994C500.703 50.9872 499.491 51.1308 498.311 51.4216C496.098 51.9679 494.113 53.1965 492.635 54.9337C491.852 55.8587 491.186 56.8767 490.652 57.9647C489.279 60.7057 488.386 64.3399 487.997 68.7606L487.921 69.5623L466.15 66.4548L466.257 65.6989C466.64 62.7963 467.254 59.929 468.096 57.1249C469.332 52.8401 471.301 48.8024 473.916 45.1914C475.034 43.6591 476.293 42.2353 477.676 40.9388C478.004 40.6104 478.363 40.2898 478.722 39.9768C481.051 37.9526 483.639 36.2477 486.418 34.9071L486.662 34.7926C491.926 32.3576 497.669 31.1366 503.467 31.2194C504.07 31.2194 504.779 31.227 505.481 31.2652C511.243 31.4114 516.898 32.8545 522.027 35.4873C524.33 36.6806 526.487 38.1358 528.457 39.824C533.984 44.3331 537.543 50.8164 538.381 57.9036C538.534 59.1806 538.611 60.4656 538.61 61.7517Z" fill="#297CE0"/>
</g>
<defs>
<clipPath id="clip0">
<rect width="677" height="339" fill="white"/>
</clipPath>
</defs>
</svg>
