<svg width="603" height="449" viewBox="0 0 603 449" fill="none" xmlns="http://www.w3.org/2000/svg">
<g clip-path="url(#clip0)">
<path d="M434.693 423.285H67.3745V424.844H434.693V423.285Z" fill="#3F3D56"/>
<path d="M262.171 208.831C262.171 208.831 254.375 243.887 269.966 237.654C285.557 231.422 276.202 207.273 276.202 207.273L262.171 208.831Z" fill="#FFB9B9"/>
<path d="M407.945 220.516C407.945 220.516 426.654 243.108 414.961 247.782C403.268 252.456 397.031 226.748 398.591 224.411C400.15 222.074 407.945 220.516 407.945 220.516Z" fill="#FFB9B9"/>
<path d="M363.511 60.8174C376.427 60.8174 386.897 50.354 386.897 37.4468C386.897 24.5396 376.427 14.0763 363.511 14.0763C350.595 14.0763 340.125 24.5396 340.125 37.4468C340.125 50.354 350.595 60.8174 363.511 60.8174Z" fill="#FFB9B9"/>
<path d="M345.972 46.4058L342.853 70.5552L368.578 79.9031L374.035 52.6375L345.972 46.4058Z" fill="#FFB9B9"/>
<path d="M360.393 70.1656C360.393 70.1656 347.178 63.6459 344.431 58.3365L338.566 63.9334C338.566 63.9334 296.47 60.0383 290.234 81.0718C283.998 102.105 289.454 178.449 289.454 178.449C289.454 178.449 280.879 212.726 283.218 213.505C285.557 214.284 314.4 228.306 354.936 220.516C354.936 220.516 372.866 217.4 375.984 219.737C379.102 222.074 374.425 182.344 374.425 182.344C374.425 182.344 405.606 112.233 400.15 103.663C394.693 95.0941 370.527 77.1767 370.527 77.1767L372.086 68.6075C372.086 68.6075 361.172 73.2816 360.393 70.1656Z" fill="#D0CDE1"/>
<path d="M296.47 75.6187C296.47 75.6187 282.439 82.6298 280.1 93.5361C277.761 104.442 255.934 194.808 258.273 200.262C260.611 205.715 259.832 212.726 259.832 212.726L280.1 210.389C280.1 210.389 276.202 204.936 278.541 202.599C280.879 200.262 283.218 192.471 281.659 189.355C280.1 186.239 278.541 191.692 287.116 181.565C295.691 171.438 315.179 78.7347 296.47 75.6187Z" fill="#E6E5EE"/>
<path d="M395.472 102.105C395.472 102.105 402.099 102.495 403.658 113.401C405.217 124.307 407.945 191.692 407.945 191.692C407.945 191.692 418.079 213.505 414.182 216.621C410.284 219.737 412.622 224.411 412.622 224.411L398.591 228.306L368.188 180.786L395.472 102.105Z" fill="#E6E5EE"/>
<path d="M285.557 210.389C285.557 210.389 280.879 211.168 280.879 228.306C280.879 245.445 272.305 298.418 277.761 306.987C283.218 315.556 283.998 392.679 283.998 392.679C283.998 392.679 298.809 398.911 311.282 378.657L312.841 367.75L315.959 314.777L328.432 248.561L345.582 321.788C345.582 321.788 343.243 409.817 351.818 409.817C360.393 409.817 376.763 402.806 376.763 402.806C376.763 402.806 380.661 395.016 379.102 391.121C377.543 387.226 375.984 388.005 377.543 384.889C379.102 381.773 381.441 300.755 381.441 300.755C381.441 300.755 378.322 217.4 374.425 215.063C370.527 212.726 285.557 210.389 285.557 210.389Z" fill="#2F2E41"/>
<path d="M285.557 389.563L273.084 402.806C273.084 402.806 250.477 423.84 269.966 424.619C289.455 425.398 300.368 412.154 300.368 410.596C300.368 409.038 301.148 403.585 306.604 403.585C312.061 403.585 325.314 390.342 322.195 384.889C319.077 379.436 309.723 377.099 309.723 377.099L285.557 389.563Z" fill="#2F2E41"/>
<path d="M352.597 406.701C352.597 406.701 343.243 425.398 348.7 429.293C354.156 433.188 355.715 434.746 355.715 434.746C355.715 434.746 360.393 433.967 359.613 440.978C358.834 447.989 387.677 451.885 389.236 446.431C390.795 440.978 390.015 430.072 386.897 426.956C383.779 423.84 374.425 402.027 374.425 402.027C374.425 402.027 364.29 390.342 352.597 406.701Z" fill="#2F2E41"/>
<path d="M387.113 18.6809L391.519 18.0555C391.519 18.0555 385.386 6.77501 373.516 4.72669L377.682 1.91629C377.682 1.91629 370.442 -3.25467 361.084 3.39195C356.165 6.88591 350.454 11.0102 346.253 16.2013L341.955 15.1518L342.784 19.5365L335.541 21.95L342.158 22.8148C341.245 24.8823 340.647 27.0743 340.382 29.3184C340.125 31.5652 340.752 33.8237 342.131 35.6174C342.131 35.6174 349.625 26.5385 350.017 24.933L349.036 28.9466C349.036 28.9466 353.932 26.3144 354.521 23.9063L356.023 27.2504L358.197 23.1027L370.615 30.8142L369.31 26.6674L377.406 29.9207L375.202 24.7038C375.202 24.7038 383.411 32.238 382.696 36.7421C381.981 41.2461 383.734 46.1075 383.734 46.1075C383.734 46.1075 396.22 27.285 387.113 18.6809Z" fill="#2F2E41"/>
<path d="M603 283.469H478.162V284.961H603V283.469Z" fill="#3F3D56"/>
<path d="M136.367 398.491H106.275V428.563H136.367V398.491Z" fill="white"/>
<path d="M132.407 424.606H100.732V392.952H132.407V424.606ZM102.315 423.024H130.824V394.535H102.315L102.315 423.024Z" fill="#3F3D56"/>
<path d="M169.29 135.734L150.246 143.094L157.356 161.466L176.4 154.106L169.29 135.734Z" fill="white"/>
<path d="M172.958 152.657L152.912 160.405L145.428 141.066L165.474 133.318L172.958 152.657ZM153.54 159.05L171.582 152.077L164.846 134.673L146.804 141.645L153.54 159.05Z" fill="#3F3D56"/>
<path d="M519.219 359.701L512.581 340.405L493.941 346.81L500.579 366.106L519.219 359.701Z" fill="white"/>
<path d="M502.158 362.724L495.17 342.412L514.792 335.671L521.779 355.983L502.158 362.724ZM496.501 343.091L502.79 361.371L520.449 355.304L514.16 337.024L496.501 343.091Z" fill="#3F3D56"/>
<path d="M94.6789 263.78C105.844 264.019 114.726 272.105 114.726 272.105C114.726 272.105 105.505 279.802 94.3401 279.563C83.175 279.323 74.2932 271.238 74.2932 271.238C74.2932 271.238 83.5138 263.54 94.6789 263.78Z" fill="#297CE0"/>
<path d="M38.5464 225.693C48.6336 230.482 60.2004 227.234 60.2004 227.234C60.2004 227.234 55.4126 216.222 45.3254 211.433C35.2382 206.644 23.6714 209.892 23.6714 209.892C23.6714 209.892 28.4592 220.904 38.5464 225.693Z" fill="#297CE0"/>
<path d="M39.5719 220.934C50.6933 219.918 60.4278 226.955 60.4278 226.955C60.4278 226.955 52.131 235.639 41.0096 236.655C29.8883 237.671 20.1538 230.634 20.1538 230.634C20.1538 230.634 28.4506 221.949 39.5719 220.934Z" fill="#3F3D56"/>
<path d="M80.339 222.858C79.273 233.967 86.2716 243.726 86.2716 243.726C86.2716 243.726 94.9985 235.474 96.0644 224.365C97.1304 213.256 90.1318 203.496 90.1318 203.496C90.1318 203.496 81.405 211.749 80.339 222.858Z" fill="#3F3D56"/>
<path d="M132.715 290.991C126.882 300.507 128.889 312.345 128.889 312.345C128.889 312.345 140.353 308.753 146.186 299.236C152.02 289.72 150.013 277.882 150.013 277.882C150.013 277.882 138.548 281.474 132.715 290.991Z" fill="#3F3D56"/>
<path d="M115.792 394.462L116.642 393.888C113.646 389.543 112.01 384.405 111.942 379.129C111.966 371.41 115.76 364.27 119.429 357.366C120.11 356.084 120.789 354.807 121.442 353.53C124.183 348.325 126.367 342.845 127.958 337.181C133.65 316.046 128.046 291.11 112.97 270.478C101.01 254.111 83.1811 239.798 58.4653 226.723L57.9854 227.629C82.5604 240.63 100.275 254.844 112.141 271.083C127.036 291.466 132.579 316.077 126.968 336.915C125.395 342.509 123.236 347.922 120.528 353.064C119.877 354.335 119.201 355.608 118.523 356.885C114.795 363.9 110.941 371.153 110.916 379.126C110.984 384.608 112.681 389.946 115.792 394.462Z" fill="#3F3D56"/>
<path d="M9.74661 228.07C15.1294 228.07 19.493 223.71 19.493 218.33C19.493 212.951 15.1294 208.591 9.74661 208.591C4.36384 208.591 0.000244141 212.951 0.000244141 218.33C0.000244141 223.71 4.36384 228.07 9.74661 228.07Z" fill="#3F3D56"/>
<path d="M540.332 275.862L414.877 230.833L437.274 168.514L515.389 149.37L562.73 213.543L540.332 275.862Z" fill="#2F2E41"/>
<path d="M525.134 263.504L431.381 227.79C455.72 195.211 466.603 172.23 466.611 136.067L560.365 171.781C538.584 202.699 529.476 225.942 525.134 263.504Z" fill="white"/>
<path d="M532.514 176.668L483.943 158.166L483.081 160.423L531.652 178.926L532.514 176.668Z" fill="#3F3D56"/>
<path d="M529.069 185.698L480.498 167.196L479.637 169.454L528.208 187.956L529.069 185.698Z" fill="#3F3D56"/>
<path d="M525.624 194.729L477.053 176.226L476.192 178.484L524.763 196.986L525.624 194.729Z" fill="#3F3D56"/>
<path d="M522.18 203.759L473.609 185.257L472.747 187.514L521.318 206.017L522.18 203.759Z" fill="#3F3D56"/>
<path d="M518.735 212.79L470.164 194.287L469.303 196.545L517.874 215.047L518.735 212.79Z" fill="#3F3D56"/>
<path d="M515.29 221.82L466.719 203.317L465.858 205.575L514.429 224.077L515.29 221.82Z" fill="#3F3D56"/>
<path d="M511.846 230.85L463.275 212.348L462.413 214.605L510.984 233.108L511.846 230.85Z" fill="#3F3D56"/>
<path d="M508.401 239.881L459.83 221.378L458.969 223.636L507.54 242.138L508.401 239.881Z" fill="#3F3D56"/>
<path d="M537.434 283.926L411.979 238.898L437.274 168.514L490.253 218.155L562.73 213.543L537.434 283.926Z" fill="#3F3D56"/>
<path d="M473.688 261.749L411.134 239.296L426.376 196.885L427.619 197.331L412.824 238.499L474.135 260.506L473.688 261.749Z" fill="#297CE0"/>
<path d="M451.453 216.645L433.111 210.062L430.476 217.393L448.818 223.976L451.453 216.645Z" fill="#297CE0"/>
<path d="M244.075 423.84L145.885 423.788L146.656 368.701L195.454 390.619L244.846 370.073L244.075 423.84Z" fill="#3F3D56"/>
<path d="M168.058 398.845L153.703 398.644L153.623 404.382L167.978 404.583L168.058 398.845Z" fill="#297CE0"/>
<path d="M245.174 369.998L195.543 395.283L146.398 369.998V368.539H245.174V369.998Z" fill="#297CE0"/>
<path opacity="0.3" d="M531.828 154.948C531.153 156.755 529.958 158.321 528.394 159.449C526.83 160.577 524.968 161.216 523.042 161.285C521.116 161.354 519.213 160.85 517.574 159.837C515.934 158.824 514.632 157.347 513.832 155.593C513.032 153.839 512.769 151.887 513.077 149.983C513.385 148.079 514.251 146.309 515.564 144.897C516.877 143.484 518.578 142.493 520.454 142.047C522.329 141.602 524.294 141.723 526.1 142.395C527.302 142.839 528.405 143.517 529.344 144.389C530.283 145.262 531.041 146.311 531.573 147.478C532.106 148.645 532.402 149.905 532.446 151.187C532.49 152.469 532.28 153.748 531.828 154.948Z" fill="black"/>
<path opacity="0.3" d="M565.569 115.012C564.472 118.007 562.754 120.737 560.527 123.021C559.566 124.003 558.518 124.897 557.398 125.693C555.09 127.302 552.567 128.577 549.902 129.478C549.442 129.642 548.943 129.804 548.28 130.008C547.455 130.249 546.549 130.486 545.52 130.721C543.709 131.122 541.923 131.625 540.169 132.229C539.142 132.553 538.174 133.042 537.303 133.676C536.153 134.634 534.924 136.86 533.644 140.292L533.433 140.858L518.178 135.171L519.166 132.52C519.939 130.447 520.64 128.722 521.302 127.24C521.884 125.89 522.539 124.573 523.263 123.294C523.858 122.154 524.651 121.128 525.604 120.264C527.229 118.967 530.491 117.596 535.572 116.072C535.788 116.01 536.006 115.943 536.23 115.878C536.436 115.826 536.639 115.766 536.85 115.703C538.586 115.239 540.267 114.59 541.864 113.767C542.34 113.502 542.798 113.208 543.237 112.885L543.353 112.799C544.826 111.557 545.927 109.932 546.535 108.102C546.709 107.647 546.849 107.18 546.953 106.704C547.434 104.875 547.227 102.933 546.37 101.248C545.44 99.4231 543.9 97.9817 542.018 97.1741C541.783 97.0608 541.559 96.9707 541.327 96.8842C540.427 96.543 539.488 96.3143 538.532 96.2035C536.739 95.9968 534.927 96.3591 533.351 97.2392C532.514 97.7089 531.738 98.2798 531.041 98.9391C528.553 101.527 526.478 104.483 524.887 107.701L524.608 108.275L511.675 99.092L514.037 92.7545C514.2 92.525 514.369 92.2975 514.541 92.0779C516.643 89.2412 519.22 86.7907 522.159 84.8353C523.412 84.0078 524.739 83.2998 526.125 82.7207C526.459 82.5679 526.813 82.4292 527.166 82.2962C529.454 81.4389 531.845 80.89 534.277 80.6641L534.49 80.6467C539.068 80.2962 543.666 80.9787 547.944 82.6437C548.391 82.8104 548.915 83.0122 549.425 83.2346C553.659 84.9366 557.455 87.5711 560.531 90.9425C561.909 92.4645 563.108 94.1407 564.102 95.9378C566.955 100.811 567.802 106.605 566.464 112.094C566.224 113.083 565.925 114.058 565.569 115.012Z" fill="black"/>
<path d="M525.603 152.628C524.928 154.434 523.733 156.001 522.169 157.128C520.605 158.256 518.743 158.895 516.817 158.964C514.891 159.033 512.988 158.529 511.349 157.516C509.709 156.503 508.407 155.026 507.607 153.272C506.807 151.518 506.544 149.566 506.852 147.662C507.16 145.758 508.026 143.988 509.339 142.576C510.652 141.163 512.353 140.172 514.229 139.726C516.104 139.281 518.069 139.402 519.875 140.074C521.077 140.518 522.18 141.196 523.119 142.068C524.058 142.941 524.816 143.991 525.348 145.157C525.881 146.324 526.177 147.584 526.221 148.866C526.265 150.149 526.055 151.427 525.603 152.628Z" fill="#297CE0"/>
<path d="M559.345 112.692C558.248 115.687 556.53 118.417 554.303 120.701C553.342 121.683 552.295 122.577 551.174 123.373C548.867 124.982 546.343 126.257 543.679 127.158C543.218 127.322 542.719 127.484 542.056 127.688C541.232 127.929 540.325 128.165 539.296 128.401C537.486 128.802 535.699 129.305 533.945 129.909C532.918 130.233 531.95 130.722 531.079 131.356C529.929 132.314 528.7 134.54 527.42 137.972L527.209 138.538L511.954 132.851L512.942 130.2C513.715 128.127 514.416 126.402 515.078 124.92C515.66 123.57 516.315 122.253 517.039 120.974C517.634 119.833 518.427 118.808 519.38 117.944C521.005 116.647 524.268 115.276 529.348 113.751C529.564 113.69 529.783 113.623 530.007 113.558C530.213 113.506 530.416 113.446 530.626 113.383C532.362 112.919 534.043 112.27 535.641 111.446C536.116 111.182 536.575 110.887 537.013 110.565L537.129 110.479C538.603 109.237 539.704 107.611 540.311 105.782C540.486 105.327 540.625 104.86 540.73 104.384C541.211 102.555 541.003 100.613 540.147 98.9281C539.216 97.103 537.676 95.6616 535.794 94.854C535.559 94.7407 535.335 94.6507 535.103 94.5641C534.203 94.2229 533.264 93.9942 532.308 93.8834C530.516 93.6767 528.703 94.039 527.127 94.9191C526.29 95.3888 525.515 95.9597 524.817 96.619C523.041 98.2725 521.374 100.722 519.863 103.893L519.584 104.467L504.294 96.1407L504.582 95.6095C505.669 93.5621 506.918 91.6052 508.317 89.7578C510.419 86.9211 512.997 84.4706 515.935 82.5152C517.188 81.6877 518.516 80.9797 519.901 80.4006C520.235 80.2478 520.59 80.1091 520.942 79.9761C523.23 79.1188 525.622 78.57 528.054 78.3441L528.267 78.3266C532.845 77.9761 537.442 78.6586 541.721 80.3236C542.168 80.4903 542.692 80.6921 543.202 80.9145C547.435 82.6165 551.231 85.251 554.307 88.6224C555.686 90.1444 556.884 91.8206 557.878 93.6177C560.731 98.4911 561.578 104.285 560.24 109.774C560 110.763 559.701 111.738 559.345 112.692Z" fill="#297CE0"/>
</g>
<defs>
<clipPath id="clip0">
<rect width="603" height="449" fill="white"/>
</clipPath>
</defs>
</svg>
